SplineFontDB: 2.0
FontName: THBaijam-Italic
FullName: THBaijam-Italic
FamilyName: TH Baijam
Weight: Book
Copyright: Copyright (c) 2006 by Department of Intellectual Property (DIP), Ministry of Commerce and Software Industry Promotion Agency (Public Organization) (SIPA). All rights reserved.
Version: 1.1
ItalicAngle: -12
UnderlinePosition: -35
UnderlineWidth: 30
Ascent: 800
Descent: 200
Order2: 1
XUID: [1021 375 425136265 11004461]
FSType: 0
OS2Version: 3
OS2_WeightWidthSlopeOnly: 0
OS2_UseTypoMetrics: 1
CreationTime: 1154328750
ModificationTime: 1196256145
PfmFamily: 17
TTFWeight: 400
TTFWidth: 5
LineGap: 60
VLineGap: 0
Panose: 2 0 5 6 0 0 0 2 0 4
OS2TypoAscent: 0
OS2TypoAOffset: 1
OS2TypoDescent: 0
OS2TypoDOffset: 1
OS2TypoLinegap: 0
OS2WinAscent: 0
OS2WinAOffset: 1
OS2WinDescent: -108
OS2WinDOffset: 1
HheadAscent: 0
HheadAOffset: 1
HheadDescent: 108
HheadDOffset: 1
OS2SubXSize: 700
OS2SubYSize: 650
OS2SubXOff: 0
OS2SubYOff: 140
OS2SupXSize: 700
OS2SupYSize: 650
OS2SupXOff: 0
OS2SupYOff: 477
OS2StrikeYSize: 30
OS2StrikeYPos: 250
OS2FamilyClass: 773
OS2Vendor: 'IPTH'
Lookup: 4 0 0 "'frac' Diagonal Fractions in Latin lookup 0"  {"'frac' Diagonal Fractions in Latin lookup 0 subtable"  } ['frac' ('latn' <'dflt' > ) ]
Lookup: 6 0 0 "'liga' Standard Ligatures in Latin lookup 1"  {"'liga' Standard Ligatures in Latin lookup 1 subtable"  } ['liga' ('latn' <'dflt' > ) ]
Lookup: 6 0 0 "'liga' Standard Ligatures in Latin lookup 2"  {"'liga' Standard Ligatures in Latin lookup 2 subtable"  } ['liga' ('latn' <'dflt' > ) ]
Lookup: 6 0 0 "'liga' Standard Ligatures in Latin lookup 3"  {"'liga' Standard Ligatures in Latin lookup 3 subtable"  } ['liga' ('latn' <'dflt' > ) ]
Lookup: 6 0 0 "'liga' Standard Ligatures in Latin lookup 4"  {"'liga' Standard Ligatures in Latin lookup 4 subtable"  } ['liga' ('latn' <'dflt' > ) ]
Lookup: 6 0 0 "'liga' Standard Ligatures in Latin lookup 5"  {"'liga' Standard Ligatures in Latin lookup 5 subtable"  } ['liga' ('latn' <'dflt' > ) ]

StartChar: .notdef
Encoding: 65536 -1 0
Width: 753
VWidth: 1507
Flags: W
HStem: 0 80<185 598> 974 74<375 788>
Fore
598 80 m 1,0,-1
 788 974 l 1,1,-1
 375 974 l 1,2,-1
 185 80 l 1,3,-1
 598 80 l 1,0,-1
657 0 m 1,4,-1
 95 0 l 1,5,-1
 317 1048 l 1,6,-1
 879 1048 l 1,7,-1
 657 0 l 1,4,-1
EndSplineSet
EndChar
StartChar: numbersign
Encoding: 35 35 4
Width: 658
VWidth: 1507
Flags: W
HStem: 0 21G<176 244.221 433 500.221> 199 63<112 219 294 475 550 647> 470 64<170 276 353 532 609 704> 696 20G<322.824 390 578.934 647>
Fore
475 199 m 1,0,-1
 282 199 l 1,1,-1
 240 0 l 1,2,-1
 176 0 l 1,3,-1
 219 199 l 1,4,-1
 99 199 l 1,5,-1
 112 262 l 1,6,-1
 231 262 l 1,7,-1
 276 470 l 1,8,-1
 157 470 l 1,9,-1
 170 534 l 1,10,-1
 289 534 l 1,11,-1
 327 716 l 1,12,-1
 390 716 l 1,13,-1
 353 534 l 1,14,-1
 546 534 l 1,15,-1
 583 716 l 1,16,-1
 647 716 l 1,17,-1
 609 534 l 1,18,-1
 718 534 l 1,19,-1
 704 470 l 1,20,-1
 595 470 l 1,21,-1
 550 262 l 1,22,-1
 659 262 l 1,23,-1
 647 199 l 1,24,-1
 538 199 l 1,25,-1
 496 0 l 1,26,-1
 433 0 l 1,27,-1
 475 199 l 1,0,-1
294 262 m 1,28,-1
 487 262 l 1,29,-1
 532 470 l 1,30,-1
 339 470 l 1,31,-1
 294 262 l 1,28,-1
EndSplineSet
EndChar
StartChar: dollar
Encoding: 36 36 5
Width: 547
VWidth: 1507
Flags: W
HStem: 0 68<143.89 252 329 368.814> 648 68<346.773 389 466 537.739>
Fore
252 0 m 1,0,-1
 194 0 l 2,1,2
 124 0 124 0 84 40.5 c 128,-1,3
 44 81 44 81 59 152 c 1,4,-1
 127 152 l 1,5,6
 118 112 118 112 142.5 90 c 128,-1,7
 167 68 167 68 208 68 c 2,8,-1
 265 68 l 1,9,-1
 324 341 l 1,10,-1
 249 377 l 2,11,12
 216 392 216 392 197 411.5 c 128,-1,13
 178 431 178 431 169.5 452 c 128,-1,14
 161 473 161 473 161 497.5 c 128,-1,15
 161 522 161 522 166 546 c 0,16,17
 173 583 173 583 195 614 c 128,-1,18
 217 645 217 645 247 667.5 c 128,-1,19
 277 690 277 690 312.5 703 c 128,-1,20
 348 716 348 716 383 716 c 2,21,-1
 402 716 l 1,22,-1
 419 791 l 1,23,-1
 482 791 l 1,24,-1
 466 716 l 1,25,-1
 487 716 l 2,26,27
 558 716 558 716 598 675.5 c 128,-1,28
 638 635 638 635 623 564 c 1,29,-1
 555 564 l 1,30,31
 564 604 564 604 539 626 c 128,-1,32
 514 648 514 648 473 648 c 2,33,-1
 452 648 l 1,34,-1
 395 381 l 1,35,-1
 472 345 l 2,36,37
 505 329 505 329 524 312 c 128,-1,38
 543 295 543 295 552 275 c 128,-1,39
 561 255 561 255 561 231.5 c 128,-1,40
 561 208 561 208 555 179 c 0,41,42
 547 148 547 148 526.5 115.5 c 128,-1,43
 506 83 506 83 476 57.5 c 128,-1,44
 446 32 446 32 410 16 c 128,-1,45
 374 0 374 0 336 0 c 2,46,-1
 315 0 l 1,47,-1
 297 -80 l 1,48,-1
 234 -80 l 1,49,-1
 252 0 l 1,0,-1
381 314 m 1,50,-1
 329 68 l 1,51,-1
 350 68 l 2,52,53
 363 68 363 68 384 77 c 128,-1,54
 405 86 405 86 427 102 c 128,-1,55
 449 118 449 118 465.5 137.5 c 128,-1,56
 482 157 482 157 487 178 c 0,57,58
 494 220 494 220 486 244 c 128,-1,59
 478 268 478 268 443 285 c 2,60,-1
 381 314 l 1,50,-1
235 547 m 0,61,62
 228 517 228 517 232.5 487 c 128,-1,63
 237 457 237 457 277 437 c 2,64,-1
 338 409 l 1,65,-1
 389 648 l 1,66,-1
 369 648 l 2,67,68
 348 648 348 648 326 640.5 c 128,-1,69
 304 633 304 633 285.5 619.5 c 128,-1,70
 267 606 267 606 253.5 587 c 128,-1,71
 240 568 240 568 235 547 c 0,61,62
EndSplineSet
EndChar
StartChar: percent
Encoding: 37 37 6
Width: 875
VWidth: 1507
Flags: W
HStem: 18 63<612.983 629 662 713.218> 304 62<686.092 711 748 766.07> 329 63<247.914 265 298 349.734> 615 63<322.934 348 384 403.846>
Fore
348 678 m 2,0,1
 326 678 326 678 303 667.5 c 128,-1,2
 280 657 280 657 261.5 640 c 128,-1,3
 243 623 243 623 229.5 601 c 128,-1,4
 216 579 216 579 211 556 c 2,5,-1
 184 430 l 2,6,7
 173 383 173 383 195 356 c 128,-1,8
 217 329 217 329 265 329 c 2,9,-1
 298 329 l 2,10,11
 347 329 347 329 388.5 365 c 128,-1,12
 430 401 430 401 440 448 c 2,13,-1
 467 579 l 2,14,15
 478 626 478 626 457 652 c 128,-1,16
 436 678 436 678 384 678 c 2,17,-1
 348 678 l 2,0,1
268 544 m 2,18,19
 274 571 274 571 298.5 593 c 128,-1,20
 323 615 323 615 353 615 c 2,21,-1
 359 615 l 2,22,23
 416 615 416 615 404 564 c 2,24,-1
 381 460 l 2,25,26
 375 433 375 433 350.5 412.5 c 128,-1,27
 326 392 326 392 298 392 c 2,28,-1
 292 392 l 2,29,30
 235 392 235 392 247 445 c 2,31,-1
 268 544 l 2,18,19
711 366 m 2,32,33
 689 366 689 366 666.5 355.5 c 128,-1,34
 644 345 644 345 625 328.5 c 128,-1,35
 606 312 606 312 592.5 289.5 c 128,-1,36
 579 267 579 267 574 244 c 2,37,-1
 547 118 l 2,38,39
 538 72 538 72 559 45 c 128,-1,40
 580 18 580 18 629 18 c 2,41,-1
 662 18 l 2,42,43
 710 18 710 18 751.5 53.5 c 128,-1,44
 793 89 793 89 803 137 c 2,45,-1
 831 268 l 2,46,47
 841 314 841 314 820 340 c 128,-1,48
 799 366 799 366 748 366 c 2,49,-1
 711 366 l 2,32,33
197 -26 m 1,50,-1
 748 739 l 1,51,-1
 814 739 l 1,52,-1
 267 -26 l 1,53,-1
 197 -26 l 1,50,-1
632 234 m 2,54,55
 639 261 639 261 662.5 282.5 c 128,-1,56
 686 304 686 304 716 304 c 2,57,-1
 722 304 l 2,58,59
 779 304 779 304 767 253 c 2,60,-1
 746 149 l 2,61,62
 739 122 739 122 714 101.5 c 128,-1,63
 689 81 689 81 662 81 c 2,64,-1
 656 81 l 2,65,66
 601 81 601 81 610 134 c 2,67,-1
 632 234 l 2,54,55
EndSplineSet
EndChar
StartChar: ampersand
Encoding: 38 38 7
Width: 657
VWidth: 1507
Flags: W
HStem: -9 68<230.008 378.719> 651 65<388.062 526.696>
VStem: 565 68<284.068 318>
Fore
633 318 m 1,0,1
 624 273 624 273 598.5 224.5 c 128,-1,2
 573 176 573 176 538 133 c 1,3,4
 555 104 555 104 570.5 80 c 128,-1,5
 586 56 586 56 598 38 c 0,6,7
 612 17 612 17 623 0 c 1,8,-1
 538 0 l 1,9,-1
 523 23 l 2,10,11
 508 47 508 47 488 80 c 1,12,13
 443 41 443 41 390.5 16 c 128,-1,14
 338 -9 338 -9 282 -9 c 2,15,-1
 238 -9 l 2,16,17
 203 -9 203 -9 173 7.5 c 128,-1,18
 143 24 143 24 123 50.5 c 128,-1,19
 103 77 103 77 93.5 111 c 128,-1,20
 84 145 84 145 92 179 c 2,21,-1
 98 213 l 2,22,23
 104 243 104 243 123 269 c 128,-1,24
 142 295 142 295 168 318 c 128,-1,25
 194 341 194 341 226.5 359.5 c 128,-1,26
 259 378 259 378 292 395 c 1,27,-1
 273 425 l 2,28,29
 258 448 258 448 249 474 c 128,-1,30
 240 500 240 500 247 534 c 2,31,-1
 249 546 l 2,32,33
 256 582 256 582 276.5 613 c 128,-1,34
 297 644 297 644 325 666.5 c 128,-1,35
 353 689 353 689 387 702.5 c 128,-1,36
 421 716 421 716 455 716 c 2,37,-1
 494 716 l 2,38,39
 553 716 553 716 585.5 675.5 c 128,-1,40
 618 635 618 635 606 576 c 2,41,-1
 603 562 l 2,42,43
 595 528 595 528 576.5 500 c 128,-1,44
 558 472 558 472 530.5 451 c 128,-1,45
 503 430 503 430 470 412.5 c 128,-1,46
 437 395 437 395 401 380 c 2,47,-1
 387 374 l 1,48,49
 413 335 413 335 442.5 286.5 c 128,-1,50
 472 238 472 238 502 190 c 1,51,52
 526 223 526 223 542.5 257 c 128,-1,53
 559 291 559 291 565 318 c 1,54,-1
 633 318 l 1,0,1
323 347 m 1,55,56
 297 335 297 335 270.5 319.5 c 128,-1,57
 244 304 244 304 222 287 c 128,-1,58
 200 270 200 270 185 251 c 128,-1,59
 170 232 170 232 166 213 c 2,60,-1
 160 179 l 2,61,62
 155 158 155 158 161 137 c 128,-1,63
 167 116 167 116 180.5 98.5 c 128,-1,64
 194 81 194 81 213 70 c 128,-1,65
 232 59 232 59 253 59 c 2,66,-1
 297 59 l 2,67,68
 339 59 339 59 380 80 c 128,-1,69
 421 101 421 101 455 136 c 1,70,-1
 323 347 l 1,55,56
395 440 m 0,71,72
 446 461 446 461 487 490 c 128,-1,73
 528 519 528 519 537 562 c 2,74,-1
 538 574 l 2,75,76
 546 606 546 606 528 628.5 c 128,-1,77
 510 651 510 651 478 651 c 2,78,-1
 442 651 l 2,79,80
 398 651 398 651 362 620 c 128,-1,81
 326 589 326 589 315 546 c 2,82,-1
 314 535 l 2,83,84
 309 516 309 516 316.5 500.5 c 128,-1,85
 324 485 324 485 330 470 c 1,86,87
 330 467 330 467 337 455 c 128,-1,88
 344 443 344 443 356 424 c 1,89,90
 376 432 l 128,-1,91
 386 436 386 436 395 440 c 0,71,72
EndSplineSet
EndChar
StartChar: quotesingle
Encoding: 39 39 8
Width: 188
VWidth: 1507
Flags: W
HStem: 541 220<216 240 169 286 216 216>
Fore
216 761 m 1,0,-1
 286 761 l 1,1,-1
 240 541 l 1,2,-1
 169 541 l 1,3,-1
 216 761 l 1,0,-1
EndSplineSet
EndChar
StartChar: parenleft
Encoding: 40 40 9
Width: 327
VWidth: 1507
Flags: W
HStem: 696 20G<312 433>
VStem: 109.5 323.5<14 716 14 14>
Fore
163 -207 m 1,0,1
 121 -103 121 -103 109.5 14 c 128,-1,2
 98 131 98 131 124 255 c 0,3,4
 151 383 151 383 208 495 c 128,-1,5
 265 607 265 607 359 716 c 1,6,-1
 433 716 l 1,7,8
 339 607 339 607 279 495 c 128,-1,9
 219 383 219 383 191 255 c 0,10,11
 166 131 166 131 180 14 c 128,-1,12
 194 -103 194 -103 237 -207 c 1,13,-1
 163 -207 l 1,0,1
EndSplineSet
EndChar
StartChar: parenright
Encoding: 41 41 10
Width: 327
VWidth: 1507
Flags: W
HStem: 696 20G<222 342>
VStem: 26 309<-207 255 -207 -207>
Fore
26 -207 m 1,0,1
 113 -103 113 -103 177 14 c 128,-1,2
 241 131 241 131 267 255 c 0,3,4
 294 383 294 383 282 495 c 128,-1,5
 270 607 270 607 222 716 c 1,6,-1
 295 716 l 1,7,8
 389 505 389 505 335 255 c 0,9,10
 309 131 309 131 248 14 c 128,-1,11
 187 -103 187 -103 99 -207 c 1,12,-1
 26 -207 l 1,0,1
EndSplineSet
EndChar
StartChar: asterisk
Encoding: 42 42 11
Width: 471
VWidth: 1507
Flags: W
HStem: 452 383<354 383 244.753 383>
VStem: 173 392<571 718 432.753 571>
Fore
351 687 m 1,0,-1
 383 835 l 1,1,-1
 436 835 l 1,2,-1
 405 689 l 1,3,-1
 547 763 l 1,4,5
 549 758 549 758 552 752 c 256,6,7
 555 746 555 746 557 738 c 128,-1,8
 559 730 559 730 565 718 c 1,9,-1
 419 644 l 1,10,-1
 534 570 l 1,11,-1
 496 525 l 1,12,-1
 386 597 l 1,13,-1
 354 452 l 1,14,-1
 301 452 l 1,15,-1
 333 598 l 1,16,-1
 191 526 l 1,17,-1
 173 571 l 1,18,-1
 314 644 l 1,19,-1
 203 716 l 1,20,21
 207 721 207 721 213 727 c 2,22,23
 217 733 217 733 224 741 c 128,-1,24
 231 749 231 749 241 761 c 1,25,-1
 351 687 l 1,0,-1
EndSplineSet
EndChar
StartChar: plus
Encoding: 43 43 12
Width: 574
VWidth: 1507
Flags: W
HStem: 99 465<341 375 438 625> 300 63<133 320 396 583 119 597 133 133>
Fore
383 300 m 1,0,-1
 341 99 l 1,1,-1
 277 99 l 1,2,-1
 320 300 l 1,3,-1
 119 300 l 1,4,-1
 133 363 l 1,5,-1
 333 363 l 1,6,-1
 375 564 l 1,7,-1
 439 564 l 1,8,-1
 396 363 l 1,9,-1
 597 363 l 1,10,11
 595 354 595 354 592 345 c 0,12,13
 589 338 589 338 587.5 326 c 128,-1,14
 586 314 586 314 583 300 c 1,15,-1
 383 300 l 1,0,-1
EndSplineSet
EndChar
StartChar: comma
Encoding: 44 44 13
Width: 232
VWidth: 1507
Flags: W
HStem: -121 214<30 121 121 121>
VStem: 6 176<-72 93 -72 -72>
Fore
121 93 m 1,0,-1
 182 93 l 1,1,-1
 173 53 l 2,2,3
 164 9 164 9 146 -19.5 c 128,-1,4
 128 -48 128 -48 107 -67.5 c 128,-1,5
 86 -87 86 -87 65.5 -99.5 c 128,-1,6
 45 -112 45 -112 30 -121 c 1,7,-1
 6 -72 l 1,8,9
 20 -62 20 -62 35.5 -52 c 128,-1,10
 51 -42 51 -42 66 -28.5 c 128,-1,11
 81 -15 81 -15 93.5 4.5 c 128,-1,12
 106 24 106 24 112 53 c 2,13,-1
 121 93 l 1,0,-1
EndSplineSet
EndChar
StartChar: hyphen
Encoding: 45 45 14
Width: 357
VWidth: 1507
Flags: W
HStem: 282 69<116 372 101 387 116 116>
Fore
101 282 m 1,0,-1
 116 351 l 1,1,-1
 387 351 l 1,2,3
 386 341 386 341 383 330 c 0,4,5
 380 321 380 321 377.5 308 c 128,-1,6
 375 295 375 295 372 282 c 1,7,-1
 101 282 l 1,0,-1
EndSplineSet
EndChar
StartChar: period
Encoding: 46 46 15
Width: 272
VWidth: 1507
Flags: W
HStem: -8 106<121.563 179.406>
VStem: 98 105<8.4751 82.0547>
Fore
98 45 m 256,0,1
 103 68 103 68 121 83 c 128,-1,2
 139 98 139 98 161 98 c 256,3,4
 184 98 184 98 196 83 c 128,-1,5
 208 68 208 68 203 45 c 256,6,7
 199 23 199 23 180 7.5 c 128,-1,8
 161 -8 161 -8 139 -8 c 256,9,10
 116 -8 116 -8 104.5 7.5 c 128,-1,11
 93 23 93 23 98 45 c 256,0,1
EndSplineSet
EndChar
StartChar: slash
Encoding: 47 47 16
Width: 453
VWidth: 1507
Flags: W
Fore
-6 -26 m 1,0,-1
 543 739 l 1,1,-1
 609 739 l 1,2,-1
 62 -26 l 1,3,-1
 -6 -26 l 1,0,-1
EndSplineSet
EndChar
StartChar: zero
Encoding: 48 48 17
Width: 574
VWidth: 1507
Flags: W
HStem: -8 61<193.104 361.875> 663 61<362.094 536.153>
Fore
470 724 m 2,0,1
 573 724 573 724 615 666.5 c 128,-1,2
 657 609 657 609 636 514 c 2,3,-1
 579 246 l 2,4,5
 568 197 568 197 539.5 151.5 c 128,-1,6
 511 106 511 106 471 70.5 c 128,-1,7
 431 35 431 35 383 13.5 c 128,-1,8
 335 -8 335 -8 288 -8 c 2,9,-1
 255 -8 l 2,10,11
 155 -8 155 -8 113 51 c 128,-1,12
 71 110 71 110 90 205 c 2,13,-1
 146 464 l 2,14,15
 157 511 157 511 185 557.5 c 128,-1,16
 213 604 213 604 252 641 c 128,-1,17
 291 678 291 678 337.5 701 c 128,-1,18
 384 724 384 724 430 724 c 2,19,-1
 470 724 l 2,0,1
158 205 m 2,20,21
 145 139 145 139 172 96 c 128,-1,22
 199 53 199 53 267 53 c 2,23,-1
 292 53 l 2,24,25
 327 53 327 53 363 70 c 128,-1,26
 399 87 399 87 429.5 115 c 128,-1,27
 460 143 460 143 481.5 177 c 128,-1,28
 503 211 503 211 511 246 c 2,29,-1
 568 514 l 2,30,31
 582 580 582 580 555 621.5 c 128,-1,32
 528 663 528 663 458 663 c 2,33,-1
 433 663 l 2,34,35
 396 663 396 663 361 646 c 128,-1,36
 326 629 326 629 295.5 600 c 128,-1,37
 265 571 265 571 243.5 535.5 c 128,-1,38
 222 500 222 500 214 464 c 2,39,-1
 158 205 l 2,20,21
EndSplineSet
EndChar
StartChar: one
Encoding: 49 49 18
Width: 410
VWidth: 1507
Flags: W
HStem: 0 21G<213 284.218> 491 62<167 229.516> 696 20G<359.5 431>
VStem: 154 277<491 716 591.203 655.345>
Fore
213 0 m 1,0,-1
 330 555 l 1,1,2
 291 522 291 522 246.5 507.5 c 128,-1,3
 202 493 202 493 154 491 c 1,4,-1
 167 553 l 1,5,6
 199 553 199 553 230.5 566.5 c 128,-1,7
 262 580 262 580 289.5 603 c 128,-1,8
 317 626 317 626 336.5 655 c 128,-1,9
 356 684 356 684 363 716 c 1,10,-1
 431 716 l 1,11,-1
 280 0 l 1,12,-1
 213 0 l 1,0,-1
EndSplineSet
EndChar
StartChar: two
Encoding: 50 50 19
Width: 584
VWidth: 1507
Flags: W
HStem: 0 60<134 537> 675 61<339.675 542.138>
Fore
469 736 m 2,0,1
 571 736 571 736 614 682.5 c 128,-1,2
 657 629 657 629 638 534 c 0,3,4
 632 508 632 508 623.5 487.5 c 128,-1,5
 615 467 615 467 601.5 448.5 c 128,-1,6
 588 430 588 430 567 411.5 c 128,-1,7
 546 393 546 393 514 374 c 2,8,-1
 223 188 l 2,9,10
 179 160 179 160 159.5 124.5 c 128,-1,11
 140 89 140 89 134 60 c 1,12,-1
 549 60 l 1,13,-1
 537 0 l 1,14,-1
 48 0 l 1,15,-1
 62 68 l 2,16,17
 74 121 74 121 103.5 161.5 c 128,-1,18
 133 202 133 202 176 231 c 2,19,-1
 508 443 l 2,20,21
 526 455 526 455 545 481.5 c 128,-1,22
 564 508 564 508 570 534 c 0,23,24
 600 675 600 675 458 675 c 2,25,-1
 433 675 l 2,26,27
 381 675 381 675 332 649.5 c 128,-1,28
 283 624 283 624 244 588 c 1,29,-1
 199 629 l 1,30,31
 249 678 249 678 313 707 c 128,-1,32
 377 736 377 736 445 736 c 2,33,-1
 469 736 l 2,0,1
EndSplineSet
EndChar
StartChar: three
Encoding: 51 51 20
Width: 590
VWidth: 1507
Flags: W
HStem: -6 60<199.917 373.062> 384 61<300 452.252> 675 61<321.675 524.138>
Fore
300 445 m 1,0,-1
 442 445 l 2,1,2
 481 448 481 448 512 470.5 c 128,-1,3
 543 493 543 493 552 534 c 0,4,5
 582 675 582 675 440 675 c 2,6,-1
 415 675 l 2,7,8
 363 675 363 675 314 649.5 c 128,-1,9
 265 624 265 624 226 588 c 1,10,-1
 181 629 l 1,11,12
 231 678 231 678 295 707 c 128,-1,13
 359 736 359 736 427 736 c 2,14,-1
 451 736 l 2,15,16
 553 736 553 736 596 682.5 c 128,-1,17
 639 629 639 629 620 534 c 0,18,19
 603 458 603 458 543 416 c 1,20,21
 577 387 577 387 590.5 341 c 128,-1,22
 604 295 604 295 594 247 c 0,23,24
 582 190 582 190 552 144 c 128,-1,25
 522 98 522 98 479 64 c 128,-1,26
 436 30 436 30 383 12 c 128,-1,27
 330 -6 330 -6 274 -6 c 0,28,29
 191 -6 191 -6 141.5 25 c 128,-1,30
 92 56 92 56 57 116 c 1,31,-1
 118 161 l 1,32,33
 148 116 148 116 186.5 85 c 128,-1,34
 225 54 225 54 288 54 c 0,35,36
 327 54 327 54 366 69 c 128,-1,37
 405 84 405 84 437.5 110.5 c 128,-1,38
 470 137 470 137 493.5 172.5 c 128,-1,39
 517 208 517 208 526 247 c 0,40,41
 532 274 532 274 527 298.5 c 128,-1,42
 522 323 522 323 508 342.5 c 128,-1,43
 494 362 494 362 472.5 373 c 128,-1,44
 451 384 451 384 422 384 c 2,45,-1
 288 384 l 1,46,-1
 300 445 l 1,0,-1
EndSplineSet
EndChar
StartChar: four
Encoding: 52 52 21
Width: 589
VWidth: 1507
Flags: W
HStem: 0 21G<392 464.054> 148 60<175 422 503 582> 578 20G<501.359 514.744> 696 20G<525.139 610>
Fore
392 0 m 1,0,-1
 422 148 l 1,1,-1
 146 148 l 2,2,3
 115 148 115 148 99.5 163.5 c 128,-1,4
 84 179 84 179 92 211 c 1,5,-1
 543 716 l 1,6,-1
 610 716 l 1,7,-1
 503 208 l 1,8,-1
 595 208 l 1,9,-1
 582 148 l 1,10,-1
 490 148 l 1,11,-1
 460 0 l 1,12,-1
 392 0 l 1,0,-1
519 598 m 1,13,-1
 175 208 l 1,14,-1
 436 208 l 1,15,-1
 519 598 l 1,13,-1
EndSplineSet
EndChar
StartChar: five
Encoding: 53 53 22
Width: 605
VWidth: 1507
Flags: W
HStem: -6 60<215.229 388.304> 384 61<274 467.41> 656 60<320 657>
Fore
657 656 m 1,0,-1
 320 656 l 1,1,-1
 274 445 l 1,2,-1
 469 445 l 2,3,4
 510 445 510 445 540 427.5 c 128,-1,5
 570 410 570 410 588 382 c 128,-1,6
 606 354 606 354 611.5 318.5 c 128,-1,7
 617 283 617 283 609 247 c 0,8,9
 597 190 597 190 567 144 c 128,-1,10
 537 98 537 98 494 64 c 128,-1,11
 451 30 451 30 398 12 c 128,-1,12
 345 -6 345 -6 289 -6 c 0,13,14
 207 -6 207 -6 157 25 c 128,-1,15
 107 56 107 56 72 116 c 1,16,-1
 133 161 l 1,17,18
 163 116 163 116 201.5 85 c 128,-1,19
 240 54 240 54 303 54 c 0,20,21
 342 54 342 54 381.5 69 c 128,-1,22
 421 84 421 84 453 110.5 c 128,-1,23
 485 137 485 137 508.5 172.5 c 128,-1,24
 532 208 532 208 541 247 c 0,25,26
 547 274 547 274 542 298.5 c 128,-1,27
 537 323 537 323 523.5 342.5 c 128,-1,28
 510 362 510 362 488 373 c 128,-1,29
 466 384 466 384 437 384 c 2,30,-1
 194 384 l 1,31,-1
 264 716 l 1,32,-1
 669 716 l 1,33,-1
 657 656 l 1,0,-1
EndSplineSet
EndChar
StartChar: six
Encoding: 54 54 23
Width: 598
VWidth: 1507
Flags: W
HStem: -6 60<211.627 384.875> 389 60<325.609 505.313> 675 61<390.956 548.662>
Fore
434 449 m 2,0,1
 537 449 537 449 580 397 c 128,-1,2
 623 345 623 345 603 250 c 2,3,-1
 600 240 l 2,4,5
 589 191 589 191 560.5 147 c 128,-1,6
 532 103 532 103 493 69 c 128,-1,7
 454 35 454 35 406.5 14.5 c 128,-1,8
 359 -6 359 -6 312 -6 c 2,9,-1
 279 -6 l 2,10,11
 205 -6 205 -6 163.5 25.5 c 128,-1,12
 122 57 122 57 109 112 c 0,13,14
 99 148 99 148 102.5 197.5 c 128,-1,15
 106 247 106 247 115 288 c 2,16,-1
 149 449 l 2,17,18
 161 510 161 510 195 562 c 128,-1,19
 229 614 229 614 276 652 c 128,-1,20
 323 690 323 690 379.5 713 c 128,-1,21
 436 736 436 736 494 736 c 0,22,23
 541 736 541 736 577.5 723 c 128,-1,24
 614 710 614 710 639 687 c 1,25,-1
 588 632 l 1,26,27
 568 648 568 648 542 661.5 c 128,-1,28
 516 675 516 675 482 675 c 0,29,30
 437 675 437 675 394 657 c 128,-1,31
 351 639 351 639 315 609 c 128,-1,32
 279 579 279 579 252.5 537.5 c 128,-1,33
 226 496 226 496 217 451 c 2,34,-1
 196 353 l 1,35,36
 238 396 238 396 289.5 422.5 c 128,-1,37
 341 449 341 449 393 449 c 2,38,-1
 434 449 l 2,0,1
181 200 m 0,39,40
 166 133 166 133 194 93.5 c 128,-1,41
 222 54 222 54 289 54 c 2,42,-1
 315 54 l 2,43,44
 350 54 350 54 386 70.5 c 128,-1,45
 422 87 422 87 452 113 c 128,-1,46
 482 139 482 139 503.5 172 c 128,-1,47
 525 205 525 205 532 240 c 2,48,-1
 535 250 l 2,49,50
 549 317 549 317 520 353 c 128,-1,51
 491 389 491 389 422 389 c 2,52,-1
 396 389 l 2,53,54
 360 389 360 389 324.5 373 c 128,-1,55
 289 357 289 357 260 330.5 c 128,-1,56
 231 304 231 304 209.5 270.5 c 128,-1,57
 188 237 188 237 181 200 c 0,39,40
EndSplineSet
EndChar
StartChar: seven
Encoding: 55 55 24
Width: 554
VWidth: 1507
Flags: W
HStem: 0 21G<187 261> 657 61<190 571>
VStem: 187 68<14.7513 78.1331>
Fore
190 718 m 1,0,-1
 671 718 l 1,1,-1
 660 672 l 1,2,-1
 345 214 l 2,3,4
 311 164 311 164 289 109 c 128,-1,5
 267 54 267 54 255 0 c 1,6,-1
 187 0 l 1,7,8
 199 53 199 53 218 108 c 128,-1,9
 237 163 237 163 268 211 c 0,10,11
 283 235 283 235 303 265 c 128,-1,12
 323 295 323 295 356.5 344 c 128,-1,13
 390 393 390 393 441.5 468.5 c 128,-1,14
 493 544 493 544 571 657 c 1,15,-1
 176 657 l 1,16,-1
 190 718 l 1,0,-1
EndSplineSet
EndChar
StartChar: eight
Encoding: 56 56 25
Width: 592
VWidth: 1507
Flags: W
HStem: -8 61<191.572 331.334> 356 60<318.195 454.156> 665 60<407.299 537.934>
Fore
520 392 m 1,0,1
 562 371 562 371 581.5 322.5 c 128,-1,2
 601 274 601 274 589 219 c 0,3,4
 577 161 577 161 548 119 c 128,-1,5
 519 77 519 77 476.5 49 c 128,-1,6
 434 21 434 21 382 6.5 c 128,-1,7
 330 -8 330 -8 274 -8 c 2,8,-1
 255 -8 l 2,9,10
 166 -8 166 -8 117 44 c 128,-1,11
 68 96 68 96 87 188 c 0,12,13
 98 238 98 238 138.5 290 c 128,-1,14
 179 342 179 342 235 377 c 1,15,16
 203 399 203 399 189.5 432.5 c 128,-1,17
 176 466 176 466 187 514 c 0,18,19
 196 558 196 558 221 596.5 c 128,-1,20
 246 635 246 635 280.5 663.5 c 128,-1,21
 315 692 315 692 356.5 708.5 c 128,-1,22
 398 725 398 725 440 725 c 2,23,-1
 478 725 l 2,24,25
 571 725 571 725 610.5 675.5 c 128,-1,26
 650 626 650 626 632 540 c 0,27,28
 623 497 623 497 589 456 c 128,-1,29
 555 415 555 415 520 392 c 1,0,1
368 356 m 2,30,31
 332 356 332 356 295.5 339.5 c 128,-1,32
 259 323 259 323 229.5 297 c 128,-1,33
 200 271 200 271 180 242 c 128,-1,34
 160 213 160 213 155 188 c 0,35,36
 142 125 142 125 174.5 89 c 128,-1,37
 207 53 207 53 267 53 c 2,38,-1
 286 53 l 2,39,40
 327 53 327 53 365.5 64 c 128,-1,41
 404 75 404 75 435.5 96.5 c 128,-1,42
 467 118 467 118 490 148.5 c 128,-1,43
 513 179 513 179 522 219 c 0,44,45
 528 246 528 246 521 270 c 128,-1,46
 514 294 514 294 499 313.5 c 128,-1,47
 484 333 484 333 462 344.5 c 128,-1,48
 440 356 440 356 418 356 c 2,49,-1
 368 356 l 2,30,31
399 416 m 2,50,51
 428 418 428 418 455 430 c 128,-1,52
 482 442 482 442 505 460 c 128,-1,53
 528 478 528 478 543 500 c 128,-1,54
 558 522 558 522 562 540 c 0,55,56
 574 597 574 597 550 631 c 128,-1,57
 526 665 526 665 464 665 c 2,58,-1
 442 665 l 2,59,60
 410 665 410 665 379 653.5 c 128,-1,61
 348 642 348 642 323 621.5 c 128,-1,62
 298 601 298 601 279.5 574 c 128,-1,63
 261 547 261 547 255 516 c 128,-1,64
 249 485 249 485 258 465.5 c 128,-1,65
 267 446 267 446 282.5 435 c 128,-1,66
 298 424 298 424 315.5 420 c 128,-1,67
 333 416 333 416 344 416 c 2,68,-1
 399 416 l 2,50,51
EndSplineSet
EndChar
StartChar: nine
Encoding: 57 57 26
Width: 592
VWidth: 1507
Flags: W
HStem: -6 60<203.467 361.542> 282 60<247.163 426.391> 675 61<367.125 540.672>
Fore
318 282 m 2,0,1
 216 282 216 282 172 333 c 128,-1,2
 128 384 128 384 149 479 c 2,3,-1
 152 490 l 2,4,5
 163 538 163 538 191 582.5 c 128,-1,6
 219 627 219 627 258.5 661 c 128,-1,7
 298 695 298 695 345 715.5 c 128,-1,8
 392 736 392 736 440 736 c 2,9,-1
 473 736 l 2,10,11
 547 736 547 736 588.5 704 c 128,-1,12
 630 672 630 672 644 618 c 0,13,14
 653 582 653 582 649 531.5 c 128,-1,15
 645 481 645 481 638 440 c 2,16,-1
 603 279 l 2,17,18
 589 219 589 219 556 167 c 128,-1,19
 523 115 523 115 476.5 76.5 c 128,-1,20
 430 38 430 38 373.5 16 c 128,-1,21
 317 -6 317 -6 258 -6 c 0,22,23
 211 -6 211 -6 174 7 c 128,-1,24
 137 20 137 20 112 42 c 1,25,-1
 164 98 l 1,26,27
 184 81 184 81 210.5 67.5 c 128,-1,28
 237 54 237 54 270 54 c 0,29,30
 315 54 315 54 358 72 c 128,-1,31
 401 90 401 90 437 120.5 c 128,-1,32
 473 151 473 151 499.5 192.5 c 128,-1,33
 526 234 526 234 535 279 c 2,34,-1
 556 377 l 1,35,36
 514 333 514 333 463 307.5 c 128,-1,37
 412 282 412 282 359 282 c 2,38,-1
 318 282 l 2,0,1
571 529 m 0,39,40
 586 597 586 597 558.5 636 c 128,-1,41
 531 675 531 675 463 675 c 2,42,-1
 437 675 l 2,43,44
 402 675 402 675 366 658.5 c 128,-1,45
 330 642 330 642 300 616.5 c 128,-1,46
 270 591 270 591 248 557 c 128,-1,47
 226 523 226 523 220 490 c 2,48,-1
 217 479 l 2,49,50
 203 413 203 413 232 377.5 c 128,-1,51
 261 342 261 342 330 342 c 2,52,-1
 356 342 l 2,53,54
 392 342 392 342 427.5 358 c 128,-1,55
 463 374 463 374 492.5 399.5 c 128,-1,56
 522 425 522 425 543 459 c 128,-1,57
 564 493 564 493 571 529 c 0,39,40
EndSplineSet
EndChar
StartChar: colon
Encoding: 58 58 27
Width: 301
VWidth: 1507
Flags: W
HStem: 27 106<146.564 205.405> 396 106<225.563 283.406>
VStem: 124 105<42.9453 117.529> 202 106<430.375 490.44>
Fore
124 80 m 256,0,1
 128 103 128 103 146 118 c 128,-1,2
 164 133 164 133 187 133 c 256,3,4
 210 133 210 133 222 118 c 128,-1,5
 234 103 234 103 229 80 c 256,6,7
 225 57 225 57 206 42 c 128,-1,8
 187 27 187 27 164 27 c 256,9,10
 142 27 142 27 130.5 42 c 128,-1,11
 119 57 119 57 124 80 c 256,0,1
202 449 m 256,12,13
 207 472 207 472 225 487 c 128,-1,14
 243 502 243 502 265 502 c 256,15,16
 288 502 288 502 300 487 c 128,-1,17
 312 472 312 472 308 449 c 256,18,19
 303 427 303 427 284 411.5 c 128,-1,20
 265 396 265 396 243 396 c 256,21,22
 220 396 220 396 208.5 411.5 c 128,-1,23
 197 427 197 427 202 449 c 256,12,13
EndSplineSet
EndChar
StartChar: semicolon
Encoding: 59 59 28
Width: 301
VWidth: 1507
Flags: W
HStem: 396 106<225.563 283.406>
VStem: 202 106<430.375 490.44>
Fore
202 449 m 256,0,1
 207 472 207 472 225 487 c 128,-1,2
 243 502 243 502 265 502 c 256,3,4
 288 502 288 502 300 487 c 128,-1,5
 312 472 312 472 308 449 c 256,6,7
 303 427 303 427 284 411.5 c 128,-1,8
 265 396 265 396 243 396 c 256,9,10
 220 396 220 396 208.5 411.5 c 128,-1,11
 197 427 197 427 202 449 c 256,0,1
167 142 m 1,12,-1
 229 142 l 1,13,-1
 222 101 l 2,14,15
 213 57 213 57 194.5 28.5 c 128,-1,16
 176 0 176 0 155 -19.5 c 128,-1,17
 134 -39 134 -39 113.5 -51 c 128,-1,18
 93 -63 93 -63 78 -72 c 1,19,-1
 54 -24 l 1,20,21
 68 -14 68 -14 83.5 -4 c 128,-1,22
 99 6 99 6 114.5 19.5 c 128,-1,23
 130 33 130 33 142 52.5 c 128,-1,24
 154 72 154 72 160 101 c 2,25,-1
 167 142 l 1,12,-1
EndSplineSet
EndChar
StartChar: less
Encoding: 60 60 29
Width: 621
VWidth: 1507
Flags: W
HStem: -11 21G<540.641 574.412>
Fore
702 615 m 1,0,-1
 689 547 l 1,1,-1
 229 301 l 1,2,-1
 585 57 l 1,3,-1
 570 -11 l 1,4,-1
 112 301 l 1,5,-1
 702 615 l 1,0,-1
EndSplineSet
EndChar
StartChar: equal
Encoding: 61 61 30
Width: 527
VWidth: 1507
Flags: W
HStem: 185 70<95 503> 378 70<137 544>
VStem: 81 478<185 448 185 185>
Fore
81 185 m 1,0,-1
 95 255 l 1,1,-1
 517 255 l 1,2,3
 516 244 516 244 513 234 c 0,4,5
 510 225 510 225 508 212 c 128,-1,6
 506 199 506 199 503 185 c 1,7,-1
 81 185 l 1,0,-1
122 378 m 1,8,-1
 137 448 l 1,9,-1
 559 448 l 1,10,11
 558 437 558 437 555 427 c 0,12,13
 552 418 552 418 549.5 405 c 128,-1,14
 547 392 547 392 544 378 c 1,15,-1
 122 378 l 1,8,-1
EndSplineSet
EndChar
StartChar: greater
Encoding: 62 62 31
Width: 622
VWidth: 1507
Flags: W
HStem: -11 21G<49.4118 82.8846>
Fore
636 301 m 1,0,-1
 45 -11 l 1,1,-1
 60 57 l 1,2,-1
 519 301 l 1,3,-1
 164 547 l 1,4,-1
 178 615 l 1,5,-1
 636 301 l 1,0,-1
EndSplineSet
EndChar
StartChar: question
Encoding: 63 63 32
Width: 539
VWidth: 1507
Flags: W
HStem: -8 106<211.564 269.921> 651 67<242.19 492.602>
VStem: 188 106<26.4783 86.4398>
Fore
188 45 m 256,0,1
 193 68 193 68 211 83 c 128,-1,2
 229 98 229 98 252 98 c 256,3,4
 274 98 274 98 286 83 c 128,-1,5
 298 68 298 68 294 45 c 256,6,7
 289 23 289 23 270.5 7.5 c 128,-1,8
 252 -8 252 -8 229 -8 c 256,9,10
 207 -8 207 -8 195.5 7.5 c 128,-1,11
 184 23 184 23 188 45 c 256,0,1
163 662 m 1,12,13
 188 686 188 686 235.5 702 c 128,-1,14
 283 718 283 718 341 718 c 2,15,-1
 424 718 l 2,16,17
 467 718 467 718 503.5 705.5 c 128,-1,18
 540 693 540 693 564 669 c 128,-1,19
 588 645 588 645 597.5 609 c 128,-1,20
 607 573 607 573 598 526 c 0,21,22
 586 472 586 472 538.5 423.5 c 128,-1,23
 491 375 491 375 393 336 c 0,24,25
 371 327 371 327 355 312 c 128,-1,26
 339 297 339 297 329.5 280.5 c 128,-1,27
 320 264 320 264 314.5 248 c 128,-1,28
 309 232 309 232 308 223 c 2,29,-1
 295 164 l 1,30,-1
 228 164 l 1,31,-1
 240 223 l 2,32,33
 244 241 244 241 254 264.5 c 128,-1,34
 264 288 264 288 282 313 c 128,-1,35
 300 338 300 338 328.5 361 c 128,-1,36
 357 384 357 384 399 402 c 0,37,38
 467 431 467 431 495 461 c 128,-1,39
 523 491 523 491 531 526 c 0,40,41
 543 588 543 588 506 619.5 c 128,-1,42
 469 651 469 651 409 651 c 2,43,-1
 326 651 l 2,44,45
 279 651 279 651 241 637 c 128,-1,46
 203 623 203 623 179 601 c 1,47,-1
 163 662 l 1,12,13
EndSplineSet
EndChar
StartChar: at
Encoding: 64 64 33
Width: 905
VWidth: 1507
Flags: W
HStem: -27 62<248.971 581.485> 139 58<367.118 493.829> 143 62<675.836 758.253> 514 59<460.063 618.887> 681 62<416.016 803.029>
Fore
635 437 m 2,0,1
 639 470 639 470 619.5 492 c 128,-1,2
 600 514 600 514 567 514 c 2,3,-1
 517 514 l 2,4,5
 469 514 469 514 429 481.5 c 128,-1,6
 389 449 389 449 378 399 c 2,7,-1
 353 280 l 2,8,9
 345 246 345 246 364 221.5 c 128,-1,10
 383 197 383 197 418 197 c 2,11,-1
 469 197 l 2,12,13
 517 197 517 197 556 228 c 128,-1,14
 595 259 595 259 607 308 c 2,15,-1
 635 437 l 2,0,1
721 35 m 1,16,17
 677 5 677 5 627 -11 c 128,-1,18
 577 -27 577 -27 526 -27 c 2,19,-1
 311 -27 l 2,20,21
 258 -27 258 -27 215.5 -7.5 c 128,-1,22
 173 12 173 12 146 46 c 128,-1,23
 119 80 119 80 108.5 126.5 c 128,-1,24
 98 173 98 173 110 226 c 2,25,-1
 155 436 l 2,26,27
 169 500 169 500 205 557 c 128,-1,28
 241 614 241 614 291.5 655 c 128,-1,29
 342 696 342 696 403 719.5 c 128,-1,30
 464 743 464 743 528 743 c 2,31,-1
 742 743 l 2,32,33
 794 743 794 743 836.5 723.5 c 128,-1,34
 879 704 879 704 906 670 c 128,-1,35
 933 636 933 636 943 589.5 c 128,-1,36
 953 543 953 543 942 490 c 2,37,-1
 920 384 l 2,38,39
 906 318 906 318 885 272 c 128,-1,40
 864 226 864 226 837.5 197.5 c 128,-1,41
 811 169 811 169 778.5 156 c 128,-1,42
 746 143 746 143 710 143 c 0,43,44
 666 143 666 143 644.5 164 c 128,-1,45
 623 185 623 185 615 210 c 1,46,47
 600 190 600 190 579.5 176.5 c 128,-1,48
 559 163 559 163 537.5 154.5 c 128,-1,49
 516 146 516 146 494.5 142.5 c 128,-1,50
 473 139 473 139 457 139 c 2,51,-1
 405 139 l 2,52,53
 345 139 345 139 313.5 179.5 c 128,-1,54
 282 220 282 220 294 280 c 2,55,-1
 320 399 l 2,56,57
 327 436 327 436 347.5 467.5 c 128,-1,58
 368 499 368 499 396.5 522.5 c 128,-1,59
 425 546 425 546 459 559.5 c 128,-1,60
 493 573 493 573 529 573 c 2,61,-1
 579 573 l 2,62,63
 604 573 604 573 624 566 c 128,-1,64
 644 559 644 559 659 547 c 1,65,-1
 663 573 l 1,66,-1
 722 573 l 1,67,-1
 666 309 l 2,68,69
 657 267 657 267 670.5 236 c 128,-1,70
 684 205 684 205 722 205 c 0,71,72
 749 205 749 205 771 219.5 c 128,-1,73
 793 234 793 234 809.5 258.5 c 128,-1,74
 826 283 826 283 838 315.5 c 128,-1,75
 850 348 850 348 858 386 c 2,76,-1
 880 494 l 2,77,78
 889 534 889 534 881.5 567.5 c 128,-1,79
 874 601 874 601 854.5 627 c 128,-1,80
 835 653 835 653 804 667 c 128,-1,81
 773 681 773 681 734 681 c 2,82,-1
 513 681 l 2,83,84
 463 681 463 681 414.5 662.5 c 128,-1,85
 366 644 366 644 326 611.5 c 128,-1,86
 286 579 286 579 257 534.5 c 128,-1,87
 228 490 228 490 217 439 c 2,88,-1
 172 222 l 2,89,90
 163 182 163 182 170.5 148.5 c 128,-1,91
 178 115 178 115 197.5 89 c 128,-1,92
 217 63 217 63 248 49 c 128,-1,93
 279 35 279 35 318 35 c 2,94,-1
 541 35 l 2,95,96
 580 35 580 35 620 47.5 c 128,-1,97
 660 60 660 60 695 84 c 1,98,-1
 721 35 l 1,16,17
EndSplineSet
EndChar
StartChar: A
Encoding: 65 65 34
Width: 788
VWidth: 1507
Flags: W
HStem: 0 21G<38 126 670.4 751> 200 61<280 614> 698 20G<494.908 524>
Fore
508 718 m 1,0,1
 540 718 540 718 564 704 c 128,-1,2
 588 690 588 690 595 663 c 2,3,-1
 751 0 l 1,4,-1
 675 0 l 1,5,-1
 629 200 l 1,6,-1
 243 200 l 1,7,-1
 113 0 l 1,8,-1
 38 0 l 1,9,-1
 508 718 l 1,0,1
280 261 m 1,10,-1
 614 261 l 1,11,-1
 528 636 l 1,12,-1
 280 261 l 1,10,-1
EndSplineSet
EndChar
StartChar: B
Encoding: 66 66 35
Width: 714
VWidth: 1507
Flags: W
HStem: 0 60<146 520.125> 344 60<219 524.875> 656 60<273 576.96>
Fore
130 0 m 2,0,1
 104 0 104 0 89 20.5 c 128,-1,2
 74 41 74 41 80 66 c 2,3,-1
 217 716 l 1,4,-1
 565 716 l 2,5,6
 603 716 603 716 633 700 c 128,-1,7
 663 684 663 684 682.5 658.5 c 128,-1,8
 702 633 702 633 710 599 c 128,-1,9
 718 565 718 565 710 528 c 0,10,11
 702 488 702 488 679.5 456.5 c 128,-1,12
 657 425 657 425 624 396 c 1,13,14
 677 375 677 375 700.5 319.5 c 128,-1,15
 724 264 724 264 711 203 c 0,16,17
 704 166 704 166 681.5 129.5 c 128,-1,18
 659 93 659 93 628 64.5 c 128,-1,19
 597 36 597 36 560 18 c 128,-1,20
 523 0 523 0 485 0 c 2,21,-1
 130 0 l 2,0,1
497 60 m 2,22,23
 520 60 520 60 543.5 73.5 c 128,-1,24
 567 87 567 87 587 108.5 c 128,-1,25
 607 130 607 130 621.5 155.5 c 128,-1,26
 636 181 636 181 641 203 c 256,27,28
 645 226 645 226 642 251 c 128,-1,29
 639 276 639 276 628 296.5 c 128,-1,30
 617 317 617 317 598.5 330.5 c 128,-1,31
 580 344 580 344 558 344 c 2,32,-1
 207 344 l 1,33,-1
 146 60 l 1,34,-1
 497 60 l 2,22,23
273 656 m 1,35,-1
 219 404 l 1,36,-1
 499 404 l 2,37,38
 522 404 522 404 545 414.5 c 128,-1,39
 568 425 568 425 587 442.5 c 128,-1,40
 606 460 606 460 620.5 482.5 c 128,-1,41
 635 505 635 505 639 528 c 256,42,43
 644 550 644 550 640 573.5 c 128,-1,44
 636 597 636 597 625 615 c 128,-1,45
 614 633 614 633 595 644.5 c 128,-1,46
 576 656 576 656 553 656 c 2,47,-1
 273 656 l 1,35,-1
EndSplineSet
EndChar
StartChar: C
Encoding: 67 67 36
Width: 705
VWidth: 1507
Flags: W
HStem: -15 60<232.846 463.656> 671 60<390.375 621.123>
VStem: 639 68<168.727 255> 689 68<502 534.031 534.031 547.881 547.881 566 566 619.024>
Fore
689 502 m 1,0,1
 696 535 696 535 690 566 c 128,-1,2
 684 597 684 597 667 620.5 c 128,-1,3
 650 644 650 644 622 657.5 c 128,-1,4
 594 671 594 671 559 671 c 2,5,-1
 478 671 l 2,6,7
 433 671 433 671 389 650.5 c 128,-1,8
 345 630 345 630 309 597 c 128,-1,9
 273 564 273 564 246.5 520 c 128,-1,10
 220 476 220 476 210 431 c 2,11,-1
 167 234 l 2,12,13
 160 199 160 199 166 165 c 128,-1,14
 172 131 172 131 188.5 104.5 c 128,-1,15
 205 78 205 78 232 61.5 c 128,-1,16
 259 45 259 45 294 45 c 2,17,-1
 378 45 l 2,18,19
 422 45 422 45 465 61 c 128,-1,20
 508 77 508 77 543.5 105.5 c 128,-1,21
 579 134 579 134 604.5 172.5 c 128,-1,22
 630 211 630 211 639 255 c 1,23,-1
 707 255 l 1,24,25
 695 194 695 194 662 144.5 c 128,-1,26
 629 95 629 95 582 59.5 c 128,-1,27
 535 24 535 24 479.5 4.5 c 128,-1,28
 424 -15 424 -15 365 -15 c 2,29,-1
 280 -15 l 2,30,31
 232 -15 232 -15 193.5 5.5 c 128,-1,32
 155 26 155 26 131 60.5 c 128,-1,33
 107 95 107 95 98 140 c 128,-1,34
 89 185 89 185 99 234 c 2,35,-1
 142 431 l 2,36,37
 155 491 155 491 189 545.5 c 128,-1,38
 223 600 223 600 270.5 641.5 c 128,-1,39
 318 683 318 683 375.5 707 c 128,-1,40
 433 731 433 731 491 731 c 2,41,-1
 573 731 l 2,42,43
 623 731 623 731 661 713.5 c 128,-1,44
 699 696 699 696 724 665.5 c 128,-1,45
 749 635 749 635 758 593.5 c 128,-1,46
 767 552 767 552 757 502 c 1,47,-1
 689 502 l 1,0,1
EndSplineSet
EndChar
StartChar: D
Encoding: 68 68 37
Width: 735
VWidth: 1507
Flags: W
HStem: 0 60<146 481.656> 656 60<273 634.124>
Fore
130 0 m 2,0,1
 104 0 104 0 89 20.5 c 128,-1,2
 74 41 74 41 80 66 c 2,3,-1
 217 716 l 1,4,-1
 585 716 l 2,5,6
 635 716 635 716 674 698 c 128,-1,7
 713 680 713 680 738 648.5 c 128,-1,8
 763 617 763 617 772 574 c 128,-1,9
 781 531 781 531 770 481 c 2,10,-1
 730 286 l 2,11,12
 716 226 716 226 683 173.5 c 128,-1,13
 650 121 650 121 602.5 82.5 c 128,-1,14
 555 44 555 44 499 22 c 128,-1,15
 443 0 443 0 384 0 c 2,16,-1
 130 0 l 2,0,1
146 60 m 1,17,-1
 396 60 l 2,18,19
 440 60 440 60 483 78 c 128,-1,20
 526 96 526 96 562 127 c 128,-1,21
 598 158 598 158 624.5 199 c 128,-1,22
 651 240 651 240 662 286 c 2,23,-1
 702 481 l 2,24,25
 710 516 710 516 704 547.5 c 128,-1,26
 698 579 698 579 680.5 603 c 128,-1,27
 663 627 663 627 635 641.5 c 128,-1,28
 607 656 607 656 573 656 c 2,29,-1
 273 656 l 1,30,-1
 146 60 l 1,17,-1
EndSplineSet
EndChar
StartChar: E
Encoding: 69 69 38
Width: 705
VWidth: 1507
Flags: W
HStem: 0 60<146 639> 344 60<219 638> 656 60<273 778>
Fore
217 716 m 1,0,-1
 790 716 l 1,1,-1
 778 656 l 1,2,-1
 273 656 l 1,3,-1
 219 404 l 1,4,-1
 650 404 l 1,5,-1
 638 344 l 1,6,-1
 207 344 l 1,7,-1
 146 60 l 1,8,-1
 651 60 l 1,9,-1
 639 0 l 1,10,-1
 130 0 l 2,11,12
 104 0 104 0 89 20.5 c 128,-1,13
 74 41 74 41 80 66 c 2,14,-1
 217 716 l 1,0,-1
EndSplineSet
EndChar
StartChar: F
Encoding: 70 70 39
Width: 705
VWidth: 1507
Flags: W
HStem: 0 21G<66 138.244> 344 60<219 638> 656 60<273 778>
Fore
207 344 m 1,0,-1
 134 0 l 1,1,-1
 66 0 l 1,2,-1
 217 716 l 1,3,-1
 790 716 l 1,4,-1
 778 656 l 1,5,-1
 273 656 l 1,6,-1
 219 404 l 1,7,-1
 650 404 l 1,8,-1
 638 344 l 1,9,-1
 207 344 l 1,0,-1
EndSplineSet
EndChar
StartChar: G
Encoding: 71 71 40
Width: 705
VWidth: 1507
Flags: W
HStem: -15 60<232.846 463.656> 255 60<439 639> 671 60<390.375 621.123>
VStem: 689 68<502 534.031 534.031 547.881 547.881 566 566 619.024>
Fore
707 255 m 2,0,1
 695 194 695 194 662 144.5 c 128,-1,2
 629 95 629 95 582 59.5 c 128,-1,3
 535 24 535 24 479.5 4.5 c 128,-1,4
 424 -15 424 -15 365 -15 c 2,5,-1
 280 -15 l 2,6,7
 232 -15 232 -15 193.5 5.5 c 128,-1,8
 155 26 155 26 131 60.5 c 128,-1,9
 107 95 107 95 98 140 c 128,-1,10
 89 185 89 185 99 234 c 2,11,-1
 142 431 l 2,12,13
 155 491 155 491 189 545.5 c 128,-1,14
 223 600 223 600 270.5 641.5 c 128,-1,15
 318 683 318 683 375.5 707 c 128,-1,16
 433 731 433 731 491 731 c 2,17,-1
 573 731 l 2,18,19
 623 731 623 731 661 713.5 c 128,-1,20
 699 696 699 696 724 665.5 c 128,-1,21
 749 635 749 635 758 593.5 c 128,-1,22
 767 552 767 552 757 502 c 1,23,-1
 689 502 l 1,24,25
 696 535 696 535 690 566 c 128,-1,26
 684 597 684 597 667 620.5 c 128,-1,27
 650 644 650 644 622 657.5 c 128,-1,28
 594 671 594 671 559 671 c 2,29,-1
 478 671 l 2,30,31
 433 671 433 671 389 650.5 c 128,-1,32
 345 630 345 630 309 597 c 128,-1,33
 273 564 273 564 246.5 520 c 128,-1,34
 220 476 220 476 210 431 c 2,35,-1
 167 234 l 2,36,37
 160 199 160 199 166 165 c 128,-1,38
 172 131 172 131 188.5 104.5 c 128,-1,39
 205 78 205 78 232 61.5 c 128,-1,40
 259 45 259 45 294 45 c 2,41,-1
 378 45 l 2,42,43
 422 45 422 45 465 61 c 128,-1,44
 508 77 508 77 543.5 105.5 c 128,-1,45
 579 134 579 134 604.5 172.5 c 128,-1,46
 630 211 630 211 639 255 c 1,47,-1
 425 255 l 1,48,-1
 439 315 l 1,49,-1
 721 315 l 1,50,-1
 707 255 l 2,0,1
EndSplineSet
EndChar
StartChar: H
Encoding: 72 72 41
Width: 705
VWidth: 1507
Flags: W
HStem: 0 21G<66 138.244 571 643.218> 344 60<219 644> 696 20G<212.782 285 717.769 790>
Fore
644 344 m 1,0,-1
 207 344 l 1,1,-1
 134 0 l 1,2,-1
 66 0 l 1,3,-1
 217 716 l 1,4,-1
 285 716 l 1,5,-1
 219 404 l 1,6,-1
 656 404 l 1,7,-1
 722 716 l 1,8,-1
 790 716 l 1,9,-1
 639 0 l 1,10,-1
 571 0 l 1,11,-1
 644 344 l 1,0,-1
EndSplineSet
EndChar
StartChar: I
Encoding: 73 73 42
Width: 200
VWidth: 1507
Flags: W
HStem: 0 21G<66 138.218> 696 20G<212.782 285>
VStem: 66 219<0 716 1.53064e-18 1.53064e-18>
Fore
217 716 m 1,0,-1
 285 716 l 1,1,-1
 134 0 l 1,2,-1
 66 0 l 1,3,-1
 217 716 l 1,0,-1
EndSplineSet
EndChar
StartChar: J
Encoding: 74 74 43
Width: 615
VWidth: 1507
Flags: W
HStem: -15 68<207.38 365.953> 696 20G<627.748 699>
VStem: 77 68<110.303 140 140 186.938 186.938 200.212 200.212 234>
Fore
146 234 m 1,0,1
 139 199 139 199 145 166.5 c 128,-1,2
 151 134 151 134 168 108.5 c 128,-1,3
 185 83 185 83 212.5 68 c 128,-1,4
 240 53 240 53 274 53 c 0,5,6
 318 53 318 53 361 68 c 128,-1,7
 404 83 404 83 439.5 110 c 128,-1,8
 475 137 475 137 500 174 c 128,-1,9
 525 211 525 211 534 255 c 2,10,-1
 632 716 l 1,11,-1
 699 716 l 1,12,-1
 601 255 l 2,13,14
 589 194 589 194 556 144.5 c 128,-1,15
 523 95 523 95 476.5 59.5 c 128,-1,16
 430 24 430 24 374 4.5 c 128,-1,17
 318 -15 318 -15 259 -15 c 0,18,19
 211 -15 211 -15 172.5 5.5 c 128,-1,20
 134 26 134 26 110 60.5 c 128,-1,21
 86 95 86 95 77 140 c 128,-1,22
 68 185 68 185 78 234 c 1,23,-1
 146 234 l 1,0,1
EndSplineSet
EndChar
StartChar: K
Encoding: 75 75 44
Width: 675
VWidth: 1507
Flags: W
HStem: 0 21G<66 138.172 527.47 638> 696 20G<212.782 285 655.838 788>
Fore
543 0 m 1,0,-1
 338 264 l 2,1,2
 304 304 304 304 265 315 c 128,-1,3
 226 326 226 326 202 326 c 1,4,-1
 134 0 l 1,5,-1
 66 0 l 1,6,-1
 217 716 l 1,7,-1
 285 716 l 1,8,-1
 220 407 l 1,9,-1
 686 716 l 1,10,-1
 788 716 l 1,11,-1
 282 374 l 1,12,13
 306 374 306 374 327 364 c 128,-1,14
 348 354 348 354 365.5 339 c 128,-1,15
 383 324 383 324 399 306.5 c 128,-1,16
 415 289 415 289 428 271 c 1,17,18
 428 270 428 270 432 264.5 c 128,-1,19
 436 259 436 259 456 233.5 c 128,-1,20
 476 208 476 208 518.5 153.5 c 128,-1,21
 561 99 561 99 638 0 c 1,22,-1
 543 0 l 1,0,-1
EndSplineSet
EndChar
StartChar: L
Encoding: 76 76 45
Width: 616
VWidth: 1507
Flags: W
HStem: 0 60<146 579> 696 20G<212.785 285>
Fore
217 716 m 1,0,-1
 285 716 l 1,1,-1
 146 60 l 1,2,-1
 591 60 l 1,3,-1
 579 0 l 1,4,-1
 130 0 l 2,5,6
 104 0 104 0 89 20.5 c 128,-1,7
 74 41 74 41 80 66 c 2,8,-1
 217 716 l 1,0,-1
EndSplineSet
EndChar
StartChar: M
Encoding: 77 77 46
Width: 880
VWidth: 1507
Flags: W
HStem: 0 21G<66 138.212 430.589 451.913 746 818.218> 698 20G<214.738 292.572 881.929 965>
Fore
814 0 m 1,0,-1
 746 0 l 1,1,-1
 865 565 l 1,2,-1
 437 -9 l 1,3,-1
 253 565 l 1,4,-1
 134 0 l 1,5,-1
 66 0 l 1,6,-1
 219 718 l 1,7,-1
 286 718 l 1,8,-1
 472 152 l 1,9,-1
 897 716 l 1,10,-1
 965 716 l 1,11,-1
 814 0 l 1,0,-1
EndSplineSet
EndChar
StartChar: N
Encoding: 78 78 47
Width: 735
VWidth: 1507
Flags: W
HStem: 0 21G<66 138.245 589.756 673.262> 698 20G<214.738 297.177 746.755 822>
Fore
623 115 m 1,0,-1
 751 718 l 1,1,-1
 822 718 l 1,2,-1
 669 0 l 1,3,-1
 601 0 l 1,4,-1
 262 603 l 1,5,-1
 134 0 l 1,6,-1
 66 0 l 1,7,-1
 219 718 l 1,8,-1
 286 718 l 1,9,-1
 623 115 l 1,0,-1
EndSplineSet
EndChar
StartChar: O
Encoding: 79 79 48
Width: 706
VWidth: 1507
Flags: W
HStem: -15 60<235.846 466.141> 671 60<393.375 623.154>
Fore
716 286 m 2,0,1
 702 226 702 226 668.5 171 c 128,-1,2
 635 116 635 116 586.5 74.5 c 128,-1,3
 538 33 538 33 481.5 9 c 128,-1,4
 425 -15 425 -15 366 -15 c 2,5,-1
 283 -15 l 2,6,7
 234 -15 234 -15 195.5 5.5 c 128,-1,8
 157 26 157 26 133 60.5 c 128,-1,9
 109 95 109 95 100.5 140 c 128,-1,10
 92 185 92 185 103 235 c 2,11,-1
 143 430 l 2,12,13
 157 490 157 490 191 545 c 128,-1,14
 225 600 225 600 273 641.5 c 128,-1,15
 321 683 321 683 378.5 707 c 128,-1,16
 436 731 436 731 494 731 c 2,17,-1
 576 731 l 2,18,19
 626 731 626 731 664 710.5 c 128,-1,20
 702 690 702 690 726.5 655.5 c 128,-1,21
 751 621 751 621 759 576 c 128,-1,22
 767 531 767 531 757 481 c 2,23,-1
 716 286 l 2,0,1
689 481 m 2,24,25
 696 516 696 516 690 549.5 c 128,-1,26
 684 583 684 583 667.5 610.5 c 128,-1,27
 651 638 651 638 624 654.5 c 128,-1,28
 597 671 597 671 562 671 c 2,29,-1
 481 671 l 2,30,31
 436 671 436 671 392 650.5 c 128,-1,32
 348 630 348 630 311 596 c 128,-1,33
 274 562 274 562 248 519 c 128,-1,34
 222 476 222 476 211 430 c 2,35,-1
 170 235 l 2,36,37
 163 200 163 200 168 166.5 c 128,-1,38
 173 133 173 133 190.5 105.5 c 128,-1,39
 208 78 208 78 235 61.5 c 128,-1,40
 262 45 262 45 297 45 c 2,41,-1
 380 45 l 2,42,43
 424 45 424 45 467.5 65.5 c 128,-1,44
 511 86 511 86 548 120 c 128,-1,45
 585 154 585 154 611.5 197 c 128,-1,46
 638 240 638 240 648 286 c 2,47,-1
 689 481 l 2,24,25
EndSplineSet
EndChar
StartChar: P
Encoding: 80 80 49
Width: 676
VWidth: 1507
Flags: W
HStem: 0 21G<66 138.244> 344 60<219 563.084> 656 60<273 615.543>
Fore
217 716 m 1,0,-1
 601 716 l 2,1,2
 641 716 641 716 671.5 701 c 128,-1,3
 702 686 702 686 722.5 660.5 c 128,-1,4
 743 635 743 635 751.5 601 c 128,-1,5
 760 567 760 567 751 528 c 256,6,7
 742 488 742 488 720 455 c 128,-1,8
 698 422 698 422 667 397 c 128,-1,9
 636 372 636 372 599 358 c 128,-1,10
 562 344 562 344 523 344 c 2,11,-1
 207 344 l 1,12,-1
 134 0 l 1,13,-1
 66 0 l 1,14,-1
 217 716 l 1,0,-1
273 656 m 1,15,-1
 219 404 l 1,16,-1
 535 404 l 2,17,18
 559 404 559 404 584 414 c 128,-1,19
 609 424 609 424 629.5 441 c 128,-1,20
 650 458 650 458 664 480 c 128,-1,21
 678 502 678 502 683 528 c 0,22,23
 687 552 687 552 682.5 575 c 128,-1,24
 678 598 678 598 666 616.5 c 128,-1,25
 654 635 654 635 634 645.5 c 128,-1,26
 614 656 614 656 589 656 c 2,27,-1
 273 656 l 1,15,-1
EndSplineSet
EndChar
StartChar: Q
Encoding: 81 81 50
Width: 705
VWidth: 1507
Flags: W
HStem: -15 60<234.845 451.844> 671 60<391.86 621.639>
Fore
559 56 m 1,0,1
 516 23 516 23 466 4 c 128,-1,2
 416 -15 416 -15 365 -15 c 2,3,-1
 282 -15 l 2,4,5
 232 -15 232 -15 193.5 5.5 c 128,-1,6
 155 26 155 26 131 60.5 c 128,-1,7
 107 95 107 95 98.5 140 c 128,-1,8
 90 185 90 185 101 235 c 2,9,-1
 142 430 l 2,10,11
 155 490 155 490 189 545 c 128,-1,12
 223 600 223 600 271.5 641.5 c 128,-1,13
 320 683 320 683 377 707 c 128,-1,14
 434 731 434 731 493 731 c 2,15,-1
 574 731 l 2,16,17
 624 731 624 731 662.5 710.5 c 128,-1,18
 701 690 701 690 725 655.5 c 128,-1,19
 749 621 749 621 757.5 576 c 128,-1,20
 766 531 766 531 755 481 c 2,21,-1
 715 286 l 2,22,23
 704 237 704 237 678.5 191 c 128,-1,24
 653 145 653 145 617 106 c 1,25,-1
 668 35 l 1,26,-1
 610 -14 l 1,27,-1
 559 56 l 1,0,1
687 481 m 2,28,29
 695 516 695 516 689 549.5 c 128,-1,30
 683 583 683 583 666.5 610.5 c 128,-1,31
 650 638 650 638 622.5 654.5 c 128,-1,32
 595 671 595 671 561 671 c 2,33,-1
 479 671 l 2,34,35
 434 671 434 671 390.5 650.5 c 128,-1,36
 347 630 347 630 310 596 c 128,-1,37
 273 562 273 562 246.5 519 c 128,-1,38
 220 476 220 476 210 430 c 2,39,-1
 169 235 l 2,40,41
 161 200 161 200 166.5 166.5 c 128,-1,42
 172 133 172 133 189.5 105.5 c 128,-1,43
 207 78 207 78 234 61.5 c 128,-1,44
 261 45 261 45 295 45 c 2,45,-1
 378 45 l 2,46,47
 416 45 416 45 453 60 c 128,-1,48
 490 75 490 75 525 101 c 1,49,-1
 439 210 l 1,50,-1
 497 258 l 1,51,-1
 579 154 l 1,52,53
 632 216 632 216 647 286 c 2,54,-1
 687 481 l 2,28,29
EndSplineSet
EndChar
StartChar: R
Encoding: 82 82 51
Width: 690
VWidth: 1507
Flags: W
HStem: 0 21G<66 138.244 579.111 668> 344 60<219 432.437 502 563.084> 656 60<273 615.543>
Fore
217 716 m 1,0,-1
 601 716 l 2,1,2
 641 716 641 716 671.5 701 c 128,-1,3
 702 686 702 686 722.5 660.5 c 128,-1,4
 743 635 743 635 751.5 601 c 128,-1,5
 760 567 760 567 751 528 c 256,6,7
 742 488 742 488 720 455 c 128,-1,8
 698 422 698 422 667 397 c 128,-1,9
 636 372 636 372 599 358 c 128,-1,10
 562 344 562 344 523 344 c 2,11,-1
 502 344 l 1,12,13
 510 344 510 344 520.5 329 c 128,-1,14
 531 314 531 314 541 288 c 2,15,-1
 668 0 l 1,16,-1
 588 0 l 1,17,-1
 460 288 l 2,18,19
 451 309 451 309 433 326.5 c 128,-1,20
 415 344 415 344 396 344 c 2,21,-1
 207 344 l 1,22,-1
 134 0 l 1,23,-1
 66 0 l 1,24,-1
 217 716 l 1,0,-1
273 656 m 1,25,-1
 219 404 l 1,26,-1
 535 404 l 2,27,28
 559 404 559 404 584 414 c 128,-1,29
 609 424 609 424 629.5 441 c 128,-1,30
 650 458 650 458 664 480 c 128,-1,31
 678 502 678 502 683 528 c 0,32,33
 687 552 687 552 682.5 575 c 128,-1,34
 678 598 678 598 666 616.5 c 128,-1,35
 654 635 654 635 634 645.5 c 128,-1,36
 614 656 614 656 589 656 c 2,37,-1
 273 656 l 1,25,-1
EndSplineSet
EndChar
StartChar: S
Encoding: 83 83 52
Width: 765
VWidth: 1507
Flags: W
HStem: -15 60<239.908 536.296> 674 59<432.779 682.433>
VStem: 97 68<129.5 156 156 177.119 177.119 190.423 190.423 225> 692.5 71<223.922 276.929> 727 67<533.519 587.783>
Fore
166 225 m 1,0,1
 158 188 158 188 165 156 c 128,-1,2
 172 124 172 124 191 99 c 128,-1,3
 210 74 210 74 239 59.5 c 128,-1,4
 268 45 268 45 306 45 c 2,5,-1
 457 45 l 2,6,7
 499 45 499 45 537.5 58.5 c 128,-1,8
 576 72 576 72 607.5 95 c 128,-1,9
 639 118 639 118 660 147 c 128,-1,10
 681 176 681 176 689 208 c 0,11,12
 692 226 692 226 692.5 247 c 128,-1,13
 693 268 693 268 685.5 288.5 c 128,-1,14
 678 309 678 309 660 324 c 128,-1,15
 642 339 642 339 606 344 c 2,16,-1
 315 381 l 2,17,18
 261 392 261 392 234 411.5 c 128,-1,19
 207 431 207 431 197 454.5 c 128,-1,20
 187 478 187 478 189 502 c 128,-1,21
 191 526 191 526 196 544 c 0,22,23
 207 595 207 595 240.5 631.5 c 128,-1,24
 274 668 274 668 315.5 690.5 c 128,-1,25
 357 713 357 713 399.5 723 c 128,-1,26
 442 733 442 733 470 733 c 2,27,-1
 623 733 l 2,28,29
 666 733 666 733 701.5 718.5 c 128,-1,30
 737 704 737 704 761 677 c 128,-1,31
 785 650 785 650 794 611.5 c 128,-1,32
 803 573 803 573 794 526 c 1,33,-1
 727 526 l 1,34,35
 739 588 739 588 705 631 c 128,-1,36
 671 674 671 674 610 674 c 2,37,-1
 458 674 l 2,38,39
 437 674 437 674 407 665.5 c 128,-1,40
 377 657 377 657 347.5 640.5 c 128,-1,41
 318 624 318 624 294 600 c 128,-1,42
 270 576 270 576 264 544 c 0,43,44
 261 534 261 534 260 519.5 c 128,-1,45
 259 505 259 505 265 490.5 c 128,-1,46
 271 476 271 476 288.5 465 c 128,-1,47
 306 454 306 454 341 449 c 2,48,-1
 629 412 l 2,49,50
 683 402 683 402 712.5 379 c 128,-1,51
 742 356 742 356 753 326.5 c 128,-1,52
 764 297 764 297 763.5 265.5 c 128,-1,53
 763 234 763 234 757 208 c 0,54,55
 746 160 746 160 716.5 119 c 128,-1,56
 687 78 687 78 645 49 c 128,-1,57
 603 20 603 20 551 2.5 c 128,-1,58
 499 -15 499 -15 443 -15 c 2,59,-1
 292 -15 l 2,60,61
 241 -15 241 -15 200.5 3 c 128,-1,62
 160 21 160 21 133.5 53.5 c 128,-1,63
 107 86 107 86 97 129.5 c 128,-1,64
 87 173 87 173 98 225 c 1,65,-1
 166 225 l 1,0,1
EndSplineSet
EndChar
StartChar: T
Encoding: 84 84 53
Width: 587
VWidth: 1507
Flags: W
HStem: 0 21G<261 333.207> 656 60<188 399 467 689>
Fore
399 656 m 1,0,-1
 176 656 l 1,1,-1
 188 716 l 1,2,-1
 701 716 l 1,3,-1
 689 656 l 1,4,-1
 467 656 l 1,5,-1
 329 0 l 1,6,-1
 261 0 l 1,7,-1
 399 656 l 1,0,-1
EndSplineSet
EndChar
StartChar: U
Encoding: 85 85 54
Width: 720
VWidth: 1507
Flags: W
HStem: -15 60<241.846 472.141> 696 20G<205.8 277 740.767 812>
Fore
277 716 m 1,0,-1
 176 235 l 2,1,2
 169 200 169 200 174 166.5 c 128,-1,3
 179 133 179 133 196.5 105.5 c 128,-1,4
 214 78 214 78 241 61.5 c 128,-1,5
 268 45 268 45 303 45 c 2,6,-1
 386 45 l 2,7,8
 430 45 430 45 473.5 65.5 c 128,-1,9
 517 86 517 86 554 120 c 128,-1,10
 591 154 591 154 617.5 197 c 128,-1,11
 644 240 644 240 654 286 c 2,12,-1
 745 716 l 1,13,-1
 812 716 l 1,14,-1
 722 286 l 2,15,16
 708 226 708 226 674.5 171 c 128,-1,17
 641 116 641 116 592.5 74.5 c 128,-1,18
 544 33 544 33 487.5 9 c 128,-1,19
 431 -15 431 -15 372 -15 c 2,20,-1
 289 -15 l 2,21,22
 240 -15 240 -15 201.5 5.5 c 128,-1,23
 163 26 163 26 139 60.5 c 128,-1,24
 115 95 115 95 106.5 140 c 128,-1,25
 98 185 98 185 109 235 c 2,26,-1
 210 716 l 1,27,-1
 277 716 l 1,0,-1
EndSplineSet
EndChar
StartChar: V
Encoding: 86 86 55
Width: 711
VWidth: 1507
Flags: W
HStem: -8 21G<368.5 402.017> 696 20G<188 264.339 740.019 825>
Fore
752 716 m 1,0,-1
 825 716 l 1,1,-1
 390 -8 l 1,2,3
 347 -8 347 -8 326.5 11 c 128,-1,4
 306 30 306 30 297 68 c 2,5,-1
 188 716 l 1,6,-1
 261 716 l 1,7,-1
 368 75 l 1,8,-1
 752 716 l 1,0,-1
EndSplineSet
EndChar
StartChar: W
Encoding: 87 87 56
Width: 1064
VWidth: 1507
Flags: W
HStem: -8 21G<341.5 372.509 693.986 717> 696 20<188 263.402 640.385 654.5 1094.14 1177>
Fore
363 -8 m 1,0,1
 320 -8 320 -8 298 11 c 128,-1,2
 276 30 276 30 267 68 c 2,3,-1
 188 716 l 1,4,-1
 261 716 l 1,5,-1
 338 75 l 1,6,-1
 650 724 l 1,7,8
 659 724 659 724 670 722.5 c 128,-1,9
 681 721 681 721 692.5 715.5 c 128,-1,10
 704 710 704 710 712.5 700 c 128,-1,11
 721 690 721 690 724 674 c 2,12,-1
 757 75 l 1,13,-1
 1105 716 l 1,14,-1
 1177 716 l 1,15,-1
 825 68 l 2,16,17
 799 30 799 30 769 11 c 128,-1,18
 739 -8 739 -8 695 -8 c 1,19,-1
 663 623 l 1,20,-1
 363 -8 l 1,0,1
EndSplineSet
EndChar
StartChar: X
Encoding: 88 88 57
Width: 696
VWidth: 1507
Flags: W
HStem: 0 21G<38 143.2 562.267 659> 696 20G<188 284.631 704.731 809>
Fore
124 0 m 1,0,-1
 38 0 l 1,1,-1
 380 357 l 1,2,-1
 188 716 l 1,3,-1
 274 716 l 1,4,-1
 434 415 l 1,5,-1
 724 716 l 1,6,-1
 809 716 l 1,7,-1
 466 357 l 1,8,-1
 659 0 l 1,9,-1
 573 0 l 1,10,-1
 412 300 l 1,11,-1
 124 0 l 1,0,-1
EndSplineSet
EndChar
StartChar: Y
Encoding: 89 89 58
Width: 678
VWidth: 1507
Flags: W
HStem: 0 21G<304 376.258> 696 20G<188 275.631 695.731 791>
Fore
372 0 m 1,0,-1
 304 0 l 1,1,-1
 380 357 l 1,2,-1
 188 716 l 1,3,-1
 265 716 l 1,4,-1
 425 415 l 1,5,-1
 715 716 l 1,6,-1
 791 716 l 1,7,-1
 448 357 l 1,8,-1
 372 0 l 1,0,-1
EndSplineSet
EndChar
StartChar: Z
Encoding: 90 90 59
Width: 702
VWidth: 1507
Flags: W
HStem: 0 60<185 641> 656 60<213 668>
Fore
200 656 m 1,0,-1
 213 716 l 1,1,-1
 816 716 l 1,2,-1
 185 60 l 1,3,-1
 653 60 l 1,4,-1
 641 0 l 1,5,-1
 38 0 l 1,6,-1
 668 656 l 1,7,-1
 200 656 l 1,0,-1
EndSplineSet
EndChar
StartChar: bracketleft
Encoding: 91 91 60
Width: 292
VWidth: 1507
Flags: W
HStem: -214 56<115.86 141.993 141.993 156.454 156.454 196> 745 55<330.844 401>
VStem: 33 379<-106 800 -136.007 -121.546>
Fore
96 -101 m 2,0,1
 93 -118 93 -118 98.5 -128.5 c 128,-1,2
 104 -139 104 -139 115.5 -145.5 c 128,-1,3
 127 -152 127 -152 141 -155 c 128,-1,4
 155 -158 155 -158 172 -158 c 2,5,-1
 208 -158 l 1,6,-1
 196 -214 l 1,7,-1
 160 -214 l 2,8,9
 130 -214 130 -214 104 -208 c 128,-1,10
 78 -202 78 -202 60 -189 c 128,-1,11
 42 -176 42 -176 34 -156 c 128,-1,12
 26 -136 26 -136 33 -106 c 2,13,-1
 202 689 l 2,14,15
 208 719 208 719 224.5 740 c 128,-1,16
 241 761 241 761 264.5 774.5 c 128,-1,17
 288 788 288 788 316.5 794 c 128,-1,18
 345 800 345 800 375 800 c 2,19,-1
 412 800 l 1,20,-1
 401 745 l 1,21,-1
 365 745 l 2,22,23
 333 745 333 745 302 731.5 c 128,-1,24
 271 718 271 718 264 684 c 2,25,-1
 96 -101 l 2,0,1
EndSplineSet
EndChar
StartChar: bracketright
Encoding: 93 93 62
Width: 292
VWidth: 1507
Flags: W
HStem: -214 56<21 90.4355> 745 55<225 305.248>
VStem: 9 380<-214 689 -214 -214>
Fore
324 684 m 2,0,1
 330 718 330 718 306 731.5 c 128,-1,2
 282 745 282 745 250 745 c 2,3,-1
 214 745 l 1,4,-1
 225 800 l 1,5,-1
 261 800 l 2,6,7
 321 800 321 800 361 774.5 c 128,-1,8
 401 749 401 749 389 689 c 2,9,-1
 220 -106 l 2,10,11
 207 -166 207 -166 156.5 -190 c 128,-1,12
 106 -214 106 -214 45 -214 c 2,13,-1
 9 -214 l 1,14,-1
 21 -158 l 1,15,-1
 57 -158 l 2,16,17
 89 -158 89 -158 119 -146 c 128,-1,18
 149 -134 149 -134 157 -101 c 2,19,-1
 324 684 l 2,0,1
EndSplineSet
EndChar
StartChar: asciicircum
Encoding: 94 94 63
Width: 681
VWidth: 1507
Flags: W
HStem: 374 408<232 503 503 503>
Fore
478 663 m 1,0,-1
 232 374 l 1,1,-1
 164 374 l 1,2,-1
 503 782 l 1,3,-1
 671 374 l 1,4,-1
 601 374 l 1,5,-1
 478 663 l 1,0,-1
EndSplineSet
EndChar
StartChar: underscore
Encoding: 95 95 64
Width: 539
VWidth: 1507
Flags: W
HStem: -137 60<-17 511>
Fore
-30 -137 m 1,0,-1
 -17 -77 l 1,1,-1
 525 -77 l 1,2,3
 523 -84 523 -84 520 -93 c 0,4,5
 516 -109 516 -109 511 -137 c 1,6,-1
 -30 -137 l 1,0,-1
EndSplineSet
EndChar
StartChar: grave
Encoding: 96 96 65
Width: 179
VWidth: 1507
Flags: W
HStem: 565 166<151 295 151 151>
Fore
295 565 m 1,0,-1
 225 565 l 1,1,-1
 151 731 l 1,2,-1
 222 731 l 1,3,-1
 295 565 l 1,0,-1
EndSplineSet
EndChar
StartChar: a
Encoding: 97 97 66
Width: 530
VWidth: 1507
Flags: W
HStem: -8 61<164.33 287.637> 458 61<319.258 429.109>
Fore
425 69 m 1,0,1
 412 53 412 53 391.5 39.5 c 128,-1,2
 371 26 371 26 347.5 15.5 c 128,-1,3
 324 5 324 5 300.5 -1.5 c 128,-1,4
 277 -8 277 -8 258 -8 c 2,5,-1
 197 -8 l 2,6,7
 163 -8 163 -8 138 6.5 c 128,-1,8
 113 21 113 21 98 45 c 128,-1,9
 83 69 83 69 79 101 c 128,-1,10
 75 133 75 133 83 167 c 2,11,-1
 113 308 l 2,12,13
 122 350 122 350 146 388.5 c 128,-1,14
 170 427 170 427 204 456 c 128,-1,15
 238 485 238 485 279 502 c 128,-1,16
 320 519 320 519 362 519 c 2,17,-1
 422 519 l 2,18,19
 463 519 463 519 478.5 500.5 c 128,-1,20
 494 482 494 482 510 464 c 1,21,-1
 520 511 l 1,22,-1
 588 511 l 1,23,-1
 478 -3 l 1,24,-1
 410 -3 l 1,25,-1
 425 69 l 1,0,1
484 344 m 2,26,27
 485 363 485 363 481.5 383.5 c 128,-1,28
 478 404 478 404 468 420.5 c 128,-1,29
 458 437 458 437 443 447.5 c 128,-1,30
 428 458 428 458 409 458 c 2,31,-1
 348 458 l 2,32,33
 320 458 320 458 292.5 445.5 c 128,-1,34
 265 433 265 433 242.5 411.5 c 128,-1,35
 220 390 220 390 203.5 363 c 128,-1,36
 187 336 187 336 181 308 c 2,37,-1
 151 167 l 2,38,39
 142 127 142 127 156 90 c 128,-1,40
 170 53 170 53 211 53 c 2,41,-1
 271 53 l 2,42,43
 298 53 298 53 327.5 65 c 128,-1,44
 357 77 357 77 382 97.5 c 128,-1,45
 407 118 407 118 426 144 c 128,-1,46
 445 170 445 170 452 197 c 2,47,-1
 484 344 l 2,26,27
EndSplineSet
Substitution2: "Single Substitution lookup 22 subtable" uni0E38
Substitution2: "Single Substitution lookup 22 subtable" uni0E38
EndChar
StartChar: b
Encoding: 98 98 67
Width: 532
VWidth: 1507
Flags: W
HStem: -8 61<213.805 349.671> 458 61<328.559 467.844> 696 20G<200.782 273>
Fore
205 716 m 1,0,-1
 273 716 l 1,1,-1
 217 449 l 1,2,3
 250 475 250 475 286.5 497 c 128,-1,4
 323 519 323 519 371 519 c 2,5,-1
 431 519 l 2,6,7
 466 519 466 519 493 504.5 c 128,-1,8
 520 490 520 490 536.5 466 c 128,-1,9
 553 442 553 442 558.5 410 c 128,-1,10
 564 378 564 378 556 344 c 2,11,-1
 526 203 l 2,12,13
 517 160 517 160 493.5 122 c 128,-1,14
 470 84 470 84 437 55 c 128,-1,15
 404 26 404 26 364 9 c 128,-1,16
 324 -8 324 -8 282 -8 c 2,17,-1
 222 -8 l 2,18,19
 182 -8 182 -8 164 8 c 128,-1,20
 146 24 146 24 130 41 c 1,21,-1
 122 0 l 1,22,-1
 54 0 l 1,23,-1
 205 716 l 1,0,-1
488 347 m 2,24,25
 497 387 497 387 477.5 422.5 c 128,-1,26
 458 458 458 458 418 458 c 2,27,-1
 357 458 l 2,28,29
 332 458 332 458 306 447.5 c 128,-1,30
 280 437 280 437 258.5 419.5 c 128,-1,31
 237 402 237 402 218.5 379.5 c 128,-1,32
 200 357 200 357 191 333 c 1,33,-1
 154 154 l 1,34,35
 154 136 154 136 159 118.5 c 128,-1,36
 164 101 164 101 174.5 86 c 128,-1,37
 185 71 185 71 201 62 c 128,-1,38
 217 53 217 53 235 53 c 2,39,-1
 295 53 l 2,40,41
 324 53 324 53 350.5 66.5 c 128,-1,42
 377 80 377 80 399.5 101 c 128,-1,43
 422 122 422 122 438 150 c 128,-1,44
 454 178 454 178 460 207 c 2,45,-1
 488 347 l 2,24,25
EndSplineSet
Substitution2: "Single Substitution lookup 22 subtable" uni0E39
Substitution2: "Single Substitution lookup 22 subtable" uni0E39
EndChar
StartChar: c
Encoding: 99 99 68
Width: 526
VWidth: 1507
Flags: W
HStem: -8 61<203.957 319.556> 458 61<319.258 463.546>
VStem: 81 472<101 359 101 101>
Fore
485 359 m 1,0,1
 494 399 494 399 471 428.5 c 128,-1,2
 448 458 448 458 407 458 c 2,3,-1
 348 458 l 2,4,5
 320 458 320 458 292.5 445.5 c 128,-1,6
 265 433 265 433 242.5 411.5 c 128,-1,7
 220 390 220 390 203.5 363 c 128,-1,8
 187 336 187 336 181 308 c 2,9,-1
 151 167 l 2,10,11
 146 146 146 146 150 126 c 128,-1,12
 154 106 154 106 163.5 90 c 128,-1,13
 173 74 173 74 189 63.5 c 128,-1,14
 205 53 205 53 226 53 c 2,15,-1
 286 53 l 2,16,17
 315 53 315 53 341.5 62.5 c 128,-1,18
 368 72 368 72 390 89 c 128,-1,19
 412 106 412 106 427.5 130 c 128,-1,20
 443 154 443 154 449 182 c 1,21,-1
 517 182 l 1,22,23
 508 139 508 139 484.5 104 c 128,-1,24
 461 69 461 69 428 44.5 c 128,-1,25
 395 20 395 20 355 6 c 128,-1,26
 315 -8 315 -8 273 -8 c 2,27,-1
 213 -8 l 2,28,29
 178 -8 178 -8 150 6.5 c 128,-1,30
 122 21 122 21 104.5 45 c 128,-1,31
 87 69 87 69 81 101 c 128,-1,32
 75 133 75 133 83 167 c 2,33,-1
 113 308 l 2,34,35
 122 350 122 350 146 388.5 c 128,-1,36
 170 427 170 427 204 456 c 128,-1,37
 238 485 238 485 279 502 c 128,-1,38
 320 519 320 519 362 519 c 2,39,-1
 421 519 l 2,40,41
 491 519 491 519 529.5 474.5 c 128,-1,42
 568 430 568 430 553 359 c 1,43,-1
 485 359 l 1,0,1
EndSplineSet
Substitution2: "Single Substitution lookup 22 subtable" uni0E3A
Substitution2: "Single Substitution lookup 22 subtable" uni0E3A
EndChar
StartChar: d
Encoding: 100 100 69
Width: 533
VWidth: 1507
Flags: W
HStem: -8 61<164.33 290.415> 458 61<319.258 459.726> 696 20G<557.82 630>
Fore
425 69 m 1,0,1
 421 62 421 62 404 49 c 128,-1,2
 387 36 387 36 364 23.5 c 128,-1,3
 341 11 341 11 313 1.5 c 128,-1,4
 285 -8 285 -8 258 -8 c 2,5,-1
 197 -8 l 2,6,7
 163 -8 163 -8 138 6.5 c 128,-1,8
 113 21 113 21 98 45 c 128,-1,9
 83 69 83 69 79 101 c 128,-1,10
 75 133 75 133 83 167 c 2,11,-1
 113 308 l 2,12,13
 122 350 122 350 146 388.5 c 128,-1,14
 170 427 170 427 204 456 c 128,-1,15
 238 485 238 485 279 502 c 128,-1,16
 320 519 320 519 362 519 c 2,17,-1
 422 519 l 2,18,19
 467 519 467 519 483 505 c 128,-1,20
 499 491 499 491 511 472 c 1,21,-1
 562 716 l 1,22,-1
 630 716 l 1,23,-1
 478 -3 l 1,24,-1
 410 -3 l 1,25,-1
 425 69 l 1,0,1
485 351 m 2,26,27
 490 390 490 390 469 424 c 128,-1,28
 448 458 448 458 409 458 c 2,29,-1
 348 458 l 2,30,31
 320 458 320 458 292.5 445.5 c 128,-1,32
 265 433 265 433 242.5 411.5 c 128,-1,33
 220 390 220 390 203.5 363 c 128,-1,34
 187 336 187 336 181 308 c 2,35,-1
 151 167 l 2,36,37
 142 127 142 127 156 90 c 128,-1,38
 170 53 170 53 211 53 c 2,39,-1
 271 53 l 2,40,41
 298 53 298 53 327.5 65 c 128,-1,42
 357 77 357 77 382 97.5 c 128,-1,43
 407 118 407 118 426 144 c 128,-1,44
 445 170 445 170 452 197 c 2,45,-1
 485 351 l 2,26,27
EndSplineSet
EndChar
StartChar: e
Encoding: 101 101 70
Width: 527
VWidth: 1507
Flags: W
HStem: -8 61<203.957 317.834> 267 53<184 479> 458 61<316.658 429.584>
VStem: 81 472<101 410 235.937 286.733>
Fore
151 167 m 2,0,1
 146 146 146 146 150 126 c 128,-1,2
 154 106 154 106 163.5 90 c 128,-1,3
 173 74 173 74 189 63.5 c 128,-1,4
 205 53 205 53 226 53 c 2,5,-1
 286 53 l 2,6,7
 315 53 315 53 341.5 63.5 c 128,-1,8
 368 74 368 74 390.5 92 c 128,-1,9
 413 110 413 110 429 135 c 128,-1,10
 445 160 445 160 451 188 c 1,11,-1
 519 188 l 1,12,13
 510 145 510 145 485.5 109.5 c 128,-1,14
 461 74 461 74 428 47.5 c 128,-1,15
 395 21 395 21 355 6.5 c 128,-1,16
 315 -8 315 -8 273 -8 c 2,17,-1
 213 -8 l 2,18,19
 178 -8 178 -8 150 6.5 c 128,-1,20
 122 21 122 21 104.5 45 c 128,-1,21
 87 69 87 69 81 101 c 128,-1,22
 75 133 75 133 83 167 c 2,23,-1
 113 308 l 2,24,25
 122 350 122 350 146 388.5 c 128,-1,26
 170 427 170 427 204 456 c 128,-1,27
 238 485 238 485 279 502 c 128,-1,28
 320 519 320 519 362 519 c 2,29,-1
 422 519 l 2,30,31
 457 519 457 519 485 504.5 c 128,-1,32
 513 490 513 490 530 466 c 128,-1,33
 547 442 547 442 553 410 c 128,-1,34
 559 378 559 378 552 344 c 2,35,-1
 535 267 l 1,36,-1
 172 267 l 1,37,-1
 151 167 l 2,0,1
348 458 m 2,38,39
 320 458 320 458 292.5 447.5 c 128,-1,40
 265 437 265 437 243.5 418 c 128,-1,41
 222 399 222 399 206 373.5 c 128,-1,42
 190 348 190 348 184 320 c 1,43,-1
 479 320 l 1,44,-1
 484 344 l 2,45,46
 488 363 488 363 484.5 384 c 128,-1,47
 481 405 481 405 471 421 c 128,-1,48
 461 437 461 437 444.5 447.5 c 128,-1,49
 428 458 428 458 409 458 c 2,50,-1
 348 458 l 2,38,39
EndSplineSet
EndChar
StartChar: f
Encoding: 102 102 71
Width: 319
VWidth: 1507
Flags: W
HStem: 0 21G<128 200.192> 458 53<139 225 304 386> 695 20G<461 478.176>
VStem: 127 355<458 715 525 607>
Fore
225 458 m 1,0,-1
 127 458 l 1,1,-1
 139 511 l 1,2,-1
 237 511 l 1,3,4
 246 553 246 553 270 590 c 128,-1,5
 294 627 294 627 327 655 c 128,-1,6
 360 683 360 683 400 699 c 128,-1,7
 440 715 440 715 482 715 c 1,8,-1
 469 647 l 1,9,10
 440 647 440 647 413.5 636.5 c 128,-1,11
 387 626 387 626 364.5 607.5 c 128,-1,12
 342 589 342 589 326.5 564.5 c 128,-1,13
 311 540 311 540 304 511 c 1,14,-1
 398 511 l 1,15,-1
 386 458 l 1,16,-1
 292 458 l 1,17,-1
 196 0 l 1,18,-1
 128 0 l 1,19,-1
 225 458 l 1,0,-1
EndSplineSet
EndChar
StartChar: g
Encoding: 103 103 72
Width: 533
VWidth: 1507
Flags: W
HStem: -187 57<145.564 278.408> 30 60<212.115 321.844> 457 62<319.258 459.726>
Fore
430 89 m 1,0,1
 396 63 396 63 358.5 46.5 c 128,-1,2
 321 30 321 30 282 30 c 2,3,-1
 222 30 l 2,4,5
 187 30 187 30 159 44.5 c 128,-1,6
 131 59 131 59 113.5 83 c 128,-1,7
 96 107 96 107 89.5 138.5 c 128,-1,8
 83 170 83 170 90 205 c 2,9,-1
 113 308 l 2,10,11
 122 350 122 350 146 388.5 c 128,-1,12
 170 427 170 427 204 456 c 128,-1,13
 238 485 238 485 279 502 c 128,-1,14
 320 519 320 519 362 519 c 2,15,-1
 422 519 l 2,16,17
 457 519 457 519 477 504.5 c 128,-1,18
 497 490 497 490 511 472 c 1,19,-1
 520 511 l 1,20,-1
 588 511 l 1,21,-1
 476 -9 l 2,22,23
 469 -45 469 -45 443.5 -77.5 c 128,-1,24
 418 -110 418 -110 382.5 -134 c 128,-1,25
 347 -158 347 -158 307.5 -172.5 c 128,-1,26
 268 -187 268 -187 232 -187 c 2,27,-1
 172 -187 l 2,28,29
 116 -187 116 -187 80.5 -155.5 c 128,-1,30
 45 -124 45 -124 38 -75 c 1,31,-1
 118 -75 l 1,32,33
 127 -96 127 -96 145 -113 c 128,-1,34
 163 -130 163 -130 188 -130 c 2,35,-1
 249 -130 l 2,36,37
 274 -130 274 -130 300.5 -120 c 128,-1,38
 327 -110 327 -110 349 -94 c 128,-1,39
 371 -78 371 -78 387.5 -56.5 c 128,-1,40
 404 -35 404 -35 409 -9 c 2,41,-1
 430 89 l 1,0,1
485 351 m 2,42,43
 490 390 490 390 469 423.5 c 128,-1,44
 448 457 448 457 409 457 c 2,45,-1
 348 457 l 2,46,47
 320 457 320 457 292.5 444 c 128,-1,48
 265 431 265 431 242.5 410.5 c 128,-1,49
 220 390 220 390 203.5 363 c 128,-1,50
 187 336 187 336 181 308 c 2,51,-1
 158 205 l 2,52,53
 154 184 154 184 157.5 163.5 c 128,-1,54
 161 143 161 143 171.5 127.5 c 128,-1,55
 182 112 182 112 197.5 101 c 128,-1,56
 213 90 213 90 234 90 c 2,57,-1
 294 90 l 2,58,59
 321 90 321 90 348 102.5 c 128,-1,60
 375 115 375 115 398 135 c 128,-1,61
 421 155 421 155 437.5 181.5 c 128,-1,62
 454 208 454 208 461 235 c 2,63,-1
 485 351 l 2,42,43
EndSplineSet
EndChar
StartChar: h
Encoding: 104 104 73
Width: 538
VWidth: 1507
Flags: W
HStem: 0 21G<54 126.144 416 488.186> 458 61<328.559 467.844> 696 20G<200.782 273>
Fore
488 347 m 2,0,1
 497 387 497 387 477.5 422.5 c 128,-1,2
 458 458 458 458 418 458 c 2,3,-1
 357 458 l 2,4,5
 332 458 332 458 306 447.5 c 128,-1,6
 280 437 280 437 258.5 419.5 c 128,-1,7
 237 402 237 402 218.5 379.5 c 128,-1,8
 200 357 200 357 191 333 c 1,9,-1
 122 0 l 1,10,-1
 54 0 l 1,11,-1
 205 716 l 1,12,-1
 273 716 l 1,13,-1
 219 457 l 1,14,15
 252 482 252 482 291 500.5 c 128,-1,16
 330 519 330 519 371 519 c 2,17,-1
 431 519 l 2,18,19
 466 519 466 519 493 504.5 c 128,-1,20
 520 490 520 490 536.5 466 c 128,-1,21
 553 442 553 442 558.5 410 c 128,-1,22
 564 378 564 378 556 344 c 2,23,-1
 484 0 l 1,24,-1
 416 0 l 1,25,-1
 488 347 l 2,0,1
EndSplineSet
EndChar
StartChar: i
Encoding: 105 105 74
Width: 248
VWidth: 1507
Flags: W
HStem: 0 21G<90 162.266> 491 20G<194.734 267> 600 105<234.563 291.921>
VStem: 211 106<634.594 693.594>
Fore
199 511 m 1,0,-1
 267 511 l 1,1,-1
 158 0 l 1,2,-1
 90 0 l 1,3,-1
 199 511 l 1,0,-1
211 653 m 0,4,5
 216 675 216 675 234 690 c 128,-1,6
 252 705 252 705 274 705 c 256,7,8
 297 705 297 705 309 690 c 128,-1,9
 321 675 321 675 317 653 c 0,10,11
 311 630 311 630 292.5 615 c 128,-1,12
 274 600 274 600 252 600 c 256,13,14
 229 600 229 600 217 615 c 128,-1,15
 205 630 205 630 211 653 c 0,4,5
EndSplineSet
EndChar
StartChar: j
Encoding: 106 106 75
Width: 248
VWidth: 1507
Flags: W
HStem: -203 67<-134 -7.28101> 491 20G<194.734 267> 600 105<234.563 291.921>
VStem: 211 106<634.594 693.594>
Fore
199 511 m 1,0,-1
 267 511 l 1,1,-1
 158 0 l 2,2,3
 149 -42 149 -42 125 -79 c 128,-1,4
 101 -116 101 -116 68 -144 c 128,-1,5
 35 -172 35 -172 -6 -187.5 c 128,-1,6
 -47 -203 -47 -203 -87 -203 c 2,7,-1
 -148 -203 l 1,8,-1
 -134 -136 l 1,9,-1
 -74 -136 l 2,10,11
 -18 -136 -18 -136 29.5 -96.5 c 128,-1,12
 77 -57 77 -57 90 0 c 2,13,-1
 199 511 l 1,0,-1
211 653 m 0,14,15
 216 675 216 675 234 690 c 128,-1,16
 252 705 252 705 274 705 c 256,17,18
 297 705 297 705 309 690 c 128,-1,19
 321 675 321 675 317 653 c 0,20,21
 311 630 311 630 292.5 615 c 128,-1,22
 274 600 274 600 252 600 c 256,23,24
 229 600 229 600 217 615 c 128,-1,25
 205 630 205 630 211 653 c 0,14,15
EndSplineSet
EndChar
StartChar: k
Encoding: 107 107 76
Width: 506
VWidth: 1507
Flags: W
HStem: 0 21G<54 126.219 397.885 505> 491 20G<442.405 577> 696 20G<200.782 273>
Fore
259 304 m 1,0,1
 273 300 273 300 287 286.5 c 128,-1,2
 301 273 301 273 311 261 c 2,3,-1
 505 0 l 1,4,-1
 413 0 l 1,5,-1
 249 217 l 2,6,7
 222 252 222 252 176 256 c 1,8,-1
 122 0 l 1,9,-1
 54 0 l 1,10,-1
 205 716 l 1,11,-1
 273 716 l 1,12,-1
 190 326 l 1,13,-1
 473 511 l 1,14,-1
 577 511 l 1,15,-1
 259 304 l 1,0,1
EndSplineSet
EndChar
StartChar: l
Encoding: 108 108 77
Width: 248
VWidth: 1507
Flags: W
HStem: 0 21G<90 162.218> 696 20G<236.782 309>
VStem: 90 219<0 716 1.53064e-18 1.53064e-18>
Fore
241 716 m 1,0,-1
 309 716 l 1,1,-1
 158 0 l 1,2,-1
 90 0 l 1,3,-1
 241 716 l 1,0,-1
EndSplineSet
EndChar
StartChar: m
Encoding: 109 109 78
Width: 788
VWidth: 1507
Flags: W
HStem: 0 21G<54 126.144 360 432.211 666 738.186> 458 61<310.152 393.065 603.81 715.363>
Fore
360 0 m 1,0,-1
 433 344 l 2,1,2
 437 363 437 363 433.5 384 c 128,-1,3
 430 405 430 405 420 421 c 128,-1,4
 410 437 410 437 393.5 447.5 c 128,-1,5
 377 458 377 458 357 458 c 0,6,7
 332 458 332 458 304.5 447.5 c 128,-1,8
 277 437 277 437 254 420.5 c 128,-1,9
 231 404 231 404 214 380.5 c 128,-1,10
 197 357 197 357 191 333 c 2,11,-1
 122 0 l 1,12,-1
 54 0 l 1,13,-1
 163 511 l 1,14,-1
 231 511 l 1,15,-1
 219 457 l 1,16,17
 252 482 252 482 291 500.5 c 128,-1,18
 330 519 330 519 371 519 c 0,19,20
 413 519 413 519 443 496 c 128,-1,21
 473 473 473 473 490 442 c 1,22,23
 526 476 526 476 576.5 497.5 c 128,-1,24
 627 519 627 519 677 519 c 0,25,26
 711 519 711 519 739 504.5 c 128,-1,27
 767 490 767 490 784.5 466 c 128,-1,28
 802 442 802 442 808 410 c 128,-1,29
 814 378 814 378 806 344 c 2,30,-1
 734 0 l 1,31,-1
 666 0 l 1,32,-1
 739 347 l 2,33,34
 748 387 748 387 726 422.5 c 128,-1,35
 704 458 704 458 663 458 c 0,36,37
 638 458 638 458 611.5 450 c 128,-1,38
 585 442 585 442 561.5 426 c 128,-1,39
 538 410 538 410 521.5 389 c 128,-1,40
 505 368 505 368 500 342 c 2,41,-1
 428 0 l 1,42,-1
 360 0 l 1,0,-1
EndSplineSet
EndChar
StartChar: n
Encoding: 110 110 79
Width: 542
VWidth: 1507
Flags: W
HStem: 0 21G<54 126.144 421 492.244> 458 61<328.559 469.129>
Fore
493 347 m 2,0,1
 502 387 502 387 480 422.5 c 128,-1,2
 458 458 458 458 418 458 c 2,3,-1
 357 458 l 2,4,5
 332 458 332 458 306 447.5 c 128,-1,6
 280 437 280 437 258.5 419.5 c 128,-1,7
 237 402 237 402 218.5 379.5 c 128,-1,8
 200 357 200 357 191 333 c 1,9,-1
 122 0 l 1,10,-1
 54 0 l 1,11,-1
 163 511 l 1,12,-1
 231 511 l 1,13,-1
 219 457 l 1,14,15
 252 482 252 482 291 500.5 c 128,-1,16
 330 519 330 519 371 519 c 2,17,-1
 431 519 l 2,18,19
 466 519 466 519 494 504.5 c 128,-1,20
 522 490 522 490 539 466 c 128,-1,21
 556 442 556 442 562 410 c 128,-1,22
 568 378 568 378 561 344 c 2,23,-1
 488 0 l 1,24,-1
 421 0 l 1,25,-1
 493 347 l 2,0,1
EndSplineSet
EndChar
StartChar: o
Encoding: 111 111 80
Width: 527
VWidth: 1507
Flags: W
HStem: -8 61<203.957 315.375> 458 61<319.258 429.584>
VStem: 81 472<101 410 101 101>
Fore
522 203 m 2,0,1
 513 160 513 160 488.5 122 c 128,-1,2
 464 84 464 84 430 55 c 128,-1,3
 396 26 396 26 355.5 9 c 128,-1,4
 315 -8 315 -8 273 -8 c 2,5,-1
 213 -8 l 2,6,7
 178 -8 178 -8 150 6.5 c 128,-1,8
 122 21 122 21 104.5 45 c 128,-1,9
 87 69 87 69 81 101 c 128,-1,10
 75 133 75 133 83 167 c 2,11,-1
 113 308 l 2,12,13
 122 350 122 350 146 388.5 c 128,-1,14
 170 427 170 427 204 456 c 128,-1,15
 238 485 238 485 279 502 c 128,-1,16
 320 519 320 519 362 519 c 2,17,-1
 422 519 l 2,18,19
 457 519 457 519 485 504.5 c 128,-1,20
 513 490 513 490 530 466 c 128,-1,21
 547 442 547 442 553 410 c 128,-1,22
 559 378 559 378 552 344 c 2,23,-1
 522 203 l 2,0,1
484 344 m 2,24,25
 488 363 488 363 484.5 384 c 128,-1,26
 481 405 481 405 471 421 c 128,-1,27
 461 437 461 437 444.5 447.5 c 128,-1,28
 428 458 428 458 409 458 c 2,29,-1
 348 458 l 2,30,31
 320 458 320 458 292.5 445.5 c 128,-1,32
 265 433 265 433 242.5 411.5 c 128,-1,33
 220 390 220 390 203.5 363 c 128,-1,34
 187 336 187 336 181 308 c 2,35,-1
 151 167 l 2,36,37
 146 146 146 146 150 126 c 128,-1,38
 154 106 154 106 163.5 90 c 128,-1,39
 173 74 173 74 189 63.5 c 128,-1,40
 205 53 205 53 226 53 c 2,41,-1
 286 53 l 2,42,43
 315 53 315 53 342 65.5 c 128,-1,44
 369 78 369 78 392 99.5 c 128,-1,45
 415 121 415 121 431.5 148 c 128,-1,46
 448 175 448 175 454 203 c 2,47,-1
 484 344 l 2,24,25
EndSplineSet
EndChar
StartChar: p
Encoding: 112 112 81
Width: 533
VWidth: 1507
Flags: W
HStem: -188 21G<14 85.3172> -8 61<209.957 321.375> 458 61<325.03 435.584>
Fore
163 511 m 1,0,-1
 231 511 l 1,1,-1
 217 452 l 1,2,3
 238 476 238 476 280.5 497.5 c 128,-1,4
 323 519 323 519 368 519 c 2,5,-1
 428 519 l 2,6,7
 463 519 463 519 491 504.5 c 128,-1,8
 519 490 519 490 536 466 c 128,-1,9
 553 442 553 442 559 410 c 128,-1,10
 565 378 565 378 558 344 c 2,11,-1
 528 203 l 2,12,13
 519 160 519 160 494.5 122 c 128,-1,14
 470 84 470 84 436 55 c 128,-1,15
 402 26 402 26 361.5 9 c 128,-1,16
 321 -8 321 -8 279 -8 c 2,17,-1
 219 -8 l 2,18,19
 184 -8 184 -8 163.5 7.5 c 128,-1,20
 143 23 143 23 130 39 c 1,21,-1
 81 -188 l 1,22,-1
 14 -188 l 1,23,-1
 163 511 l 1,0,-1
490 344 m 2,24,25
 494 363 494 363 490.5 384 c 128,-1,26
 487 405 487 405 477 421 c 128,-1,27
 467 437 467 437 450.5 447.5 c 128,-1,28
 434 458 434 458 415 458 c 2,29,-1
 354 458 l 2,30,31
 327 458 327 458 299 446 c 128,-1,32
 271 434 271 434 248.5 413.5 c 128,-1,33
 226 393 226 393 210 367 c 128,-1,34
 194 341 194 341 188 314 c 2,35,-1
 157 167 l 2,36,37
 152 146 152 146 156 126 c 128,-1,38
 160 106 160 106 169.5 90 c 128,-1,39
 179 74 179 74 195 63.5 c 128,-1,40
 211 53 211 53 232 53 c 2,41,-1
 292 53 l 2,42,43
 321 53 321 53 348 65.5 c 128,-1,44
 375 78 375 78 398 99.5 c 128,-1,45
 421 121 421 121 437.5 148 c 128,-1,46
 454 175 454 175 460 203 c 2,47,-1
 490 344 l 2,24,25
EndSplineSet
EndChar
StartChar: q
Encoding: 113 113 82
Width: 533
VWidth: 1507
Flags: W
HStem: -188 21G<371 443.263> -8 61<203.957 315.186> 457 62<319.258 459.726>
Fore
424 63 m 1,0,1
 395 33 395 33 353.5 12.5 c 128,-1,2
 312 -8 312 -8 273 -8 c 2,3,-1
 213 -8 l 2,4,5
 178 -8 178 -8 150 6.5 c 128,-1,6
 122 21 122 21 104.5 45 c 128,-1,7
 87 69 87 69 81 101 c 128,-1,8
 75 133 75 133 83 167 c 2,9,-1
 113 308 l 2,10,11
 122 350 122 350 146 388.5 c 128,-1,12
 170 427 170 427 204 456 c 128,-1,13
 238 485 238 485 279 502 c 128,-1,14
 320 519 320 519 362 519 c 2,15,-1
 422 519 l 2,16,17
 460 519 460 519 478 504.5 c 128,-1,18
 496 490 496 490 511 472 c 1,19,-1
 520 511 l 1,20,-1
 588 511 l 1,21,-1
 439 -188 l 1,22,-1
 371 -188 l 1,23,-1
 424 63 l 1,0,1
485 351 m 2,24,25
 490 390 490 390 469 423.5 c 128,-1,26
 448 457 448 457 409 457 c 2,27,-1
 348 457 l 2,28,29
 320 457 320 457 292.5 444 c 128,-1,30
 265 431 265 431 242.5 410.5 c 128,-1,31
 220 390 220 390 203.5 363 c 128,-1,32
 187 336 187 336 181 308 c 2,33,-1
 151 167 l 2,34,35
 146 146 146 146 150 126 c 128,-1,36
 154 106 154 106 163.5 90 c 128,-1,37
 173 74 173 74 189 63.5 c 128,-1,38
 205 53 205 53 226 53 c 2,39,-1
 286 53 l 2,40,41
 314 53 314 53 340 65 c 128,-1,42
 366 77 366 77 389 97.5 c 128,-1,43
 412 118 412 118 428.5 144 c 128,-1,44
 445 170 445 170 452 197 c 2,45,-1
 485 351 l 2,24,25
EndSplineSet
EndChar
StartChar: r
Encoding: 114 114 83
Width: 349
VWidth: 1507
Flags: W
HStem: 0 21G<56 128.156> 458 61<328.75 416>
VStem: 56 374<0 519 -40.2747 0>
Fore
164 511 m 1,0,-1
 232 511 l 1,1,-1
 220 458 l 1,2,3
 253 482 253 482 291.5 500.5 c 128,-1,4
 330 519 330 519 369 519 c 2,5,-1
 430 519 l 1,6,-1
 416 458 l 1,7,-1
 356 458 l 2,8,9
 329 458 329 458 301 444.5 c 128,-1,10
 273 431 273 431 250.5 410 c 128,-1,11
 228 389 228 389 211 362 c 128,-1,12
 194 335 194 335 188 308 c 2,13,-1
 124 0 l 1,14,-1
 56 0 l 1,15,-1
 164 511 l 1,0,-1
EndSplineSet
EndChar
StartChar: s
Encoding: 115 115 84
Width: 572
VWidth: 1507
Flags: W
HStem: -8 61<169.905 391.719> 458 61<325.965 510.095>
Fore
241 246 m 2,0,1
 203 252 203 252 183 265.5 c 128,-1,2
 163 279 163 279 154.5 296.5 c 128,-1,3
 146 314 146 314 146 332.5 c 128,-1,4
 146 351 146 351 151 369 c 0,5,6
 158 407 158 407 181.5 435 c 128,-1,7
 205 463 205 463 235 481.5 c 128,-1,8
 265 500 265 500 299 509.5 c 128,-1,9
 333 519 333 519 363 519 c 2,10,-1
 467 519 l 2,11,12
 538 519 538 519 576.5 474.5 c 128,-1,13
 615 430 615 430 600 359 c 1,14,-1
 532 359 l 1,15,16
 541 399 541 399 517.5 428.5 c 128,-1,17
 494 458 494 458 454 458 c 2,18,-1
 350 458 l 2,19,20
 336 458 336 458 315.5 453 c 128,-1,21
 295 448 295 448 275 436.5 c 128,-1,22
 255 425 255 425 239 408.5 c 128,-1,23
 223 392 223 392 219 371 c 0,24,25
 217 363 217 363 216.5 353.5 c 128,-1,26
 216 344 216 344 220.5 335 c 128,-1,27
 225 326 225 326 236 318.5 c 128,-1,28
 247 311 247 311 271 306 c 2,29,-1
 479 280 l 2,30,31
 517 274 517 274 536.5 258.5 c 128,-1,32
 556 243 556 243 564.5 222.5 c 128,-1,33
 573 202 573 202 572 181 c 128,-1,34
 571 160 571 160 567 142 c 0,35,36
 559 110 559 110 539.5 82 c 128,-1,37
 520 54 520 54 491.5 34.5 c 128,-1,38
 463 15 463 15 427.5 3.5 c 128,-1,39
 392 -8 392 -8 354 -8 c 2,40,-1
 213 -8 l 2,41,42
 142 -8 142 -8 103.5 36.5 c 128,-1,43
 65 81 65 81 80 152 c 1,44,-1
 148 152 l 1,45,46
 139 112 139 112 162 82.5 c 128,-1,47
 185 53 185 53 226 53 c 2,48,-1
 368 53 l 2,49,50
 381 53 381 53 401.5 59 c 128,-1,51
 422 65 422 65 442.5 76 c 128,-1,52
 463 87 463 87 478.5 103 c 128,-1,53
 494 119 494 119 499 140 c 0,54,55
 506 169 506 169 498 191 c 128,-1,56
 490 213 490 213 451 220 c 2,57,-1
 241 246 l 2,0,1
EndSplineSet
EndChar
StartChar: t
Encoding: 116 116 85
Width: 319
VWidth: 1507
Flags: W
HStem: 0 21G<128 200.192> 458 53<139 225 304 386 127 398 139 139> 696 20G<274.902 347>
Fore
225 458 m 1,0,-1
 127 458 l 1,1,-1
 139 511 l 1,2,-1
 237 511 l 1,3,-1
 279 716 l 1,4,-1
 347 716 l 1,5,-1
 304 511 l 1,6,-1
 398 511 l 1,7,-1
 386 458 l 1,8,-1
 292 458 l 1,9,-1
 196 0 l 1,10,-1
 128 0 l 1,11,-1
 225 458 l 1,0,-1
EndSplineSet
EndChar
StartChar: u
Encoding: 117 117 86
Width: 538
VWidth: 1507
Flags: W
HStem: -8 61<177.156 317.092> 491 20G<158.698 231 520.736 592>
Fore
157 164 m 2,0,1
 148 124 148 124 167.5 88.5 c 128,-1,2
 187 53 187 53 228 53 c 2,3,-1
 288 53 l 2,4,5
 314 53 314 53 339.5 63.5 c 128,-1,6
 365 74 365 74 387 91.5 c 128,-1,7
 409 109 409 109 427 131.5 c 128,-1,8
 445 154 445 154 454 178 c 1,9,-1
 525 511 l 1,10,-1
 592 511 l 1,11,-1
 484 0 l 1,12,-1
 416 0 l 1,13,-1
 430 65 l 1,14,15
 402 35 402 35 358.5 13.5 c 128,-1,16
 315 -8 315 -8 274 -8 c 2,17,-1
 214 -8 l 2,18,19
 179 -8 179 -8 152 6.5 c 128,-1,20
 125 21 125 21 108.5 45 c 128,-1,21
 92 69 92 69 86.5 101 c 128,-1,22
 81 133 81 133 89 167 c 2,23,-1
 163 511 l 1,24,-1
 231 511 l 1,25,-1
 157 164 l 2,0,1
EndSplineSet
EndChar
StartChar: v
Encoding: 118 118 87
Width: 526
VWidth: 1507
Flags: W
HStem: -8 21G<281 308.83> 491 20G<139 213.052 522.292 604>
VStem: 139 465<511 511 511 511>
Fore
297 -8 m 1,0,1
 265 -8 265 -8 241 6 c 128,-1,2
 217 20 217 20 210 47 c 2,3,-1
 139 511 l 1,4,-1
 210 511 l 1,5,-1
 277 72 l 1,6,-1
 534 511 l 1,7,-1
 604 511 l 1,8,-1
 297 -8 l 1,0,1
EndSplineSet
EndChar
StartChar: w
Encoding: 119 119 88
Width: 845
VWidth: 1507
Flags: W
HStem: -8 21G<261 284.07 564.395 579> 491 20<139 213.506 494.091 517 840.956 924>
Fore
511 422 m 1,0,-1
 273 -8 l 1,1,2
 249 -8 249 -8 232.5 3 c 128,-1,3
 216 14 216 14 211 35 c 2,4,-1
 139 511 l 1,5,-1
 211 511 l 1,6,-1
 265 80 l 1,7,-1
 505 520 l 1,8,9
 529 520 529 520 547 508.5 c 128,-1,10
 565 497 565 497 568 476 c 2,11,-1
 614 80 l 1,12,-1
 852 511 l 1,13,-1
 924 511 l 1,14,-1
 648 35 l 2,15,16
 636 14 636 14 613.5 3 c 128,-1,17
 591 -8 591 -8 567 -8 c 1,18,-1
 511 422 l 1,0,-1
EndSplineSet
EndChar
StartChar: x
Encoding: 120 120 89
Width: 562
VWidth: 1507
Flags: W
HStem: 0 21G<21 127 443.219 541> 491 20G<157 252.263 518 623>
Fore
538 511 m 1,0,-1
 623 511 l 1,1,-1
 383 270 l 1,2,-1
 541 0 l 1,3,-1
 455 0 l 1,4,-1
 326 219 l 1,5,-1
 107 0 l 1,6,-1
 21 0 l 1,7,-1
 292 270 l 1,8,-1
 157 511 l 1,9,-1
 241 511 l 1,10,-1
 348 321 l 1,11,-1
 538 511 l 1,0,-1
EndSplineSet
EndChar
StartChar: y
Encoding: 121 121 90
Width: 539
VWidth: 1507
Flags: W
HStem: -187 57<149.564 283.23> 30 62<183.314 324.092> 491 20G<158.621 231 520.661 592>
Fore
122 -75 m 1,0,1
 131 -96 131 -96 149 -113 c 128,-1,2
 167 -130 167 -130 193 -130 c 2,3,-1
 253 -130 l 2,4,5
 279 -130 279 -130 305.5 -120 c 128,-1,6
 332 -110 332 -110 353.5 -94 c 128,-1,7
 375 -78 375 -78 392 -56.5 c 128,-1,8
 409 -35 409 -35 413 -9 c 2,9,-1
 434 92 l 1,10,11
 402 66 402 66 363 48 c 128,-1,12
 324 30 324 30 283 30 c 2,13,-1
 223 30 l 2,14,15
 188 30 188 30 161 44.5 c 128,-1,16
 134 59 134 59 117.5 83 c 128,-1,17
 101 107 101 107 95 138.5 c 128,-1,18
 89 170 89 170 96 205 c 2,19,-1
 163 511 l 1,20,-1
 231 511 l 1,21,-1
 164 202 l 2,22,23
 155 161 155 161 174.5 126.5 c 128,-1,24
 194 92 194 92 235 92 c 2,25,-1
 295 92 l 2,26,27
 321 92 321 92 346.5 102.5 c 128,-1,28
 372 113 372 113 395 129.5 c 128,-1,29
 418 146 418 146 435 168.5 c 128,-1,30
 452 191 452 191 461 216 c 1,31,-1
 525 511 l 1,32,-1
 592 511 l 1,33,-1
 481 -9 l 2,34,35
 473 -45 473 -45 447.5 -77.5 c 128,-1,36
 422 -110 422 -110 386.5 -134 c 128,-1,37
 351 -158 351 -158 312 -172.5 c 128,-1,38
 273 -187 273 -187 237 -187 c 2,39,-1
 176 -187 l 2,40,41
 121 -187 121 -187 85.5 -155.5 c 128,-1,42
 50 -124 50 -124 42 -75 c 1,43,-1
 122 -75 l 1,0,1
EndSplineSet
EndChar
StartChar: z
Encoding: 122 122 91
Width: 565
VWidth: 1507
Flags: W
HStem: 0 53<187 506> 458 53<172 484>
Fore
506 0 m 1,0,-1
 48 0 l 1,1,-1
 484 458 l 1,2,-1
 160 458 l 1,3,-1
 172 511 l 1,4,-1
 626 511 l 1,5,-1
 187 53 l 1,6,-1
 517 53 l 1,7,-1
 506 0 l 1,0,-1
EndSplineSet
EndChar
StartChar: braceleft
Encoding: 123 123 92
Width: 428
VWidth: 1507
Flags: W
HStem: -214 56<236.345 262.086 262.086 276.727 276.727 317> 745 55<451.844 522>
VStem: 83 449<268 800 238.086 252.727>
Fore
217 -101 m 2,0,1
 214 -118 214 -118 219.5 -128.5 c 128,-1,2
 225 -139 225 -139 236 -145.5 c 128,-1,3
 247 -152 247 -152 261.5 -155 c 128,-1,4
 276 -158 276 -158 292 -158 c 2,5,-1
 329 -158 l 1,6,-1
 317 -214 l 1,7,-1
 280 -214 l 2,8,9
 250 -214 250 -214 224.5 -208 c 128,-1,10
 199 -202 199 -202 181 -189 c 128,-1,11
 163 -176 163 -176 154.5 -156 c 128,-1,12
 146 -136 146 -136 154 -106 c 2,13,-1
 200 119 l 2,14,15
 207 145 207 145 196 171 c 128,-1,16
 185 197 185 197 166.5 219 c 128,-1,17
 148 241 148 241 124.5 254.5 c 128,-1,18
 101 268 101 268 83 268 c 1,19,20
 101 268 101 268 129.5 279.5 c 128,-1,21
 158 291 158 291 186 311.5 c 128,-1,22
 214 332 214 332 236 359.5 c 128,-1,23
 258 387 258 387 265 419 c 2,24,-1
 323 689 l 2,25,26
 329 719 329 719 345.5 740 c 128,-1,27
 362 761 362 761 385.5 774.5 c 128,-1,28
 409 788 409 788 437.5 794 c 128,-1,29
 466 800 466 800 496 800 c 2,30,-1
 532 800 l 1,31,-1
 522 745 l 1,32,-1
 485 745 l 2,33,34
 454 745 454 745 423 731.5 c 128,-1,35
 392 718 392 718 384 684 c 2,36,-1
 329 419 l 2,37,38
 321 387 321 387 305 361 c 128,-1,39
 289 335 289 335 271 315 c 128,-1,40
 253 295 253 295 235 283 c 128,-1,41
 217 271 217 271 203 268 c 1,42,43
 214 261 214 261 227 247.5 c 128,-1,44
 240 234 240 234 250.5 214 c 128,-1,45
 261 194 261 194 265.5 170 c 128,-1,46
 270 146 270 146 264 119 c 2,47,-1
 217 -101 l 2,0,1
EndSplineSet
EndChar
StartChar: bar
Encoding: 124 124 93
Width: 247
VWidth: 1507
Flags: W
VStem: 57 285<-151 867 -151 -151>
Fore
274 867 m 1,0,-1
 342 867 l 1,1,-1
 125 -151 l 1,2,-1
 57 -151 l 1,3,-1
 274 867 l 1,0,-1
EndSplineSet
EndChar
StartChar: braceright
Encoding: 125 125 94
Width: 428
VWidth: 1507
Flags: W
HStem: -214 56<29 97.7964> 745 55<232 312.733>
VStem: 17 438<-214 268 49.4398 403.519>
Fore
211 119 m 2,0,1
 217 146 217 146 232 170 c 128,-1,2
 247 194 247 194 265 214 c 128,-1,3
 283 234 283 234 302 247.5 c 128,-1,4
 321 261 321 261 335 268 c 1,5,6
 324 271 324 271 310.5 283 c 128,-1,7
 297 295 297 295 287 315 c 128,-1,8
 277 335 277 335 272.5 361 c 128,-1,9
 268 387 268 387 276 419 c 2,10,-1
 332 684 l 2,11,12
 338 718 338 718 313.5 731.5 c 128,-1,13
 289 745 289 745 258 745 c 2,14,-1
 222 745 l 1,15,-1
 232 800 l 1,16,-1
 268 800 l 2,17,18
 329 800 329 800 369 774.5 c 128,-1,19
 409 749 409 749 396 689 c 2,20,-1
 339 419 l 2,21,22
 332 387 332 387 342.5 359.5 c 128,-1,23
 353 332 353 332 371.5 311.5 c 128,-1,24
 390 291 390 291 413.5 279.5 c 128,-1,25
 437 268 437 268 455 268 c 1,26,27
 437 268 437 268 408.5 254.5 c 128,-1,28
 380 241 380 241 352 219 c 128,-1,29
 324 197 324 197 302 171 c 128,-1,30
 280 145 280 145 274 119 c 2,31,-1
 228 -106 l 2,32,33
 214 -166 214 -166 163.5 -190 c 128,-1,34
 113 -214 113 -214 53 -214 c 2,35,-1
 17 -214 l 1,36,-1
 29 -158 l 1,37,-1
 65 -158 l 2,38,39
 96 -158 96 -158 126.5 -146 c 128,-1,40
 157 -134 157 -134 164 -101 c 2,41,-1
 211 119 l 2,0,1
EndSplineSet
EndChar
StartChar: asciitilde
Encoding: 126 126 95
Width: 602
VWidth: 1507
Flags: W
HStem: 259 68<427.932 516.121> 386 68<243.788 320.234>
Fore
485 327 m 0,0,1
 517 327 517 327 549.5 359.5 c 128,-1,2
 582 392 582 392 600 443 c 1,3,-1
 654 443 l 1,4,5
 644 396 644 396 622 361.5 c 128,-1,6
 600 327 600 327 573 304.5 c 128,-1,7
 546 282 546 282 518.5 270.5 c 128,-1,8
 491 259 491 259 470 259 c 0,9,10
 421 259 421 259 395 278.5 c 128,-1,11
 369 298 369 298 352 322.5 c 128,-1,12
 335 347 335 347 319.5 366.5 c 128,-1,13
 304 386 304 386 276 386 c 0,14,15
 244 386 244 386 211 353.5 c 128,-1,16
 178 321 178 321 161 270 c 1,17,-1
 107 270 l 1,18,19
 116 317 116 317 138 351.5 c 128,-1,20
 160 386 160 386 187 408.5 c 128,-1,21
 214 431 214 431 241 442.5 c 128,-1,22
 268 454 268 454 289 454 c 0,23,24
 332 454 332 454 353.5 434.5 c 128,-1,25
 375 415 375 415 392 390.5 c 128,-1,26
 409 366 409 366 428.5 346.5 c 128,-1,27
 448 327 448 327 485 327 c 0,0,1
EndSplineSet
EndChar
StartChar: quotedbl
Encoding: 34 34 97
Width: 349
VWidth: 1507
Flags: W
HStem: 541 220<216 240 384 409 169 455 216 216>
Fore
216 761 m 1,0,-1
 286 761 l 1,1,-1
 240 541 l 1,2,-1
 169 541 l 1,3,-1
 216 761 l 1,0,-1
384 761 m 1,4,-1
 455 761 l 1,5,-1
 409 541 l 1,6,-1
 338 541 l 1,7,-1
 384 761 l 1,4,-1
EndSplineSet
EndChar
StartChar: exclam
Encoding: 33 33 98
Width: 272
VWidth: 1507
Flags: W
HStem: -8 106<121.563 179.406> 698 20G<254.776 327>
VStem: 98 105<21.735 45 45 82.0547>
Fore
259 718 m 1,0,-1
 327 718 l 1,1,-1
 210 164 l 1,2,-1
 142 164 l 1,3,-1
 259 718 l 1,0,-1
98 45 m 256,4,5
 93 23 93 23 104.5 7.5 c 128,-1,6
 116 -8 116 -8 139 -8 c 256,7,8
 161 -8 161 -8 180 7.5 c 128,-1,9
 199 23 199 23 203 45 c 256,10,11
 208 68 208 68 196 83 c 128,-1,12
 184 98 184 98 161 98 c 256,13,14
 139 98 139 98 121 83 c 128,-1,15
 103 68 103 68 98 45 c 256,4,5
EndSplineSet
EndChar
StartChar: cent
Encoding: 162 162 101
Width: 575
VWidth: 1507
Flags: W
HStem: 96 61<258.115 282 350 423.221> 562 61<461 516.202>
VStem: 136 471<205 463 259 273>
Fore
363 157 m 1,0,1
 412 164 412 164 451.5 199 c 128,-1,2
 491 234 491 234 503 286 c 1,3,-1
 571 286 l 1,4,5
 562 246 562 246 541 212.5 c 128,-1,6
 520 179 520 179 490.5 155 c 128,-1,7
 461 131 461 131 425 116 c 128,-1,8
 389 101 389 101 350 98 c 1,9,-1
 326 -21 l 1,10,-1
 258 -21 l 1,11,-1
 282 96 l 1,12,-1
 267 96 l 2,13,14
 232 96 232 96 204 110.5 c 128,-1,15
 176 125 176 125 159 149 c 128,-1,16
 142 173 142 173 136 205 c 128,-1,17
 130 237 130 237 137 271 c 2,18,-1
 167 412 l 2,19,20
 176 452 176 452 197.5 487.5 c 128,-1,21
 219 523 219 523 249.5 551.5 c 128,-1,22
 280 580 280 580 317 598.5 c 128,-1,23
 354 617 354 617 393 621 c 1,24,-1
 419 742 l 1,25,-1
 487 742 l 1,26,-1
 461 623 l 1,27,-1
 473 623 l 2,28,29
 544 623 544 623 583.5 578.5 c 128,-1,30
 623 534 623 534 607 463 c 1,31,-1
 540 463 l 1,32,33
 547 503 547 503 524.5 532.5 c 128,-1,34
 502 562 502 562 461 562 c 2,35,-1
 381 562 l 1,36,37
 356 558 356 558 332 543.5 c 128,-1,38
 308 529 308 529 288 508.5 c 128,-1,39
 268 488 268 488 254 462.5 c 128,-1,40
 240 437 240 437 235 412 c 2,41,-1
 205 271 l 2,42,43
 200 250 200 250 204 230 c 128,-1,44
 208 210 208 210 218 194 c 128,-1,45
 228 178 228 178 243.5 167.5 c 128,-1,46
 259 157 259 157 280 157 c 2,47,-1
 363 157 l 1,0,1
EndSplineSet
EndChar
StartChar: sterling
Encoding: 163 163 102
Width: 575
VWidth: 1507
Flags: W
HStem: 0 60<80 105.959 222 534> 315 68<145 279 348 531> 656 68<483.323 589.066>
VStem: 273 74<214.5 249.5 249.5 315>
Fore
347 315 m 1,0,-1
 339 194 l 1,1,2
 335 173 335 173 320.5 149 c 128,-1,3
 306 125 306 125 288.5 105.5 c 128,-1,4
 271 86 271 86 253 73 c 128,-1,5
 235 60 235 60 222 60 c 1,6,-1
 546 60 l 1,7,-1
 534 0 l 1,8,-1
 68 0 l 1,9,-1
 80 60 l 1,10,11
 101 60 101 60 132 71.5 c 128,-1,12
 163 83 163 83 191.5 102 c 128,-1,13
 220 121 220 121 242.5 145 c 128,-1,14
 265 169 265 169 271 196 c 0,15,16
 271 197 271 197 272 200 c 128,-1,17
 273 203 273 203 273 214.5 c 128,-1,18
 273 226 273 226 274.5 249.5 c 128,-1,19
 276 273 276 273 279 315 c 1,20,-1
 131 315 l 1,21,-1
 145 383 l 1,22,-1
 280 383 l 1,23,24
 282 407 282 407 283.5 423.5 c 128,-1,25
 285 440 285 440 286 447 c 0,26,-1
 290.5 474 l 0,27,28
 294 494 294 494 298 513 c 0,29,30
 308 555 308 555 332 593.5 c 128,-1,31
 356 632 356 632 390 661 c 128,-1,32
 424 690 424 690 464.5 707 c 128,-1,33
 505 724 505 724 547 724 c 0,34,35
 612 724 612 724 650 678 c 1,36,-1
 592 624 l 1,37,38
 582 638 582 638 567 647 c 128,-1,39
 552 656 552 656 532 656 c 0,40,41
 503 656 503 656 476 644.5 c 128,-1,42
 449 633 449 633 426.5 613.5 c 128,-1,43
 404 594 404 594 388 567.5 c 128,-1,44
 372 541 372 541 366 513 c 0,45,46
 353 455 353 455 348 383 c 1,47,-1
 544 383 l 1,48,-1
 531 315 l 1,49,-1
 347 315 l 1,0,-1
EndSplineSet
EndChar
StartChar: currency
Encoding: 164 164 103
Width: 732
VWidth: 1507
Flags: W
HStem: 66 65<310.104 475.578> 564 65<400.68 565.055>
Fore
181 175 m 1,0,1
 158 211 158 211 152 254.5 c 128,-1,2
 146 298 146 298 157 347 c 256,3,4
 167 395 167 395 191.5 440 c 128,-1,5
 216 485 216 485 255 522 c 1,6,-1
 208 583 l 1,7,-1
 262 630 l 1,8,-1
 311 567 l 1,9,10
 354 597 354 597 402.5 613 c 128,-1,11
 451 629 451 629 499 629 c 256,12,13
 547 629 547 629 588.5 613 c 128,-1,14
 630 597 630 597 660 567 c 1,15,-1
 739 630 l 1,16,-1
 773 583 l 1,17,-1
 698 522 l 1,18,19
 722 485 722 485 726 440 c 128,-1,20
 730 395 730 395 719 347 c 0,21,22
 710 300 710 300 686 255.5 c 128,-1,23
 662 211 662 211 624 175 c 1,24,-1
 672 112 l 1,25,-1
 618 66 l 1,26,-1
 568 131 l 1,27,28
 525 98 525 98 476 82 c 128,-1,29
 427 66 427 66 378 66 c 256,30,31
 330 66 330 66 288.5 81 c 128,-1,32
 247 96 247 96 219 131 c 1,33,-1
 143 66 l 1,34,-1
 107 112 l 1,35,-1
 181 175 l 1,0,1
484 564 m 0,36,37
 439 564 439 564 396 545 c 128,-1,38
 353 526 353 526 318 496 c 128,-1,39
 283 466 283 466 259 426.5 c 128,-1,40
 235 387 235 387 226 347 c 0,41,42
 217 303 217 303 225.5 264 c 128,-1,43
 234 225 234 225 256.5 195.5 c 128,-1,44
 279 166 279 166 313.5 148.5 c 128,-1,45
 348 131 348 131 392 131 c 256,46,47
 436 131 436 131 478 148.5 c 128,-1,48
 520 166 520 166 555.5 195.5 c 128,-1,49
 591 225 591 225 616 264 c 128,-1,50
 641 303 641 303 650 347 c 0,51,52
 659 389 659 389 650.5 429 c 128,-1,53
 642 469 642 469 619.5 498.5 c 128,-1,54
 597 528 597 528 562.5 546 c 128,-1,55
 528 564 528 564 484 564 c 0,36,37
EndSplineSet
EndChar
StartChar: yen
Encoding: 165 165 104
Width: 575
VWidth: 1507
Flags: W
HStem: 0 21G<243 315.122> 262 65<148 297 380 532> 696 20G<157 242.571 605.724 699>
Fore
297 262 m 1,0,-1
 133 262 l 1,1,-1
 148 327 l 1,2,-1
 312 327 l 1,3,-1
 318 357 l 1,4,-1
 157 716 l 1,5,-1
 234 716 l 1,6,-1
 363 415 l 1,7,-1
 623 716 l 1,8,-1
 699 716 l 1,9,-1
 386 357 l 1,10,-1
 380 327 l 1,11,-1
 547 327 l 1,12,-1
 532 262 l 1,13,-1
 365 262 l 1,14,-1
 311 0 l 1,15,-1
 243 0 l 1,16,-1
 297 262 l 1,0,-1
EndSplineSet
EndChar
StartChar: brokenbar
Encoding: 166 166 105
Width: 238
VWidth: 1507
Flags: W
VStem: 57 285<-151 867 -568.307 -151>
Fore
184 445 m 1,0,-1
 274 867 l 1,1,-1
 342 867 l 1,2,-1
 252 445 l 1,3,-1
 184 445 l 1,0,-1
223 309 m 1,4,-1
 125 -151 l 1,5,-1
 57 -151 l 1,6,-1
 155 309 l 1,7,-1
 223 309 l 1,4,-1
EndSplineSet
EndChar
StartChar: section
Encoding: 167 167 106
Width: 601
VWidth: 1507
Flags: W
HStem: -53 61<153.825 376.719> 684 61<395.952 581.095>
VStem: 65 68<65.2566 107>
Fore
220 595 m 0,0,1
 228 633 228 633 251 661 c 128,-1,2
 274 689 274 689 305 708 c 128,-1,3
 336 727 336 727 370 736 c 128,-1,4
 404 745 404 745 434 745 c 2,5,-1
 538 745 l 2,6,7
 609 745 609 745 647.5 700.5 c 128,-1,8
 686 656 686 656 671 585 c 1,9,-1
 603 585 l 1,10,11
 612 626 612 626 588.5 655 c 128,-1,12
 565 684 565 684 525 684 c 2,13,-1
 421 684 l 2,14,15
 407 684 407 684 386.5 679 c 128,-1,16
 366 674 366 674 346 662.5 c 128,-1,17
 326 651 326 651 310 634.5 c 128,-1,18
 294 618 294 618 289 597 c 0,19,20
 288 589 288 589 288 581 c 128,-1,21
 288 573 288 573 292.5 564.5 c 128,-1,22
 297 556 297 556 309 548 c 128,-1,23
 321 540 321 540 342 532 c 2,24,-1
 540 458 l 2,25,26
 574 445 574 445 594 428.5 c 128,-1,27
 614 412 614 412 623 393.5 c 128,-1,28
 632 375 632 375 632 356.5 c 128,-1,29
 632 338 632 338 629 320 c 0,30,31
 620 280 620 280 592.5 248.5 c 128,-1,32
 565 217 565 217 526 197 c 1,33,34
 550 173 550 173 554 147 c 128,-1,35
 558 121 558 121 552 96 c 0,36,37
 544 65 544 65 524.5 37 c 128,-1,38
 505 9 505 9 476.5 -10.5 c 128,-1,39
 448 -30 448 -30 412.5 -41.5 c 128,-1,40
 377 -53 377 -53 339 -53 c 2,41,-1
 197 -53 l 2,42,43
 163 -53 163 -53 134.5 -41 c 128,-1,44
 106 -29 106 -29 87.5 -7.5 c 128,-1,45
 69 14 69 14 63 43 c 128,-1,46
 57 72 57 72 65 107 c 1,47,-1
 133 107 l 1,48,49
 124 66 124 66 147 37 c 128,-1,50
 170 8 170 8 211 8 c 2,51,-1
 353 8 l 2,52,53
 366 8 366 8 386.5 14 c 128,-1,54
 407 20 407 20 427.5 31 c 128,-1,55
 448 42 448 42 463.5 58 c 128,-1,56
 479 74 479 74 484 95 c 0,57,58
 490 124 490 124 481 142.5 c 128,-1,59
 472 161 472 161 434 175 c 2,60,-1
 237 249 l 2,61,62
 202 261 202 261 181.5 275 c 128,-1,63
 161 289 161 289 152 305 c 128,-1,64
 143 321 143 321 141.5 337.5 c 128,-1,65
 140 354 140 354 145 372 c 0,66,67
 155 418 155 418 186 449.5 c 128,-1,68
 217 481 217 481 258 499 c 1,69,70
 228 520 228 520 222 545 c 128,-1,71
 216 570 216 570 220 595 c 0,0,1
559 318 m 0,72,73
 567 347 567 347 557 365.5 c 128,-1,74
 547 384 547 384 511 398 c 2,75,-1
 341 461 l 1,76,77
 326 461 326 461 305.5 455 c 128,-1,78
 285 449 285 449 266 438 c 128,-1,79
 247 427 247 427 232 411 c 128,-1,80
 217 395 217 395 213 374 c 0,81,82
 211 366 211 366 211 358 c 128,-1,83
 211 350 211 350 215.5 341.5 c 128,-1,84
 220 333 220 333 232 325 c 128,-1,85
 244 317 244 317 265 309 c 2,86,-1
 461 235 l 1,87,88
 491 244 491 244 521.5 265 c 128,-1,89
 552 286 552 286 559 318 c 0,72,73
EndSplineSet
EndChar
StartChar: dieresis
Encoding: 168 168 107
Width: 348
VWidth: 1507
Flags: W
HStem: 606 105<175.564 233.436 391.079 448.437>
VStem: 151 105<621.471 694.098> 366 106<640.078 699.778>
Fore
151 659 m 0,0,1
 157 681 157 681 175 696 c 128,-1,2
 193 711 193 711 216 711 c 256,3,4
 238 711 238 711 250 696 c 128,-1,5
 262 681 262 681 256 659 c 0,6,7
 252 636 252 636 234 621 c 128,-1,8
 216 606 216 606 193 606 c 256,9,10
 170 606 170 606 158 621 c 128,-1,11
 146 636 146 636 151 659 c 0,0,1
366 659 m 0,12,13
 372 681 372 681 390.5 696 c 128,-1,14
 409 711 409 711 431 711 c 256,15,16
 454 711 454 711 466 696 c 128,-1,17
 478 681 478 681 472 659 c 0,18,19
 467 636 467 636 449 621 c 128,-1,20
 431 606 431 606 409 606 c 256,21,22
 386 606 386 606 374 621 c 128,-1,23
 362 636 362 636 366 659 c 0,12,13
EndSplineSet
EndChar
StartChar: copyright
Encoding: 169 169 108
Width: 734
VWidth: 1507
Flags: W
HStem: 23 54<283.317 492.954> 178 50<342.914 489.537> 496 51<441.548 543.013> 638 54<395.045 600.074>
VStem: 529 54<250.039 312>
Fore
516 692 m 0,0,1
 583 692 583 692 636.5 664 c 128,-1,2
 690 636 690 636 725 590 c 128,-1,3
 760 544 760 544 772.5 483 c 128,-1,4
 785 422 785 422 772 356 c 0,5,6
 757 288 757 288 718.5 227.5 c 128,-1,7
 680 167 680 167 625.5 122 c 128,-1,8
 571 77 571 77 506.5 50 c 128,-1,9
 442 23 442 23 374 23 c 256,10,11
 306 23 306 23 251.5 50 c 128,-1,12
 197 77 197 77 162.5 122 c 128,-1,13
 128 167 128 167 115.5 227.5 c 128,-1,14
 103 288 103 288 118 356 c 0,15,16
 131 419 131 419 168 479.5 c 128,-1,17
 205 540 205 540 258.5 587.5 c 128,-1,18
 312 635 312 635 378.5 663.5 c 128,-1,19
 445 692 445 692 516 692 c 0,0,1
503 638 m 0,20,21
 443 638 443 638 388 613.5 c 128,-1,22
 333 589 333 589 288.5 549.5 c 128,-1,23
 244 510 244 510 212.5 459.5 c 128,-1,24
 181 409 181 409 170 356 c 0,25,26
 158 298 158 298 168.5 247.5 c 128,-1,27
 179 197 179 197 208 159.5 c 128,-1,28
 237 122 237 122 282 99.5 c 128,-1,29
 327 77 327 77 384 77 c 256,30,31
 442 77 442 77 497 99.5 c 128,-1,32
 552 122 552 122 597 159.5 c 128,-1,33
 642 197 642 197 674.5 247.5 c 128,-1,34
 707 298 707 298 719 356 c 0,35,36
 731 412 731 412 719.5 463 c 128,-1,37
 708 514 708 514 679 552.5 c 128,-1,38
 650 591 650 591 604.5 614.5 c 128,-1,39
 559 638 559 638 503 638 c 0,20,21
553 434 m 1,40,41
 559 460 559 460 543.5 478 c 128,-1,42
 528 496 528 496 502 496 c 2,43,-1
 461 496 l 2,44,45
 425 496 425 496 392 465 c 128,-1,46
 359 434 359 434 351 395 c 2,47,-1
 332 304 l 2,48,49
 326 277 326 277 341 252.5 c 128,-1,50
 356 228 356 228 381 228 c 2,51,-1
 422 228 l 2,52,53
 460 228 460 228 491 250.5 c 128,-1,54
 522 273 522 273 529 312 c 1,55,-1
 583 312 l 1,56,57
 571 250 571 250 521.5 214 c 128,-1,58
 472 178 472 178 412 178 c 2,59,-1
 369 178 l 2,60,61
 345 178 345 178 325.5 187.5 c 128,-1,62
 306 197 306 197 294 214.5 c 128,-1,63
 282 232 282 232 277.5 254 c 128,-1,64
 273 276 273 276 277 300 c 2,65,-1
 298 398 l 2,66,67
 304 428 304 428 321.5 455 c 128,-1,68
 339 482 339 482 362.5 502.5 c 128,-1,69
 386 523 386 523 414.5 535 c 128,-1,70
 443 547 443 547 473 547 c 2,71,-1
 516 547 l 2,72,73
 565 547 565 547 591.5 514.5 c 128,-1,74
 618 482 618 482 607 434 c 1,75,-1
 553 434 l 1,40,41
EndSplineSet
EndChar
StartChar: logicalnot
Encoding: 172 172 111
Width: 646
VWidth: 1507
Flags: W
HStem: 371 68<134 612>
Fore
562 140 m 1,0,-1
 612 371 l 1,1,-1
 121 371 l 1,2,-1
 134 439 l 1,3,-1
 693 439 l 1,4,-1
 630 140 l 1,5,-1
 562 140 l 1,0,-1
EndSplineSet
EndChar
StartChar: registered
Encoding: 174 174 112
Width: 553
VWidth: 1507
Flags: W
HStem: 255 39<264.109 422.156> 488 32<339 375.819 416 434.374> 586 32<353 452.78> 692 39<341.36 502.86>
VStem: 149 469<401 582 554.116 621.584>
Fore
434 731 m 0,0,1
 482 731 482 731 520.5 711.5 c 128,-1,2
 559 692 559 692 584 659 c 128,-1,3
 609 626 609 626 618 582 c 128,-1,4
 627 538 627 538 617 491 c 0,5,6
 606 443 606 443 579 401 c 128,-1,7
 552 359 552 359 512.5 325.5 c 128,-1,8
 473 292 473 292 426.5 273.5 c 128,-1,9
 380 255 380 255 332 255 c 256,10,11
 283 255 283 255 245.5 273.5 c 128,-1,12
 208 292 208 292 183 325.5 c 128,-1,13
 158 359 158 359 149 401 c 128,-1,14
 140 443 140 443 151 491 c 0,15,16
 160 537 160 537 187 580 c 128,-1,17
 214 623 214 623 251.5 656.5 c 128,-1,18
 289 690 289 690 336.5 710.5 c 128,-1,19
 384 731 384 731 434 731 c 0,0,1
425 692 m 0,20,21
 383 692 383 692 343.5 674.5 c 128,-1,22
 304 657 304 657 272.5 629 c 128,-1,23
 241 601 241 601 218.5 565 c 128,-1,24
 196 529 196 529 188 491 c 0,25,26
 179 451 179 451 187.5 415.5 c 128,-1,27
 196 380 196 380 216.5 353 c 128,-1,28
 237 326 237 326 268.5 310 c 128,-1,29
 300 294 300 294 341 294 c 256,30,31
 381 294 381 294 420.5 310 c 128,-1,32
 460 326 460 326 492.5 353 c 128,-1,33
 525 380 525 380 547.5 415.5 c 128,-1,34
 570 451 570 451 579 491 c 256,35,36
 588 532 588 532 579.5 568 c 128,-1,37
 571 604 571 604 551 631.5 c 128,-1,38
 531 659 531 659 498.5 675.5 c 128,-1,39
 466 692 466 692 425 692 c 0,20,21
321 618 m 1,40,-1
 449 618 l 2,41,42
 475 618 475 618 489 597.5 c 128,-1,43
 503 577 503 577 497 552 c 256,44,45
 491 526 491 526 469.5 508 c 128,-1,46
 448 490 448 490 422 490 c 2,47,-1
 416 490 l 1,48,49
 421 490 421 490 428 470 c 2,50,-1
 470 378 l 1,51,-1
 428 378 l 1,52,-1
 387 472 l 2,53,54
 384 478 384 478 378 483 c 128,-1,55
 372 488 372 488 362 488 c 2,56,-1
 332 488 l 1,57,-1
 309 378 l 1,58,-1
 270 378 l 1,59,-1
 321 618 l 1,40,-1
353 586 m 1,60,-1
 339 520 l 1,61,-1
 421 520 l 2,62,63
 433 520 433 520 443.5 530 c 128,-1,64
 454 540 454 540 457 552 c 256,65,66
 460 564 460 564 453 575 c 128,-1,67
 446 586 446 586 434 586 c 2,68,-1
 353 586 l 1,60,-1
EndSplineSet
EndChar
StartChar: macron
Encoding: 175 175 113
Width: 357
VWidth: 1507
Flags: W
HStem: 636 60<190 448 176 461 190 190>
Fore
176 636 m 1,0,-1
 190 696 l 1,1,-1
 461 696 l 1,2,-1
 448 636 l 1,3,-1
 176 636 l 1,0,-1
EndSplineSet
EndChar
StartChar: degree
Encoding: 176 176 114
Width: 325
VWidth: 1507
Flags: W
HStem: 484 45<221.133 315.956> 704 45<270.116 363.987>
VStem: 160 265<589 617 617 644 617 617 617 617>
Fore
160 617 m 0,0,1
 166 644 166 644 181.5 668 c 128,-1,2
 197 692 197 692 219 710 c 128,-1,3
 241 728 241 728 267.5 738.5 c 128,-1,4
 294 749 294 749 321 749 c 0,5,6
 377 749 377 749 407 710.5 c 128,-1,7
 437 672 437 672 425 617 c 0,8,9
 419 589 419 589 404 565 c 128,-1,10
 389 541 389 541 367 523 c 128,-1,11
 345 505 345 505 318.5 494.5 c 128,-1,12
 292 484 292 484 265 484 c 0,13,14
 210 484 210 484 179 522.5 c 128,-1,15
 148 561 148 561 160 617 c 0,0,1
205 617 m 256,16,17
 197 580 197 580 217.5 554.5 c 128,-1,18
 238 529 238 529 274 529 c 256,19,20
 311 529 311 529 341.5 554.5 c 128,-1,21
 372 580 372 580 380 617 c 256,22,23
 387 653 387 653 367.5 678.5 c 128,-1,24
 348 704 348 704 312 704 c 256,25,26
 276 704 276 704 244.5 678.5 c 128,-1,27
 213 653 213 653 205 617 c 256,16,17
EndSplineSet
EndChar
StartChar: plusminus
Encoding: 177 177 115
Width: 646
VWidth: 1507
Flags: W
HStem: 0 63<103 555> 336 63<175 362 439 626>
Fore
425 336 m 1,0,-1
 383 136 l 1,1,-1
 320 136 l 1,2,-1
 362 336 l 1,3,-1
 161 336 l 1,4,-1
 175 399 l 1,5,-1
 375 399 l 1,6,-1
 418 600 l 1,7,-1
 481 600 l 1,8,-1
 439 399 l 1,9,-1
 639 399 l 1,10,-1
 626 336 l 1,11,-1
 425 336 l 1,0,-1
555 0 m 1,12,-1
 90 0 l 1,13,-1
 103 63 l 1,14,-1
 567 63 l 1,15,-1
 555 0 l 1,12,-1
EndSplineSet
EndChar
StartChar: twosuperior
Encoding: 178 178 116
Width: 390
VWidth: 1507
Flags: W
HStem: 282 48<167 404> 689 47<281.391 406.526>
VStem: 101 366<282 609 282 282>
Fore
362 736 m 2,0,1
 427 736 427 736 453 702 c 128,-1,2
 479 668 479 668 467 609 c 0,3,4
 460 577 460 577 445 555.5 c 128,-1,5
 430 534 430 534 390 508 c 2,6,-1
 216 396 l 2,7,8
 196 383 196 383 184 364 c 128,-1,9
 172 345 172 345 167 330 c 1,10,-1
 415 330 l 1,11,-1
 404 282 l 1,12,-1
 101 282 l 1,13,-1
 112 329 l 2,14,15
 119 362 119 362 138 387.5 c 128,-1,16
 157 413 157 413 184 430 c 0,17,18
 231 461 231 461 283.5 495 c 128,-1,19
 336 529 336 529 381 559 c 0,20,21
 392 565 392 565 402 580 c 128,-1,22
 412 595 412 595 415 609 c 0,23,24
 422 647 422 647 407 668 c 128,-1,25
 392 689 392 689 354 689 c 2,26,-1
 339 689 l 2,27,28
 309 689 309 689 280.5 672.5 c 128,-1,29
 252 656 252 656 228 633 c 1,30,-1
 191 665 l 1,31,32
 225 698 225 698 265.5 717 c 128,-1,33
 306 736 306 736 348 736 c 2,34,-1
 362 736 l 2,0,1
EndSplineSet
EndChar
StartChar: threesuperior
Encoding: 179 179 117
Width: 369
VWidth: 1507
Flags: W
HStem: 279 48<185.757 318.094> 513 48<249 371.373> 687 49<260.906 390.18>
VStem: 96 355<359 609 359 359>
Fore
249 561 m 1,0,-1
 339 561 l 2,1,2
 360 562 360 562 376 575 c 128,-1,3
 392 588 392 588 396 609 c 0,4,5
 413 687 413 687 335 687 c 2,6,-1
 318 687 l 2,7,8
 289 687 289 687 260 671.5 c 128,-1,9
 231 656 231 656 208 633 c 1,10,-1
 173 663 l 1,11,12
 205 696 205 696 245.5 716 c 128,-1,13
 286 736 286 736 329 736 c 2,14,-1
 344 736 l 2,15,16
 409 736 409 736 436 701 c 128,-1,17
 463 666 463 666 451 609 c 0,18,19
 442 562 442 562 409 537 c 1,20,21
 430 520 430 520 435 493 c 128,-1,22
 440 466 440 466 434 436 c 0,23,24
 419 365 419 365 362.5 322 c 128,-1,25
 306 279 306 279 235 279 c 0,26,27
 182 279 182 279 151.5 299.5 c 128,-1,28
 121 320 121 320 96 359 c 1,29,-1
 143 393 l 1,30,31
 163 365 163 365 187 346 c 128,-1,32
 211 327 211 327 247 327 c 0,33,34
 292 327 292 327 332 358.5 c 128,-1,35
 372 390 372 390 383 436 c 0,36,37
 390 466 390 466 373 489.5 c 128,-1,38
 356 513 356 513 324 513 c 2,39,-1
 238 513 l 1,40,-1
 249 561 l 1,0,-1
EndSplineSet
EndChar
StartChar: acute
Encoding: 180 180 118
Width: 179
VWidth: 1507
Flags: W
HStem: 565 166<185 261 261 261>
Fore
261 731 m 1,0,-1
 332 731 l 1,1,-1
 185 565 l 1,2,-1
 115 565 l 1,3,-1
 261 731 l 1,0,-1
EndSplineSet
EndChar
StartChar: mu
Encoding: 181 181 119
Width: 544
VWidth: 1507
Flags: W
HStem: -187 21G<14 85.3602> -8 61<177.06 317.092> 491 20G<158.731 231 520.736 592>
Fore
14 -187 m 1,0,-1
 163 511 l 1,1,-1
 231 511 l 1,2,-1
 157 164 l 2,3,4
 148 124 148 124 167.5 88.5 c 128,-1,5
 187 53 187 53 228 53 c 2,6,-1
 288 53 l 2,7,8
 314 53 314 53 339.5 63.5 c 128,-1,9
 365 74 365 74 387 91.5 c 128,-1,10
 409 109 409 109 427 131.5 c 128,-1,11
 445 154 445 154 454 178 c 1,12,-1
 525 511 l 1,13,-1
 592 511 l 1,14,-1
 484 0 l 1,15,-1
 416 0 l 1,16,-1
 430 65 l 1,17,18
 402 35 402 35 358.5 13.5 c 128,-1,19
 315 -8 315 -8 274 -8 c 2,20,-1
 214 -8 l 2,21,22
 161 -8 161 -8 127 24 c 1,23,-1
 81 -187 l 1,24,-1
 14 -187 l 1,0,-1
EndSplineSet
EndChar
StartChar: paragraph
Encoding: 182 182 120
Width: 619
VWidth: 1507
Flags: W
HStem: 650 68<573 639>
Fore
722 718 m 1,0,-1
 556 -59 l 1,1,-1
 488 -59 l 1,2,-1
 639 650 l 1,3,-1
 573 650 l 1,4,-1
 422 -59 l 1,5,-1
 354 -59 l 1,6,-1
 427 283 l 1,7,-1
 292 283 l 2,8,9
 253 283 253 283 223 301.5 c 128,-1,10
 193 320 193 320 173.5 349 c 128,-1,11
 154 378 154 378 148 416.5 c 128,-1,12
 142 455 142 455 151 497 c 256,13,14
 160 540 160 540 182.5 579 c 128,-1,15
 205 618 205 618 236.5 648 c 128,-1,16
 268 678 268 678 306.5 697 c 128,-1,17
 345 716 345 716 384 716 c 2,18,-1
 722 718 l 1,0,-1
EndSplineSet
EndChar
StartChar: periodcentered
Encoding: 183 183 121
Width: 346
VWidth: 1507
Flags: W
HStem: 271 151<204.299 288.217>
VStem: 170 151<302.457 389.75>
Fore
170 347 m 256,0,1
 178 380 178 380 203.5 401 c 128,-1,2
 229 422 229 422 262 422 c 256,3,4
 295 422 295 422 312 401 c 128,-1,5
 329 380 329 380 321 347 c 256,6,7
 314 314 314 314 289 292.5 c 128,-1,8
 264 271 264 271 231 271 c 256,9,10
 197 271 197 271 180 292.5 c 128,-1,11
 163 314 163 314 170 347 c 256,0,1
EndSplineSet
EndChar
StartChar: cedilla
Encoding: 184 184 122
Width: 325
VWidth: 1507
Flags: W
HStem: -193 53<97.6735 152.655>
VStem: 36 190<-163.422 -140 -118 -106 -119 -106 -106 -106>
Fore
127 -140 m 2,0,1
 142 -140 142 -140 153 -137 c 128,-1,2
 164 -134 164 -134 167 -118 c 0,3,4
 169 -112 169 -112 163.5 -102 c 128,-1,5
 158 -92 158 -92 146 -84 c 0,6,7
 118 -63 118 -63 116.5 -45 c 128,-1,8
 115 -27 115 -27 118 -17 c 2,9,-1
 122 6 l 1,10,-1
 178 6 l 1,11,-1
 173 -17 l 1,12,13
 176 -35 176 -35 183 -42.5 c 128,-1,14
 190 -50 190 -50 200 -57 c 0,15,16
 214 -66 214 -66 222.5 -81 c 128,-1,17
 231 -96 231 -96 226 -119 c 0,18,19
 216 -163 216 -163 185 -178 c 128,-1,20
 154 -193 154 -193 115 -193 c 2,21,-1
 103 -193 l 2,22,23
 63 -190 63 -190 45 -169 c 128,-1,24
 27 -148 27 -148 36 -106 c 1,25,-1
 95 -106 l 1,26,27
 92 -121 92 -121 97.5 -130.5 c 128,-1,28
 103 -140 103 -140 115 -140 c 2,29,-1
 127 -140 l 2,0,1
EndSplineSet
EndChar
StartChar: onesuperior
Encoding: 185 185 123
Width: 325
VWidth: 1507
Flags: W
HStem: 573 47<202 233.844> 696 20G<313.5 371>
VStem: 191 180<573 716 626.026 690.477>
Fore
226 282 m 1,0,-1
 294 601 l 1,1,2
 271 585 271 585 246.5 579 c 128,-1,3
 222 573 222 573 191 573 c 1,4,-1
 202 620 l 1,5,6
 241 620 241 620 275 649 c 128,-1,7
 309 678 309 678 318 716 c 1,8,-1
 371 716 l 1,9,-1
 279 282 l 1,10,-1
 226 282 l 1,0,-1
EndSplineSet
EndChar
StartChar: onequarter
Encoding: 188 188 126
Width: 824
VWidth: 1507
Flags: W
HStem: 0 21G<646.138 696> 573 47<175 205.906> 696 20G<291 339.76>
Fore
696 0 m 1,0,-1
 715 87 l 1,1,-1
 767 87 l 1,2,-1
 778 136 l 1,3,-1
 725 136 l 1,4,-1
 788 434 l 1,5,-1
 737 434 l 1,6,-1
 466 133 l 1,7,8
 457 87 457 87 503 87 c 2,9,-1
 660 87 l 1,10,-1
 642 0 l 1,11,-1
 696 0 l 1,0,-1
671 136 m 1,12,-1
 534 136 l 1,13,-1
 713 339 l 1,14,-1
 671 136 l 1,12,-1
131 -26 m 1,15,-1
 681 739 l 1,16,-1
 748 739 l 1,17,-1
 200 -26 l 1,18,-1
 131 -26 l 1,15,-1
252 282 m 1,19,-1
 344 716 l 1,20,-1
 291 716 l 1,21,22
 282 678 282 678 248 649 c 128,-1,23
 214 620 214 620 175 620 c 1,24,-1
 164 573 l 1,25,26
 194 573 194 573 218.5 579 c 128,-1,27
 243 585 243 585 267 601 c 1,28,-1
 199 282 l 1,29,-1
 252 282 l 1,19,-1
EndSplineSet
Ligature2: "'frac' Diagonal Fractions in Latin lookup 0 subtable" one fraction four
Ligature2: "'frac' Diagonal Fractions in Latin lookup 0 subtable" one slash four
EndChar
StartChar: onehalf
Encoding: 189 189 127
Width: 824
VWidth: 1507
Flags: W
HStem: 0 47<540 770> 389 45<647.39 769.011> 573 47<175 205.906> 696 20G<291 339.76>
Fore
727 434 m 2,0,1
 790 434 790 434 815.5 401.5 c 128,-1,2
 841 369 841 369 829 314 c 0,3,4
 822 283 822 283 805 260.5 c 128,-1,5
 788 238 788 238 754 217 c 2,6,-1
 586 110 l 2,7,8
 565 96 565 96 554.5 78 c 128,-1,9
 544 60 544 60 540 47 c 1,10,-1
 779 47 l 1,11,-1
 770 0 l 1,12,-1
 478 0 l 1,13,-1
 487 45 l 2,14,15
 494 75 494 75 512.5 100 c 128,-1,16
 531 125 531 125 555 142 c 2,17,-1
 746 265 l 2,18,19
 757 271 757 271 766 285.5 c 128,-1,20
 775 300 775 300 778 314 c 0,21,22
 785 348 785 348 769.5 368.5 c 128,-1,23
 754 389 754 389 718 389 c 2,24,-1
 702 389 l 2,25,26
 675 389 675 389 646.5 373 c 128,-1,27
 618 357 618 357 597 336 c 1,28,-1
 564 366 l 1,29,30
 595 398 595 398 634.5 416 c 128,-1,31
 674 434 674 434 713 434 c 2,32,-1
 727 434 l 2,0,1
131 -26 m 1,33,-1
 681 739 l 1,34,-1
 748 739 l 1,35,-1
 200 -26 l 1,36,-1
 131 -26 l 1,33,-1
252 282 m 1,37,-1
 344 716 l 1,38,-1
 291 716 l 1,39,40
 282 678 282 678 248 649 c 128,-1,41
 214 620 214 620 175 620 c 1,42,-1
 164 573 l 1,43,44
 194 573 194 573 218.5 579 c 128,-1,45
 243 585 243 585 267 601 c 1,46,-1
 199 282 l 1,47,-1
 252 282 l 1,37,-1
EndSplineSet
Ligature2: "'frac' Diagonal Fractions in Latin lookup 0 subtable" one fraction two
Ligature2: "'frac' Diagonal Fractions in Latin lookup 0 subtable" one slash two
EndChar
StartChar: threequarters
Encoding: 190 190 128
Width: 824
VWidth: 1507
Flags: W
HStem: 0 21G<646.138 696> 277 49<203.155 336.781> 513 46<356 389.82> 687 49<279.906 338 363 409.458>
Fore
256 513 m 1,0,-1
 344 513 l 2,1,2
 375 513 375 513 392 488.5 c 128,-1,3
 409 464 409 464 402 434 c 0,4,5
 392 390 392 390 351.5 358 c 128,-1,6
 311 326 311 326 265 326 c 0,7,8
 228 326 228 326 204.5 344.5 c 128,-1,9
 181 363 181 363 163 392 c 1,10,-1
 116 357 l 1,11,12
 140 318 140 318 171 297.5 c 128,-1,13
 202 277 202 277 255 277 c 0,14,15
 326 277 326 277 382.5 320 c 128,-1,16
 439 363 439 363 454 434 c 0,17,18
 460 464 460 464 453 492 c 128,-1,19
 446 520 446 520 428 537 c 1,20,21
 460 564 460 564 469 609 c 0,22,23
 481 666 481 666 454.5 701 c 128,-1,24
 428 736 428 736 363 736 c 2,25,-1
 348 736 l 2,26,27
 306 736 306 736 265.5 716 c 128,-1,28
 225 696 225 696 191 663 c 1,29,-1
 228 633 l 1,30,31
 250 656 250 656 279 671.5 c 128,-1,32
 308 687 308 687 338 687 c 2,33,-1
 354 687 l 2,34,35
 433 687 433 687 416 609 c 0,36,37
 412 586 412 586 395 574 c 128,-1,38
 378 562 378 562 356 559 c 2,39,-1
 265 559 l 1,40,-1
 256 513 l 1,0,-1
696 0 m 1,41,-1
 715 87 l 1,42,-1
 767 87 l 1,43,-1
 778 136 l 1,44,-1
 725 136 l 1,45,-1
 788 434 l 1,46,-1
 737 434 l 1,47,-1
 466 133 l 1,48,49
 457 87 457 87 503 87 c 2,50,-1
 660 87 l 1,51,-1
 642 0 l 1,52,-1
 696 0 l 1,41,-1
671 136 m 1,53,-1
 534 136 l 1,54,-1
 713 339 l 1,55,-1
 671 136 l 1,53,-1
205 -26 m 1,56,-1
 755 739 l 1,57,-1
 822 739 l 1,58,-1
 274 -26 l 1,59,-1
 205 -26 l 1,56,-1
EndSplineSet
Ligature2: "'frac' Diagonal Fractions in Latin lookup 0 subtable" three fraction four
Ligature2: "'frac' Diagonal Fractions in Latin lookup 0 subtable" three slash four
EndChar
StartChar: Aring
Encoding: 197 197 134
Width: 798
VWidth: 1507
Flags: W
HStem: 0 21G<38 126 670.4 751> 200 61<280 614> 850 51<529.253 610.641>
VStem: 618 51<759.709 825.409>
Fore
494 699 m 1,0,1
 470 711 470 711 459.5 737 c 128,-1,2
 449 763 449 763 457 794 c 0,3,4
 466 838 466 838 503.5 869.5 c 128,-1,5
 541 901 541 901 586 901 c 0,6,7
 630 901 630 901 654 869.5 c 128,-1,8
 678 838 678 838 669 794 c 0,9,10
 662 760 662 760 635.5 732.5 c 128,-1,11
 609 705 609 705 576 695 c 1,12,13
 591 680 591 680 595 663 c 2,14,-1
 751 0 l 1,15,-1
 675 0 l 1,16,-1
 629 200 l 1,17,-1
 243 200 l 1,18,-1
 113 0 l 1,19,-1
 38 0 l 1,20,-1
 494 699 l 1,0,1
280 261 m 1,21,-1
 614 261 l 1,22,-1
 528 636 l 1,23,-1
 280 261 l 1,21,-1
508 794 m 0,24,25
 502 772 502 772 515 756 c 128,-1,26
 528 740 528 740 552 740 c 0,27,28
 573 740 573 740 592.5 756 c 128,-1,29
 612 772 612 772 618 794 c 0,30,31
 623 817 623 817 609 833.5 c 128,-1,32
 595 850 595 850 574 850 c 0,33,34
 550 850 550 850 531.5 833.5 c 128,-1,35
 513 817 513 817 508 794 c 0,24,25
EndSplineSet
EndChar
StartChar: AE
Encoding: 198 198 135
Width: 955
VWidth: 1507
Flags: W
HStem: 0 60<574 926> 200 61<268 503> 344 60<571 924> 656 60<567 927>
VStem: 499 68<404 633> 503 68<60 200 261 344 404 586.5>
Fore
496 718 m 1,0,1
 505 718 505 718 512 717 c 128,-1,2
 519 716 519 716 525 716 c 2,3,-1
 939 716 l 1,4,-1
 927 656 l 1,5,-1
 567 656 l 1,6,-1
 570 404 l 1,7,-1
 936 404 l 1,8,-1
 924 344 l 1,9,-1
 571 344 l 1,10,-1
 574 60 l 1,11,-1
 938 60 l 1,12,-1
 926 0 l 1,13,-1
 508 0 l 1,14,-1
 505 200 l 1,15,-1
 231 200 l 1,16,-1
 101 0 l 1,17,-1
 26 0 l 1,18,-1
 496 718 l 1,0,1
268 261 m 1,19,-1
 503 261 l 1,20,-1
 499 633 l 1,21,-1
 268 261 l 1,19,-1
EndSplineSet
EndChar
StartChar: Ccedilla
Encoding: 199 199 136
Width: 694
VWidth: 1507
Flags: W
HStem: -193 53<300.673 356.14> -15 60<232.846 321 377 463.656> 671 60<390.375 621.123>
VStem: 639 68<168.617 255> 689 68<502 534.031 534.031 547.881 547.881 566 566 619.024>
Fore
689 502 m 1,0,1
 696 535 696 535 690 566 c 128,-1,2
 684 597 684 597 667 620.5 c 128,-1,3
 650 644 650 644 622 657.5 c 128,-1,4
 594 671 594 671 559 671 c 2,5,-1
 478 671 l 2,6,7
 433 671 433 671 389 650.5 c 128,-1,8
 345 630 345 630 309 597 c 128,-1,9
 273 564 273 564 246.5 520 c 128,-1,10
 220 476 220 476 210 431 c 2,11,-1
 167 234 l 2,12,13
 160 199 160 199 166 165 c 128,-1,14
 172 131 172 131 188.5 104.5 c 128,-1,15
 205 78 205 78 232 61.5 c 128,-1,16
 259 45 259 45 294 45 c 2,17,-1
 378 45 l 2,18,19
 422 45 422 45 465 61 c 128,-1,20
 508 77 508 77 543.5 105.5 c 128,-1,21
 579 134 579 134 604.5 172.5 c 128,-1,22
 630 211 630 211 639 255 c 1,23,-1
 707 255 l 1,24,25
 695 196 695 196 662.5 147.5 c 128,-1,26
 630 99 630 99 585.5 64 c 128,-1,27
 541 29 541 29 487 7.5 c 128,-1,28
 433 -14 433 -14 377 -15 c 1,29,-1
 377 -17 l 1,30,31
 380 -35 380 -35 386.5 -42.5 c 128,-1,32
 393 -50 393 -50 404 -57 c 0,33,34
 418 -66 418 -66 426 -81 c 128,-1,35
 434 -96 434 -96 430 -119 c 0,36,37
 419 -163 419 -163 388 -178 c 128,-1,38
 357 -193 357 -193 318 -193 c 2,39,-1
 306 -193 l 2,40,41
 267 -190 267 -190 249 -169 c 128,-1,42
 231 -148 231 -148 240 -106 c 1,43,-1
 298 -106 l 1,44,45
 295 -121 295 -121 300.5 -130.5 c 128,-1,46
 306 -140 306 -140 318 -140 c 2,47,-1
 330 -140 l 2,48,49
 345 -140 345 -140 356.5 -137 c 128,-1,50
 368 -134 368 -134 371 -118 c 0,51,52
 372 -112 372 -112 367 -102 c 128,-1,53
 362 -92 362 -92 350 -84 c 0,54,55
 321 -63 321 -63 319.5 -45 c 128,-1,56
 318 -27 318 -27 321 -17 c 1,57,-1
 321 -15 l 1,58,-1
 280 -15 l 2,59,60
 232 -15 232 -15 193.5 5.5 c 128,-1,61
 155 26 155 26 131 60.5 c 128,-1,62
 107 95 107 95 98 140 c 128,-1,63
 89 185 89 185 99 234 c 2,64,-1
 142 431 l 2,65,66
 155 491 155 491 189 545.5 c 128,-1,67
 223 600 223 600 270.5 641.5 c 128,-1,68
 318 683 318 683 375.5 707 c 128,-1,69
 433 731 433 731 491 731 c 2,70,-1
 573 731 l 2,71,72
 623 731 623 731 661 713.5 c 128,-1,73
 699 696 699 696 724 665.5 c 128,-1,74
 749 635 749 635 758 593.5 c 128,-1,75
 767 552 767 552 757 502 c 1,76,-1
 689 502 l 1,0,1
EndSplineSet
EndChar
StartChar: Eth
Encoding: 208 208 145
Width: 803
VWidth: 1507
Flags: W
HStem: 0 60<214 549.656> 335 63<151 205 286 526> 656 60<341 702.124>
Fore
286 398 m 1,0,-1
 540 398 l 1,1,-1
 526 335 l 1,2,-1
 273 335 l 1,3,-1
 214 60 l 1,4,-1
 464 60 l 2,5,6
 508 60 508 60 551 78 c 128,-1,7
 594 96 594 96 630 127 c 128,-1,8
 666 158 666 158 692.5 199 c 128,-1,9
 719 240 719 240 730 286 c 2,10,-1
 770 481 l 2,11,12
 778 516 778 516 772 547.5 c 128,-1,13
 766 579 766 579 748.5 603 c 128,-1,14
 731 627 731 627 703 641.5 c 128,-1,15
 675 656 675 656 641 656 c 2,16,-1
 341 656 l 1,17,-1
 286 398 l 1,0,-1
205 335 m 1,18,-1
 137 335 l 1,19,-1
 151 398 l 1,20,-1
 219 398 l 1,21,-1
 285 716 l 1,22,-1
 653 716 l 2,23,24
 702 716 702 716 741.5 698 c 128,-1,25
 781 680 781 680 806 648.5 c 128,-1,26
 831 617 831 617 840 574 c 128,-1,27
 849 531 849 531 838 481 c 2,28,-1
 797 286 l 2,29,30
 784 226 784 226 751 173.5 c 128,-1,31
 718 121 718 121 670.5 82.5 c 128,-1,32
 623 44 623 44 567 22 c 128,-1,33
 511 0 511 0 452 0 c 2,34,-1
 197 0 l 2,35,36
 172 0 172 0 157 20.5 c 128,-1,37
 142 41 142 41 148 66 c 2,38,-1
 205 335 l 1,18,-1
EndSplineSet
EndChar
StartChar: multiply
Encoding: 215 215 152
Width: 646
VWidth: 1507
Flags: W
HStem: 128 409<277 513 277 277>
VStem: 157 476<172 493 172 172>
Fore
439 333 m 1,0,1
 445 326 445 326 456 311.5 c 128,-1,2
 467 297 467 297 481.5 279 c 128,-1,3
 496 261 496 261 511 241.5 c 128,-1,4
 526 222 526 222 538 207 c 0,5,6
 544 199 544 199 551 189 c 128,-1,7
 558 179 558 179 565 172 c 1,8,-1
 513 128 l 1,9,-1
 384 289 l 1,10,-1
 191 128 l 1,11,-1
 161 163 l 1,12,-1
 157 172 l 1,13,-1
 350 333 l 1,14,15
 341 342 341 342 323.5 364 c 128,-1,16
 306 386 306 386 287 411 c 128,-1,17
 268 436 268 436 251 458.5 c 128,-1,18
 234 481 234 481 225 493 c 1,19,-1
 277 537 l 1,20,-1
 404 377 l 1,21,-1
 598 537 l 1,22,-1
 626 500 l 1,23,-1
 633 493 l 1,24,-1
 439 333 l 1,0,1
EndSplineSet
EndChar
StartChar: Oslash
Encoding: 216 216 153
Width: 717
VWidth: 1507
Flags: W
HStem: -15 60<226.404 466.141> 671 60<393.375 591.831>
Fore
54 -26 m 1,0,-1
 131 62 l 1,1,2
 107 96 107 96 99.5 141.5 c 128,-1,3
 92 187 92 187 103 235 c 2,4,-1
 143 430 l 2,5,6
 157 490 157 490 191 545 c 128,-1,7
 225 600 225 600 273 641.5 c 128,-1,8
 321 683 321 683 378.5 707 c 128,-1,9
 436 731 436 731 494 731 c 2,10,-1
 576 731 l 2,11,12
 644 731 644 731 695 689 c 1,13,-1
 739 739 l 1,14,-1
 805 739 l 1,15,-1
 728 653 l 1,16,17
 751 618 751 618 759 573.5 c 128,-1,18
 767 529 767 529 757 481 c 2,19,-1
 716 286 l 2,20,21
 702 226 702 226 668.5 171 c 128,-1,22
 635 116 635 116 586.5 74.5 c 128,-1,23
 538 33 538 33 481.5 9 c 128,-1,24
 425 -15 425 -15 366 -15 c 2,25,-1
 283 -15 l 2,26,27
 249 -15 249 -15 220 -4.5 c 128,-1,28
 191 6 191 6 167 24 c 1,29,-1
 122 -26 l 1,30,-1
 54 -26 l 1,0,-1
170 235 m 2,31,32
 157 172 157 172 182 119 c 1,33,-1
 647 636 l 1,34,35
 630 653 630 653 609 662 c 128,-1,36
 588 671 588 671 562 671 c 2,37,-1
 481 671 l 2,38,39
 436 671 436 671 392 650.5 c 128,-1,40
 348 630 348 630 311 596 c 128,-1,41
 274 562 274 562 248 519 c 128,-1,42
 222 476 222 476 211 430 c 2,43,-1
 170 235 l 2,31,32
689 481 m 2,44,45
 696 511 696 511 692.5 540.5 c 128,-1,46
 689 570 689 570 675 595 c 1,47,-1
 213 77 l 1,48,49
 249 45 249 45 297 45 c 2,50,-1
 380 45 l 2,51,52
 424 45 424 45 467.5 65.5 c 128,-1,53
 511 86 511 86 548 120 c 128,-1,54
 585 154 585 154 611.5 197 c 128,-1,55
 638 240 638 240 648 286 c 2,56,-1
 689 481 l 2,44,45
EndSplineSet
EndChar
StartChar: Thorn
Encoding: 222 222 159
Width: 595
VWidth: 1507
Flags: W
HStem: 0 21G<90 162.192> 167 61<207 349.276> 528 60<282 443.769>
Fore
416 588 m 2,0,1
 466 588 466 588 507.5 575 c 128,-1,2
 549 562 549 562 576.5 537.5 c 128,-1,3
 604 513 604 513 616.5 476 c 128,-1,4
 629 439 629 439 618 389 c 0,5,6
 606 329 606 329 574.5 286.5 c 128,-1,7
 543 244 543 244 499 217.5 c 128,-1,8
 455 191 455 191 401 179 c 128,-1,9
 347 167 347 167 288 167 c 2,10,-1
 193 167 l 1,11,-1
 158 0 l 1,12,-1
 90 0 l 1,13,-1
 246 733 l 1,14,-1
 314 733 l 1,15,-1
 282 588 l 1,16,-1
 416 588 l 2,0,1
207 228 m 1,17,-1
 301 228 l 2,18,19
 345 228 345 228 386 235.5 c 128,-1,20
 427 243 427 243 460 261.5 c 128,-1,21
 493 280 493 280 517 311 c 128,-1,22
 541 342 541 342 550 389 c 0,23,24
 558 424 558 424 548 450 c 128,-1,25
 538 476 538 476 516 493.5 c 128,-1,26
 494 511 494 511 465 519.5 c 128,-1,27
 436 528 436 528 404 528 c 2,28,-1
 270 528 l 1,29,-1
 207 228 l 1,17,-1
EndSplineSet
EndChar
StartChar: uni00DF
Encoding: 223 223 160
Width: 605
VWidth: 1507
Flags: W
HStem: -190 21G<26 97.2433> -14 68<303.241 421.91> 668 60<382.625 492.426>
Fore
26 -190 m 1,0,-1
 175 517 l 2,1,2
 184 559 184 559 209 597.5 c 128,-1,3
 234 636 234 636 267.5 665.5 c 128,-1,4
 301 695 301 695 341 711.5 c 128,-1,5
 381 728 381 728 424 728 c 2,6,-1
 484 728 l 2,7,8
 519 728 519 728 546.5 713.5 c 128,-1,9
 574 699 574 699 591.5 675 c 128,-1,10
 609 651 609 651 616 619.5 c 128,-1,11
 623 588 623 588 615 553 c 2,12,-1
 600 484 l 1,13,14
 556 469 556 469 516 446.5 c 128,-1,15
 476 424 476 424 469 393 c 0,16,17
 466 377 466 377 468 364 c 128,-1,18
 470 351 470 351 476 340.5 c 128,-1,19
 482 330 482 330 492.5 319.5 c 128,-1,20
 503 309 503 309 516 295 c 0,21,22
 529 277 529 277 543.5 264.5 c 128,-1,23
 558 252 558 252 568.5 238.5 c 128,-1,24
 579 225 579 225 582.5 206 c 128,-1,25
 586 187 586 187 580 157 c 0,26,27
 573 122 573 122 554 91 c 128,-1,28
 535 60 535 60 506.5 37 c 128,-1,29
 478 14 478 14 441 0 c 128,-1,30
 404 -14 404 -14 359 -14 c 0,31,32
 326 -14 326 -14 286.5 -2.5 c 128,-1,33
 247 9 247 9 222 26 c 1,34,-1
 265 87 l 1,35,36
 320 54 320 54 372 54 c 0,37,38
 399 54 399 54 423.5 63 c 128,-1,39
 448 72 448 72 466 85.5 c 128,-1,40
 484 99 484 99 495 116.5 c 128,-1,41
 506 134 506 134 511 152 c 0,42,43
 516 172 516 172 513.5 184 c 128,-1,44
 511 196 511 196 503.5 206 c 128,-1,45
 496 216 496 216 484.5 225 c 128,-1,46
 473 234 473 234 458 250 c 0,47,48
 421 289 421 289 407 321.5 c 128,-1,49
 393 354 393 354 401 393 c 0,50,51
 410 434 410 434 448.5 467 c 128,-1,52
 487 500 487 500 541 526 c 1,53,-1
 547 553 l 2,54,55
 552 573 552 573 548 594 c 128,-1,56
 544 615 544 615 533.5 631 c 128,-1,57
 523 647 523 647 507 657.5 c 128,-1,58
 491 668 491 668 472 668 c 2,59,-1
 412 668 l 2,60,61
 383 668 383 668 356 655 c 128,-1,62
 329 642 329 642 305.5 621 c 128,-1,63
 282 600 282 600 265.5 573 c 128,-1,64
 249 546 249 546 243 517 c 2,65,-1
 93 -190 l 1,66,-1
 26 -190 l 1,0,-1
EndSplineSet
EndChar
StartChar: ae
Encoding: 230 230 167
Width: 905
VWidth: 1507
Flags: W
HStem: -6 60<171.6 308.393 574.957 688.834> 267 53<289.077 475 555 850> 460 60<295.307 437.454 687.008 801.043>
Fore
208 478 m 1,0,1
 271 520 271 520 338 520 c 2,2,-1
 430 520 l 2,3,4
 473 520 473 520 505.5 495 c 128,-1,5
 538 470 538 470 553 434 c 1,6,7
 589 472 589 472 636 495.5 c 128,-1,8
 683 519 683 519 733 519 c 2,9,-1
 793 519 l 2,10,11
 828 519 828 519 855.5 504.5 c 128,-1,12
 883 490 883 490 900.5 466 c 128,-1,13
 918 442 918 442 924 410 c 128,-1,14
 930 378 930 378 923 344 c 2,15,-1
 906 267 l 1,16,-1
 543 267 l 1,17,-1
 534 220 l 1,18,-1
 531 211 l 1,19,-1
 522 167 l 2,20,21
 517 148 517 148 521 127.5 c 128,-1,22
 525 107 525 107 534.5 90.5 c 128,-1,23
 544 74 544 74 560 63.5 c 128,-1,24
 576 53 576 53 597 53 c 2,25,-1
 657 53 l 2,26,27
 686 53 686 53 712.5 63.5 c 128,-1,28
 739 74 739 74 761.5 92 c 128,-1,29
 784 110 784 110 800 135 c 128,-1,30
 816 160 816 160 822 188 c 1,31,-1
 889 188 l 1,32,33
 880 146 880 146 856 110 c 128,-1,34
 832 74 832 74 799 48.5 c 128,-1,35
 766 23 766 23 725 7.5 c 128,-1,36
 684 -8 684 -8 644 -8 c 2,37,-1
 583 -8 l 2,38,39
 535 -8 535 -8 502 18.5 c 128,-1,40
 469 45 469 45 457 86 c 1,41,42
 418 45 418 45 367.5 19.5 c 128,-1,43
 317 -6 317 -6 267 -6 c 2,44,-1
 207 -6 l 2,45,46
 143 -6 143 -6 108.5 36 c 128,-1,47
 74 78 74 78 86 142 c 0,48,49
 95 181 95 181 120 214 c 128,-1,50
 145 247 145 247 179 270.5 c 128,-1,51
 213 294 213 294 252 307 c 128,-1,52
 291 320 291 320 327 320 c 2,53,-1
 487 320 l 1,54,-1
 493 353 l 2,55,56
 494 371 494 371 490.5 390 c 128,-1,57
 487 409 487 409 476.5 424.5 c 128,-1,58
 466 440 466 440 451 450 c 128,-1,59
 436 460 436 460 416 460 c 2,60,-1
 324 460 l 2,61,62
 300 460 300 460 277.5 451 c 128,-1,63
 255 442 255 442 234 425 c 1,64,-1
 208 478 l 1,0,1
315 267 m 2,65,66
 292 267 292 267 266 256.5 c 128,-1,67
 240 246 240 246 217 229.5 c 128,-1,68
 194 213 194 213 177.5 191 c 128,-1,69
 161 169 161 169 155 145 c 0,70,71
 148 110 148 110 165 82 c 128,-1,72
 182 54 182 54 219 54 c 2,73,-1
 279 54 l 2,74,75
 306 54 306 54 335.5 66 c 128,-1,76
 365 78 365 78 390 98.5 c 128,-1,77
 415 119 415 119 434.5 145.5 c 128,-1,78
 454 172 454 172 461 199 c 2,79,-1
 475 267 l 1,80,-1
 315 267 l 2,65,66
719 458 m 2,81,82
 690 458 690 458 663 447 c 128,-1,83
 636 436 636 436 614 417 c 128,-1,84
 592 398 592 398 576.5 373 c 128,-1,85
 561 348 561 348 555 320 c 1,86,-1
 850 320 l 1,87,-1
 855 344 l 2,88,89
 859 363 859 363 855.5 383.5 c 128,-1,90
 852 404 852 404 842 420.5 c 128,-1,91
 832 437 832 437 816 447.5 c 128,-1,92
 800 458 800 458 779 458 c 2,93,-1
 719 458 l 2,81,82
EndSplineSet
EndChar
StartChar: ccedilla
Encoding: 231 231 168
Width: 526
VWidth: 1507
Flags: W
HStem: -193 53<213.673 268.655> -8 61<203.957 235 291 319.556> 458 61<319.258 463.546>
VStem: 81 472<101 359 166 194.556>
Fore
243 -140 m 2,0,1
 258 -140 258 -140 269 -137 c 128,-1,2
 280 -134 280 -134 283 -118 c 0,3,4
 285 -112 285 -112 279.5 -102 c 128,-1,5
 274 -92 274 -92 262 -84 c 0,6,7
 234 -63 234 -63 232.5 -45 c 128,-1,8
 231 -27 231 -27 234 -17 c 2,9,-1
 235 -8 l 1,10,-1
 213 -8 l 2,11,12
 178 -8 178 -8 150 6.5 c 128,-1,13
 122 21 122 21 104.5 45 c 128,-1,14
 87 69 87 69 81 101 c 128,-1,15
 75 133 75 133 83 167 c 2,16,-1
 113 308 l 2,17,18
 122 350 122 350 146 388.5 c 128,-1,19
 170 427 170 427 204 456 c 128,-1,20
 238 485 238 485 279 502 c 128,-1,21
 320 519 320 519 362 519 c 2,22,-1
 421 519 l 2,23,24
 491 519 491 519 529.5 474.5 c 128,-1,25
 568 430 568 430 553 359 c 1,26,-1
 485 359 l 1,27,28
 494 399 494 399 471 428.5 c 128,-1,29
 448 458 448 458 407 458 c 2,30,-1
 348 458 l 2,31,32
 320 458 320 458 292.5 445.5 c 128,-1,33
 265 433 265 433 242.5 411.5 c 128,-1,34
 220 390 220 390 203.5 363 c 128,-1,35
 187 336 187 336 181 308 c 2,36,-1
 151 167 l 2,37,38
 146 146 146 146 150 126 c 128,-1,39
 154 106 154 106 163.5 90 c 128,-1,40
 173 74 173 74 189 63.5 c 128,-1,41
 205 53 205 53 226 53 c 2,42,-1
 286 53 l 2,43,44
 315 53 315 53 341.5 62.5 c 128,-1,45
 368 72 368 72 390 89 c 128,-1,46
 412 106 412 106 427.5 130 c 128,-1,47
 443 154 443 154 449 182 c 1,48,-1
 517 182 l 1,49,50
 508 142 508 142 487 108.5 c 128,-1,51
 466 75 466 75 435 50.5 c 128,-1,52
 404 26 404 26 367 11.5 c 128,-1,53
 330 -3 330 -3 291 -6 c 1,54,-1
 289 -17 l 1,55,56
 292 -35 292 -35 299 -42.5 c 128,-1,57
 306 -50 306 -50 317 -57 c 0,58,59
 330 -66 330 -66 338.5 -81 c 128,-1,60
 347 -96 347 -96 342 -119 c 0,61,62
 332 -163 332 -163 301 -178 c 128,-1,63
 270 -193 270 -193 231 -193 c 2,64,-1
 219 -193 l 2,65,66
 179 -190 179 -190 161 -169 c 128,-1,67
 143 -148 143 -148 152 -106 c 1,68,-1
 211 -106 l 1,69,70
 208 -121 208 -121 213.5 -130.5 c 128,-1,71
 219 -140 219 -140 231 -140 c 2,72,-1
 243 -140 l 2,0,1
EndSplineSet
EndChar
StartChar: eth
Encoding: 240 240 177
Width: 627
VWidth: 1507
Flags: W
HStem: -14 56<234.519 406.326> 481 56<319.645 495.873>
Fore
633 276 m 0,0,1
 617 200 617 200 582 145 c 128,-1,2
 547 90 547 90 501 55 c 128,-1,3
 455 20 455 20 403 3 c 128,-1,4
 351 -14 351 -14 301 -14 c 0,5,6
 244 -14 244 -14 200.5 6.5 c 128,-1,7
 157 27 157 27 130.5 63 c 128,-1,8
 104 99 104 99 95 148 c 128,-1,9
 86 197 86 197 98 255 c 0,10,11
 112 320 112 320 145.5 372 c 128,-1,12
 179 424 179 424 224.5 460.5 c 128,-1,13
 270 497 270 497 321 517 c 128,-1,14
 372 537 372 537 422 537 c 0,15,16
 461 537 461 537 498 526.5 c 128,-1,17
 535 516 535 516 567 487 c 1,18,19
 549 531 549 531 520 569 c 128,-1,20
 491 607 491 607 454 642 c 1,21,22
 405 621 405 621 358.5 600.5 c 128,-1,23
 312 580 312 580 265 562 c 1,24,-1
 255 612 l 1,25,-1
 409 677 l 1,26,27
 386 693 386 693 356 708.5 c 128,-1,28
 326 724 326 724 295 736 c 1,29,-1
 335 791 l 1,30,31
 374 773 374 773 409.5 753.5 c 128,-1,32
 445 734 445 734 475 707 c 1,33,34
 514 724 514 724 554.5 741 c 128,-1,35
 595 758 595 758 633 776 c 1,36,-1
 647 724 l 1,37,-1
 517 671 l 1,38,39
 520 669 520 669 520 667.5 c 128,-1,40
 520 666 520 666 522 665 c 0,41,42
 595 589 595 589 627.5 494 c 128,-1,43
 660 399 660 399 633 276 c 0,0,1
565 268 m 0,44,45
 576 323 576 323 572 360.5 c 128,-1,46
 568 398 568 398 549.5 423 c 128,-1,47
 531 448 531 448 496 460.5 c 128,-1,48
 461 473 461 473 410 481 c 1,49,50
 357 481 357 481 314 460.5 c 128,-1,51
 271 440 271 440 239.5 407.5 c 128,-1,52
 208 375 208 375 187.5 335 c 128,-1,53
 167 295 167 295 160 256 c 0,54,55
 148 203 148 203 157 163.5 c 128,-1,56
 166 124 166 124 188 96.5 c 128,-1,57
 210 69 210 69 242 55.5 c 128,-1,58
 274 42 274 42 311 42 c 0,59,60
 398 42 398 42 469.5 98.5 c 128,-1,61
 541 155 541 155 565 268 c 0,44,45
EndSplineSet
EndChar
StartChar: divide
Encoding: 247 247 184
Width: 646
VWidth: 1507
Flags: W
HStem: 124 105<303.564 361.436> 300 63<133 583> 425 106<366.564 425.405>
VStem: 279 105<139.47 212.094> 344 105<440.945 515.014>
Fore
119 300 m 1,0,-1
 133 363 l 1,1,-1
 597 363 l 1,2,-1
 583 300 l 1,3,-1
 119 300 l 1,0,-1
344 478 m 256,4,5
 348 500 348 500 366 515.5 c 128,-1,6
 384 531 384 531 407 531 c 256,7,8
 430 531 430 531 442 515.5 c 128,-1,9
 454 500 454 500 449 478 c 256,10,11
 445 455 445 455 426 440 c 128,-1,12
 407 425 407 425 384 425 c 256,13,14
 362 425 362 425 350.5 440 c 128,-1,15
 339 455 339 455 344 478 c 256,4,5
279 176 m 0,16,17
 285 199 285 199 303 214 c 128,-1,18
 321 229 321 229 344 229 c 256,19,20
 366 229 366 229 378 214 c 128,-1,21
 390 199 390 199 384 176 c 0,22,23
 380 154 380 154 362 139 c 128,-1,24
 344 124 344 124 321 124 c 256,25,26
 298 124 298 124 286 139 c 128,-1,27
 274 154 274 154 279 176 c 0,16,17
EndSplineSet
EndChar
StartChar: oslash
Encoding: 248 248 185
Width: 541
VWidth: 1507
Flags: W
HStem: -8 61<189.147 321.375> 458 61<325.258 456.95>
Fore
33 -26 m 1,0,-1
 106 54 l 1,1,2
 75 101 75 101 89 167 c 2,3,-1
 119 308 l 2,4,5
 128 350 128 350 152 388.5 c 128,-1,6
 176 427 176 427 210 456 c 128,-1,7
 244 485 244 485 285 502 c 128,-1,8
 326 519 326 519 368 519 c 2,9,-1
 428 519 l 2,10,11
 472 519 472 519 505 494 c 1,12,-1
 544 537 l 1,13,-1
 612 537 l 1,14,-1
 540 457 l 1,15,16
 571 409 571 409 558 344 c 2,17,-1
 528 203 l 2,18,19
 519 160 519 160 494.5 122 c 128,-1,20
 470 84 470 84 436 55 c 128,-1,21
 402 26 402 26 361.5 9 c 128,-1,22
 321 -8 321 -8 279 -8 c 2,23,-1
 219 -8 l 2,24,25
 173 -8 173 -8 142 15 c 1,26,-1
 104 -26 l 1,27,-1
 33 -26 l 1,0,-1
490 344 m 2,28,29
 493 357 493 357 491.5 371.5 c 128,-1,30
 490 386 490 386 487 398 c 1,31,-1
 188 68 l 1,32,33
 205 53 205 53 232 53 c 2,34,-1
 292 53 l 2,35,36
 321 53 321 53 348 65.5 c 128,-1,37
 375 78 375 78 398 99.5 c 128,-1,38
 421 121 421 121 437.5 148 c 128,-1,39
 454 175 454 175 460 203 c 2,40,-1
 490 344 l 2,28,29
157 167 m 2,41,42
 152 137 152 137 158 113 c 1,43,-1
 458 442 l 1,44,45
 439 458 439 458 415 458 c 2,46,-1
 354 458 l 2,47,48
 326 458 326 458 298.5 445.5 c 128,-1,49
 271 433 271 433 248.5 411.5 c 128,-1,50
 226 390 226 390 209.5 363 c 128,-1,51
 193 336 193 336 187 308 c 2,52,-1
 157 167 l 2,41,42
EndSplineSet
EndChar
StartChar: thorn
Encoding: 254 254 191
Width: 664
VWidth: 1507
Flags: W
HStem: -8 61<283.957 395.375> 458 61<399.03 509.393> 696 20G<274.742 347>
Fore
601 203 m 2,0,1
 592 160 592 160 568 122 c 128,-1,2
 544 84 544 84 510 55 c 128,-1,3
 476 26 476 26 435.5 9 c 128,-1,4
 395 -8 395 -8 353 -8 c 2,5,-1
 292 -8 l 2,6,7
 235 -8 235 -8 200 27 c 1,8,-1
 146 -228 l 1,9,-1
 78 -228 l 1,10,-1
 279 716 l 1,11,-1
 347 716 l 1,12,-1
 294 464 l 1,13,14
 327 490 327 490 364.5 504.5 c 128,-1,15
 402 519 402 519 442 519 c 2,16,-1
 502 519 l 2,17,18
 537 519 537 519 564.5 504.5 c 128,-1,19
 592 490 592 490 609.5 466 c 128,-1,20
 627 442 627 442 633 410 c 128,-1,21
 639 378 639 378 632 344 c 2,22,-1
 601 203 l 2,0,1
564 344 m 2,23,24
 568 363 568 363 564.5 384 c 128,-1,25
 561 405 561 405 551 421 c 128,-1,26
 541 437 541 437 524.5 447.5 c 128,-1,27
 508 458 508 458 488 458 c 2,28,-1
 428 458 l 2,29,30
 401 458 401 458 373 446 c 128,-1,31
 345 434 345 434 322.5 413.5 c 128,-1,32
 300 393 300 393 284 367 c 128,-1,33
 268 341 268 341 262 314 c 2,34,-1
 231 167 l 2,35,36
 226 146 226 146 230 126 c 128,-1,37
 234 106 234 106 243.5 90 c 128,-1,38
 253 74 253 74 269 63.5 c 128,-1,39
 285 53 285 53 306 53 c 2,40,-1
 366 53 l 2,41,42
 395 53 395 53 422 65.5 c 128,-1,43
 449 78 449 78 471.5 99.5 c 128,-1,44
 494 121 494 121 511 148 c 128,-1,45
 528 175 528 175 534 203 c 2,46,-1
 564 344 l 2,23,24
EndSplineSet
EndChar
StartChar: Lslash
Encoding: 321 321 193
Width: 661
VWidth: 1507
Flags: W
HStem: 0 60<178 610> 696 20G<244.73 317>
Fore
78 300 m 1,0,-1
 173 360 l 1,1,-1
 249 716 l 1,2,-1
 317 716 l 1,3,-1
 253 412 l 1,4,-1
 380 493 l 1,5,-1
 363 413 l 1,6,-1
 235 332 l 1,7,-1
 178 60 l 1,8,-1
 623 60 l 1,9,-1
 610 0 l 1,10,-1
 98 0 l 1,11,-1
 157 280 l 1,12,-1
 62 220 l 1,13,-1
 78 300 l 1,0,-1
EndSplineSet
EndChar
StartChar: lslash
Encoding: 322 322 194
Width: 290
VWidth: 1507
Flags: W
HStem: 0 21G<113 185.186> 696 20G<259.768 332>
VStem: 83 277<220 491 -60.3125 220>
Fore
96 303 m 1,0,-1
 191 371 l 1,1,-1
 264 716 l 1,2,-1
 332 716 l 1,3,-1
 271 428 l 1,4,-1
 360 491 l 1,5,-1
 342 409 l 1,6,-1
 253 344 l 1,7,-1
 181 0 l 1,8,-1
 113 0 l 1,9,-1
 173 285 l 1,10,-1
 83 220 l 1,11,-1
 96 303 l 1,0,-1
EndSplineSet
EndChar
StartChar: OE
Encoding: 338 338 195
Width: 1132
VWidth: 1507
Flags: W
HStem: 0 68<241.361 470.687 604 1070> 339 68<677 1067> 648 68<391.344 638.117 728 1207>
Fore
289 0 m 2,0,1
 240 0 240 0 200.5 18 c 128,-1,2
 161 36 161 36 136.5 67.5 c 128,-1,3
 112 99 112 99 102.5 142 c 128,-1,4
 93 185 93 185 104 235 c 2,5,-1
 145 430 l 2,6,7
 158 490 158 490 191.5 542.5 c 128,-1,8
 225 595 225 595 272.5 633.5 c 128,-1,9
 320 672 320 672 376.5 694 c 128,-1,10
 433 716 433 716 491 716 c 2,11,-1
 1221 716 l 1,12,-1
 1207 648 l 1,13,-1
 728 648 l 1,14,-1
 677 407 l 1,15,-1
 1082 407 l 1,16,-1
 1067 339 l 1,17,-1
 662 339 l 1,18,-1
 604 68 l 1,19,-1
 1084 68 l 1,20,-1
 1070 0 l 1,21,-1
 289 0 l 2,0,1
386 68 m 2,22,23
 430 68 430 68 472 83.5 c 128,-1,24
 514 99 514 99 550 128 c 1,25,-1
 653 615 l 1,26,27
 615 648 615 648 559 648 c 2,28,-1
 478 648 l 2,29,30
 433 648 433 648 390 631.5 c 128,-1,31
 347 615 347 615 310.5 585.5 c 128,-1,32
 274 556 274 556 248.5 516 c 128,-1,33
 223 476 223 476 213 430 c 2,34,-1
 172 235 l 2,35,36
 164 200 164 200 170 169.5 c 128,-1,37
 176 139 176 139 194.5 116 c 128,-1,38
 213 93 213 93 240.5 80.5 c 128,-1,39
 268 68 268 68 303 68 c 2,40,-1
 386 68 l 2,22,23
EndSplineSet
EndChar
StartChar: oe
Encoding: 339 339 196
Width: 919
VWidth: 1507
Flags: W
HStem: -8 61<208.957 320.375 571.957 685.834> 267 53<552 847> 458 61<323.625 434.393 684.008 797.393>
Fore
519 167 m 2,0,1
 514 146 514 146 518 126 c 128,-1,2
 522 106 522 106 531.5 90 c 128,-1,3
 541 74 541 74 557 63.5 c 128,-1,4
 573 53 573 53 594 53 c 2,5,-1
 654 53 l 2,6,7
 683 53 683 53 709.5 63.5 c 128,-1,8
 736 74 736 74 758.5 92 c 128,-1,9
 781 110 781 110 796.5 135 c 128,-1,10
 812 160 812 160 819 188 c 1,11,-1
 886 188 l 1,12,13
 877 145 877 145 853 109.5 c 128,-1,14
 829 74 829 74 796 47.5 c 128,-1,15
 763 21 763 21 723 6.5 c 128,-1,16
 683 -8 683 -8 641 -8 c 2,17,-1
 580 -8 l 2,18,19
 535 -8 535 -8 502.5 15.5 c 128,-1,20
 470 39 470 39 457 75 c 1,21,22
 421 38 421 38 373.5 15 c 128,-1,23
 326 -8 326 -8 277 -8 c 2,24,-1
 217 -8 l 2,25,26
 182 -8 182 -8 154.5 6.5 c 128,-1,27
 127 21 127 21 109.5 45 c 128,-1,28
 92 69 92 69 86 101 c 128,-1,29
 80 133 80 133 87 167 c 2,30,-1
 118 308 l 2,31,32
 127 350 127 350 151 388.5 c 128,-1,33
 175 427 175 427 209 456 c 128,-1,34
 243 485 243 485 283.5 502 c 128,-1,35
 324 519 324 519 366 519 c 2,36,-1
 427 519 l 2,37,38
 472 519 472 519 503.5 495.5 c 128,-1,39
 535 472 535 472 550 434 c 1,40,41
 586 473 586 473 633 496 c 128,-1,42
 680 519 680 519 730 519 c 2,43,-1
 790 519 l 2,44,45
 825 519 825 519 852.5 504.5 c 128,-1,46
 880 490 880 490 897.5 466 c 128,-1,47
 915 442 915 442 921 410 c 128,-1,48
 927 378 927 378 920 344 c 2,49,-1
 903 267 l 1,50,-1
 540 267 l 1,51,-1
 519 167 l 2,0,1
488 344 m 2,52,53
 493 363 493 363 489 384 c 128,-1,54
 485 405 485 405 475.5 421 c 128,-1,55
 466 437 466 437 449.5 447.5 c 128,-1,56
 433 458 433 458 413 458 c 2,57,-1
 353 458 l 2,58,59
 324 458 324 458 297 445.5 c 128,-1,60
 270 433 270 433 247.5 411.5 c 128,-1,61
 225 390 225 390 208 363 c 128,-1,62
 191 336 191 336 185 308 c 2,63,-1
 155 167 l 2,64,65
 151 146 151 146 154.5 126 c 128,-1,66
 158 106 158 106 168 90 c 128,-1,67
 178 74 178 74 194 63.5 c 128,-1,68
 210 53 210 53 231 53 c 2,69,-1
 291 53 l 2,70,71
 320 53 320 53 347 65.5 c 128,-1,72
 374 78 374 78 396.5 99.5 c 128,-1,73
 419 121 419 121 435.5 148 c 128,-1,74
 452 175 452 175 458 203 c 2,75,-1
 488 344 l 2,52,53
716 458 m 2,76,77
 687 458 687 458 660 447.5 c 128,-1,78
 633 437 633 437 611 418 c 128,-1,79
 589 399 589 399 573.5 373.5 c 128,-1,80
 558 348 558 348 552 320 c 1,81,-1
 847 320 l 1,82,-1
 852 344 l 2,83,84
 856 363 856 363 852.5 384 c 128,-1,85
 849 405 849 405 839 421 c 128,-1,86
 829 437 829 437 812.5 447.5 c 128,-1,87
 796 458 796 458 776 458 c 2,88,-1
 716 458 l 2,76,77
EndSplineSet
EndChar
StartChar: florin
Encoding: 402 402 202
Width: 732
VWidth: 1507
Flags: W
HStem: -223 68<17 115.468> 466 45<344 443 525 620> 731 68<734.016 832>
Fore
392 65 m 1,0,1
 369 -5 369 -5 327.5 -58.5 c 128,-1,2
 286 -112 286 -112 233.5 -148.5 c 128,-1,3
 181 -185 181 -185 119 -204 c 128,-1,4
 57 -223 57 -223 -3 -223 c 1,5,-1
 17 -155 l 1,6,7
 68 -155 68 -155 117 -141 c 128,-1,8
 166 -127 166 -127 206.5 -98 c 128,-1,9
 247 -69 247 -69 277.5 -28.5 c 128,-1,10
 308 12 308 12 324 65 c 2,11,-1
 443 466 l 1,12,-1
 330 466 l 1,13,-1
 344 511 l 1,14,-1
 457 511 l 1,15,16
 478 580 478 580 519.5 633.5 c 128,-1,17
 561 687 561 687 614.5 724 c 128,-1,18
 668 761 668 761 729 780 c 128,-1,19
 790 799 790 799 852 799 c 1,20,-1
 832 731 l 1,21,22
 781 731 781 731 732.5 716.5 c 128,-1,23
 684 702 684 702 643.5 673.5 c 128,-1,24
 603 645 603 645 572 604.5 c 128,-1,25
 541 564 541 564 525 511 c 1,26,-1
 633 511 l 1,27,-1
 620 466 l 1,28,-1
 511 466 l 1,29,-1
 392 65 l 1,0,1
EndSplineSet
EndChar
StartChar: circumflex
Encoding: 710 710 203
Width: 483
VWidth: 1507
Flags: W
HStem: 745 176<416 562 416 416>
VStem: 256 306<745 745 745 745>
Fore
416 921 m 1,0,-1
 475 921 l 1,1,-1
 562 745 l 1,2,-1
 497 745 l 1,3,-1
 436 876 l 1,4,-1
 321 745 l 1,5,-1
 256 745 l 1,6,-1
 416 921 l 1,0,-1
EndSplineSet
EndChar
StartChar: caron
Encoding: 711 711 204
Width: 483
VWidth: 1507
Flags: W
HStem: 745 176<292 439 292 292>
VStem: 292 306<921 921 921 921>
Fore
292 921 m 1,0,-1
 357 921 l 1,1,-1
 418 790 l 1,2,-1
 534 921 l 1,3,-1
 598 921 l 1,4,-1
 439 745 l 1,5,-1
 380 745 l 1,6,-1
 292 921 l 1,0,-1
EndSplineSet
EndChar
StartChar: breve
Encoding: 728 728 205
Width: 452
VWidth: 1507
Flags: W
HStem: 633 48<310.197 417.207>
VStem: 234 52<748.085 796>
Fore
556 796 m 1,0,1
 549 763 549 763 530 733.5 c 128,-1,2
 511 704 511 704 484.5 681.5 c 128,-1,3
 458 659 458 659 425.5 646 c 128,-1,4
 393 633 393 633 360 633 c 256,5,6
 327 633 327 633 300 646 c 128,-1,7
 273 659 273 659 256.5 681.5 c 128,-1,8
 240 704 240 704 233 733.5 c 128,-1,9
 226 763 226 763 234 796 c 1,10,-1
 286 796 l 1,11,12
 276 749 276 749 299.5 715 c 128,-1,13
 323 681 323 681 371 681 c 256,14,15
 419 681 419 681 456 715 c 128,-1,16
 493 749 493 749 503 796 c 1,17,-1
 556 796 l 1,0,1
EndSplineSet
EndChar
StartChar: dotaccent
Encoding: 729 729 206
Width: 238
VWidth: 1507
Flags: W
HStem: 644 117<239.626 304.858>
VStem: 214 118<679.155 747.831>
Fore
214 702 m 0,0,1
 219 728 219 728 239 744.5 c 128,-1,2
 259 761 259 761 285 761 c 256,3,4
 311 761 311 761 323.5 744.5 c 128,-1,5
 336 728 336 728 332 702 c 0,6,7
 326 677 326 677 305.5 660.5 c 128,-1,8
 285 644 285 644 259 644 c 256,9,10
 234 644 234 644 221 660.5 c 128,-1,11
 208 677 208 677 214 702 c 0,0,1
EndSplineSet
EndChar
StartChar: ring
Encoding: 730 730 207
Width: 419
VWidth: 1507
Flags: W
HStem: 598 49<304.818 394.731> 770 49<322.458 411.32>
VStem: 247 220<660 665 751.5 755 707 707 707 707>
Fore
247 707 m 0,0,1
 258 755 258 755 296.5 787 c 128,-1,2
 335 819 335 819 383 819 c 0,3,4
 430 819 430 819 454 787 c 128,-1,5
 478 755 478 755 467 707 c 0,6,7
 457 660 457 660 420 629 c 128,-1,8
 383 598 383 598 336 598 c 0,9,10
 288 598 288 598 262.5 629 c 128,-1,11
 237 660 237 660 247 707 c 0,0,1
295 707 m 0,12,13
 291 683 291 683 306 665 c 128,-1,14
 321 647 321 647 347 647 c 0,15,16
 371 647 371 647 393 665 c 128,-1,17
 415 683 415 683 419 707 c 0,18,19
 425 733 425 733 410.5 751.5 c 128,-1,20
 396 770 396 770 372 770 c 0,21,22
 347 770 347 770 324 751.5 c 128,-1,23
 301 733 301 733 295 707 c 0,12,13
EndSplineSet
EndChar
StartChar: ogonek
Encoding: 731 731 208
Width: 292
VWidth: 1507
Flags: W
HStem: -193 53<83.7985 134.369>
VStem: 18 196<-153.824 -140 -118 -106 -119 -106 -119 -119>
Fore
121 -140 m 2,0,1
 133 -140 133 -140 142.5 -130.5 c 128,-1,2
 152 -121 152 -121 155 -106 c 1,3,-1
 214 -106 l 1,4,5
 205 -148 205 -148 177 -169 c 128,-1,6
 149 -190 149 -190 109 -193 c 2,7,-1
 96 -193 l 2,8,9
 57 -193 57 -193 32.5 -178 c 128,-1,10
 8 -163 8 -163 18 -119 c 0,11,12
 23 -96 23 -96 37 -81 c 128,-1,13
 51 -66 51 -66 68 -57 c 0,14,15
 83 -50 83 -50 93.5 -42.5 c 128,-1,16
 104 -35 104 -35 113 -17 c 1,17,-1
 118 6 l 1,18,-1
 173 6 l 1,19,-1
 169 -17 l 2,20,21
 166 -27 166 -27 157 -45 c 128,-1,22
 148 -63 148 -63 113 -84 c 0,23,24
 96 -92 96 -92 87 -102 c 128,-1,25
 78 -112 78 -112 77 -118 c 0,26,27
 74 -134 74 -134 83.5 -137 c 128,-1,28
 93 -140 93 -140 109 -140 c 2,29,-1
 121 -140 l 2,0,1
EndSplineSet
EndChar
StartChar: tilde
Encoding: 732 732 209
Width: 325
VWidth: 1507
Flags: W
HStem: 600 47<341.641 390.484> 677 47<220.605 273.402>
VStem: 140 329<624 638.5 685 699 624 699 624 624> 418 51<658.245 699>
Fore
348 600 m 0,0,1
 327 600 327 600 314 612 c 128,-1,2
 301 624 301 624 290.5 638.5 c 128,-1,3
 280 653 280 653 269.5 665 c 128,-1,4
 259 677 259 677 243 677 c 0,5,6
 228 677 228 677 212.5 662.5 c 128,-1,7
 197 648 197 648 191 624 c 1,8,-1
 140 624 l 1,9,10
 148 654 148 654 161.5 673.5 c 128,-1,11
 175 693 175 693 191.5 704.5 c 128,-1,12
 208 716 208 716 225.5 720 c 128,-1,13
 243 724 243 724 259 724 c 0,14,15
 285 724 285 724 300 711.5 c 128,-1,16
 315 699 315 699 325.5 685 c 128,-1,17
 336 671 336 671 345 659 c 128,-1,18
 354 647 354 647 368 647 c 0,19,20
 383 647 383 647 398 661 c 128,-1,21
 413 675 413 675 418 699 c 1,22,-1
 469 699 l 1,23,24
 461 669 461 669 448.5 649.5 c 128,-1,25
 436 630 436 630 419 618.5 c 128,-1,26
 402 607 402 607 384 603.5 c 128,-1,27
 366 600 366 600 348 600 c 0,0,1
EndSplineSet
EndChar
StartChar: uni0E01
Encoding: 3585 3585 212
Width: 593
VWidth: 1507
Flags: W
HStem: 0 21G<106 177.167 443 515.17> 537 60<349.738 519.414>
VStem: 106 498<0 446 219.104 347.959>
Fore
537 446 m 1,0,1
 544 481 544 481 524.5 509 c 128,-1,2
 505 537 505 537 472 537 c 2,3,-1
 377 537 l 2,4,5
 354 537 354 537 329 527 c 128,-1,6
 304 517 304 517 281.5 500.5 c 128,-1,7
 259 484 259 484 240.5 463.5 c 128,-1,8
 222 443 222 443 210 422 c 1,9,10
 235 398 235 398 240.5 369.5 c 128,-1,11
 246 341 246 341 238 312 c 2,12,-1
 173 0 l 1,13,-1
 106 0 l 1,14,-1
 170 312 l 2,15,16
 178 339 178 339 163 364 c 128,-1,17
 148 389 148 389 122 392 c 1,18,19
 136 434 136 434 163.5 472 c 128,-1,20
 191 510 191 510 228 537.5 c 128,-1,21
 265 565 265 565 308 581 c 128,-1,22
 351 597 351 597 393 597 c 2,23,-1
 485 597 l 2,24,25
 514 597 514 597 539 584 c 128,-1,26
 564 571 564 571 580.5 551 c 128,-1,27
 597 531 597 531 603.5 503 c 128,-1,28
 610 475 610 475 604 446 c 2,29,-1
 511 0 l 1,30,-1
 443 0 l 1,31,-1
 537 446 l 1,0,1
EndSplineSet
EndChar
StartChar: uni0E02
Encoding: 3586 3586 213
Width: 559
VWidth: 1507
Flags: W
HStem: 2 58<332 371.773> 327 42<172.488 248.869> 475 42<216.117 263.473> 550 47<240.541 335.844>
VStem: 270 44<386.511 422 422 451.225>
Fore
332 60 m 1,0,-1
 354 60 l 2,1,2
 383 63 383 63 411 86 c 128,-1,3
 439 109 439 109 446 142 c 2,4,-1
 544 597 l 1,5,-1
 612 597 l 1,6,-1
 517 152 l 2,7,8
 511 124 511 124 493.5 96.5 c 128,-1,9
 476 69 476 69 452 48 c 128,-1,10
 428 27 428 27 399.5 14.5 c 128,-1,11
 371 2 371 2 342 2 c 2,12,-1
 317 2 l 2,13,14
 291 2 291 2 275 22 c 128,-1,15
 259 42 259 42 265 69 c 2,16,-1
 317 308 l 2,17,18
 320 323 320 323 326 335.5 c 128,-1,19
 332 348 332 348 338 361.5 c 128,-1,20
 344 375 344 375 350 391 c 128,-1,21
 356 407 356 407 360 428 c 0,22,23
 368 476 368 476 347 513 c 128,-1,24
 326 550 326 550 280 550 c 0,25,26
 262 550 262 550 243.5 541 c 128,-1,27
 225 532 225 532 208 514 c 1,28,29
 216 516 216 516 223.5 516.5 c 128,-1,30
 231 517 231 517 238 517 c 0,31,32
 276 517 276 517 298.5 489 c 128,-1,33
 321 461 321 461 314 422 c 0,34,35
 306 384 306 384 271.5 355.5 c 128,-1,36
 237 327 237 327 199 327 c 0,37,38
 151 327 151 327 131.5 363 c 128,-1,39
 112 399 112 399 121 443 c 0,40,41
 125 463 125 463 133.5 482.5 c 128,-1,42
 142 502 142 502 154 519 c 0,43,44
 181 555 181 555 218.5 576 c 128,-1,45
 256 597 256 597 298 597 c 0,46,47
 368 595 368 595 396.5 547.5 c 128,-1,48
 425 500 425 500 410 430 c 2,49,-1
 332 60 l 1,0,-1
166 422 m 256,50,51
 161 401 161 401 174 385 c 128,-1,52
 187 369 187 369 208 369 c 0,53,54
 228 369 228 369 246.5 385 c 128,-1,55
 265 401 265 401 270 422 c 256,56,57
 274 443 274 443 262 459 c 128,-1,58
 250 475 250 475 229 475 c 256,59,60
 208 475 208 475 189 459 c 128,-1,61
 170 443 170 443 166 422 c 256,50,51
EndSplineSet
EndChar
StartChar: uni0E03
Encoding: 3587 3587 214
Width: 575
VWidth: 1507
Flags: W
HStem: 0 60<342 382.141> 312 41<153.76 212.661> 452 38<179.378 242.284> 577 20G<289.5 314.675 399.687 439 550.692 623>
Fore
528 152 m 2,0,1
 522 124 522 124 504.5 96.5 c 128,-1,2
 487 69 487 69 463 47.5 c 128,-1,3
 439 26 439 26 410 13 c 128,-1,4
 381 0 381 0 353 0 c 2,5,-1
 327 0 l 2,6,7
 301 0 301 0 285.5 20.5 c 128,-1,8
 270 41 270 41 276 68 c 2,9,-1
 335 347 l 2,10,11
 338 363 338 363 352 377.5 c 128,-1,12
 366 392 366 392 383 409 c 0,13,14
 398 424 398 424 412.5 444 c 128,-1,15
 427 464 427 464 431 487 c 0,16,17
 437 516 437 516 419 541 c 1,18,-1
 326 434 l 1,19,-1
 271 544 l 1,20,21
 243 543 243 543 211 524 c 128,-1,22
 179 505 179 505 167 475 c 1,23,24
 193 490 193 490 217 490 c 0,25,26
 252 490 252 490 273 463.5 c 128,-1,27
 294 437 294 437 286 398 c 0,28,29
 282 380 282 380 270.5 365 c 128,-1,30
 259 350 259 350 244 338 c 128,-1,31
 229 326 229 326 211 319 c 128,-1,32
 193 312 193 312 176 312 c 0,33,34
 152 312 152 312 136.5 322.5 c 128,-1,35
 121 333 121 333 112.5 351 c 128,-1,36
 104 369 104 369 102.5 391 c 128,-1,37
 101 413 101 413 106 436 c 0,38,39
 113 469 113 469 132.5 499 c 128,-1,40
 152 529 152 529 179.5 550 c 128,-1,41
 207 571 207 571 240 584 c 128,-1,42
 273 597 273 597 306 597 c 1,43,-1
 342 514 l 1,44,-1
 418 597 l 1,45,46
 460 586 460 586 474 552.5 c 128,-1,47
 488 519 488 519 479 478 c 0,48,49
 467 425 467 425 427 381 c 0,50,51
 419 372 419 372 411.5 362.5 c 128,-1,52
 404 353 404 353 399 333 c 2,53,-1
 342 60 l 1,54,-1
 365 60 l 2,55,56
 393 63 393 63 421 86 c 128,-1,57
 449 109 449 109 457 142 c 2,58,-1
 555 597 l 1,59,-1
 623 597 l 1,60,-1
 528 152 l 2,0,1
208 452 m 0,61,62
 191 452 191 452 171.5 438 c 128,-1,63
 152 424 152 424 148 402 c 0,64,65
 145 383 145 383 155.5 368 c 128,-1,66
 166 353 166 353 187 353 c 0,67,68
 207 353 207 353 225.5 368.5 c 128,-1,69
 244 384 244 384 247 402 c 0,70,71
 252 424 252 424 240 438 c 128,-1,72
 228 452 228 452 208 452 c 0,61,62
EndSplineSet
EndChar
StartChar: uni0E04
Encoding: 3588 3588 215
Width: 634
VWidth: 1507
Flags: W
HStem: 0 21G<81 180.266 490 562.17> 203 44<333.423 412.791> 351 44<348.784 427.569> 537 60<356.937 566.15>
Fore
532 597 m 2,0,1
 597 597 597 597 631.5 555 c 128,-1,2
 666 513 666 513 651 446 c 2,3,-1
 558 0 l 1,4,-1
 490 0 l 1,5,-1
 583 446 l 2,6,7
 591 479 591 479 572 508 c 128,-1,8
 553 537 553 537 519 537 c 2,9,-1
 415 537 l 2,10,11
 386 537 386 537 356 522.5 c 128,-1,12
 326 508 326 508 299.5 484.5 c 128,-1,13
 273 461 273 461 253.5 432.5 c 128,-1,14
 234 404 234 404 228 375 c 2,15,-1
 172 112 l 1,16,-1
 295 327 l 2,17,18
 312 357 312 357 340.5 376 c 128,-1,19
 369 395 369 395 401 395 c 0,20,21
 443 395 443 395 464 365.5 c 128,-1,22
 485 336 485 336 478 298 c 0,23,24
 469 259 469 259 433.5 231 c 128,-1,25
 398 203 398 203 360 203 c 0,26,27
 321 203 321 203 298 229 c 1,28,-1
 169 0 l 1,29,-1
 81 0 l 1,30,-1
 160 375 l 2,31,32
 169 416 169 416 195.5 456 c 128,-1,33
 222 496 222 496 258.5 527 c 128,-1,34
 295 558 295 558 338 577.5 c 128,-1,35
 381 597 381 597 424 597 c 2,36,-1
 532 597 l 2,0,1
329 298 m 0,37,38
 323 276 323 276 335.5 261.5 c 128,-1,39
 348 247 348 247 369 247 c 0,40,41
 389 247 389 247 409.5 262 c 128,-1,42
 430 277 430 277 434 298 c 256,43,44
 439 320 439 320 426 335.5 c 128,-1,45
 413 351 413 351 392 351 c 256,46,47
 371 351 371 351 352 335.5 c 128,-1,48
 333 320 333 320 329 298 c 0,37,38
EndSplineSet
EndChar
StartChar: uni0E05
Encoding: 3589 3589 216
Width: 639
VWidth: 1507
Flags: W
HStem: 0 21G<81 180.342 490 562.241> 203 44<336.689 398.065> 353 43<350.972 429.294> 577 20G<392.5 428 521.889 557>
VStem: 436 43<266.214 300 300 328.688>
Fore
558 0 m 1,0,-1
 490 0 l 1,1,-1
 585 448 l 2,2,3
 591 476 591 476 577.5 499 c 128,-1,4
 564 522 564 522 538 529 c 1,5,-1
 451 440 l 1,6,-1
 386 526 l 1,7,8
 360 520 360 520 334 505.5 c 128,-1,9
 308 491 308 491 286.5 471 c 128,-1,10
 265 451 265 451 249.5 426.5 c 128,-1,11
 234 402 234 402 229 377 c 2,12,-1
 172 112 l 1,13,-1
 297 329 l 2,14,15
 314 357 314 357 342.5 376.5 c 128,-1,16
 371 396 371 396 402 396 c 0,17,18
 440 396 440 396 463.5 367.5 c 128,-1,19
 487 339 487 339 479 300 c 0,20,21
 475 280 475 280 463.5 263 c 128,-1,22
 452 246 452 246 435.5 232.5 c 128,-1,23
 419 219 419 219 399.5 211 c 128,-1,24
 380 203 380 203 362 203 c 0,25,26
 323 203 323 203 300 231 c 1,27,-1
 169 0 l 1,28,-1
 81 0 l 1,29,-1
 161 377 l 2,30,31
 170 418 170 418 195 455.5 c 128,-1,32
 220 493 220 493 254.5 524 c 128,-1,33
 289 555 289 555 330.5 574.5 c 128,-1,34
 372 594 372 594 413 597 c 1,35,-1
 467 525 l 1,36,-1
 543 597 l 1,37,38
 571 595 571 595 594 583 c 128,-1,39
 617 571 617 571 632 551 c 128,-1,40
 647 531 647 531 653 504.5 c 128,-1,41
 659 478 659 478 653 448 c 2,42,-1
 558 0 l 1,0,-1
330 300 m 256,43,44
 326 279 326 279 338 263 c 128,-1,45
 350 247 350 247 371 247 c 0,46,47
 390 247 390 247 410.5 263 c 128,-1,48
 431 279 431 279 436 300 c 256,49,50
 440 321 440 321 427.5 337 c 128,-1,51
 415 353 415 353 393 353 c 256,52,53
 372 353 372 353 353.5 337 c 128,-1,54
 335 321 335 321 330 300 c 256,43,44
EndSplineSet
EndChar
StartChar: uni0E06
Encoding: 3590 3590 217
Width: 714
VWidth: 1507
Flags: W
HStem: 0 45<228.111 273> 155 64<378.031 425.189> 161 49<268.504 297> 312 41<154.877 214.071> 452 38<181.363 242.999> 577 20G<291 316.675 400.928 440 688.748 761>
VStem: 104.5 44.5<375.251 391 391 421.014> 167 47<74.8995 106 106 140.836> 249 39<368.985 430.998>
Fore
285 161 m 2,0,1
 259 161 259 161 239 144 c 128,-1,2
 219 127 219 127 214 106 c 0,3,4
 208 80 208 80 227.5 62.5 c 128,-1,5
 247 45 247 45 273 45 c 1,6,-1
 297 161 l 1,7,-1
 285 161 l 2,0,1
377 219 m 1,8,9
 412 210 412 210 445 196 c 128,-1,10
 478 182 478 182 505 165 c 128,-1,11
 532 148 532 148 553 128.5 c 128,-1,12
 574 109 574 109 585 89 c 1,13,-1
 693 597 l 1,14,-1
 761 597 l 1,15,-1
 635 0 l 1,16,-1
 567 0 l 1,17,18
 537 63 537 63 484 101 c 128,-1,19
 431 139 431 139 363 155 c 1,20,-1
 341 45 l 1,21,22
 324 24 324 24 307.5 12 c 128,-1,23
 291 0 291 0 252 0 c 0,24,25
 211 0 211 0 185.5 31.5 c 128,-1,26
 160 63 160 63 167 106 c 0,27,28
 172 127 172 127 184.5 145.5 c 128,-1,29
 197 164 197 164 215.5 178.5 c 128,-1,30
 234 193 234 193 254 201.5 c 128,-1,31
 274 210 274 210 295 210 c 2,32,-1
 308 210 l 1,33,-1
 336 347 l 2,34,35
 339 363 339 363 353.5 377.5 c 128,-1,36
 368 392 368 392 384 409 c 0,37,38
 399 424 399 424 413.5 444 c 128,-1,39
 428 464 428 464 433 487 c 0,40,41
 439 516 439 516 421 541 c 1,42,-1
 327 434 l 1,43,-1
 273 544 l 1,44,45
 244 543 244 543 212.5 524 c 128,-1,46
 181 505 181 505 169 475 c 1,47,48
 194 490 194 490 219 490 c 0,49,50
 253 490 253 490 274 463.5 c 128,-1,51
 295 437 295 437 288 398 c 0,52,53
 283 380 283 380 272 365 c 128,-1,54
 261 350 261 350 246 338 c 128,-1,55
 231 326 231 326 212.5 319 c 128,-1,56
 194 312 194 312 178 312 c 0,57,58
 154 312 154 312 138 322.5 c 128,-1,59
 122 333 122 333 114 351 c 128,-1,60
 106 369 106 369 104.5 391 c 128,-1,61
 103 413 103 413 107 436 c 0,62,63
 115 469 115 469 134.5 499 c 128,-1,64
 154 529 154 529 181 550 c 128,-1,65
 208 571 208 571 241 584 c 128,-1,66
 274 597 274 597 308 597 c 1,67,-1
 344 514 l 1,68,-1
 419 597 l 1,69,70
 461 586 461 586 475.5 552.5 c 128,-1,71
 490 519 490 519 481 478 c 0,72,73
 469 425 469 425 428 381 c 0,74,75
 421 372 421 372 413 362.5 c 128,-1,76
 405 353 405 353 401 333 c 2,77,-1
 377 219 l 1,8,9
210 452 m 0,78,79
 193 452 193 452 173.5 438 c 128,-1,80
 154 424 154 424 149 402 c 0,81,82
 146 383 146 383 156.5 368 c 128,-1,83
 167 353 167 353 188 353 c 0,84,85
 208 353 208 353 227 368.5 c 128,-1,86
 246 384 246 384 249 402 c 0,87,88
 253 424 253 424 241 438 c 128,-1,89
 229 452 229 452 210 452 c 0,78,79
EndSplineSet
EndChar
StartChar: uni0E07
Encoding: 3591 3591 218
Width: 517
VWidth: 1507
Flags: W
HStem: 0 21G<349.5 441.215> 404 44<401.505 452.636> 553 42<415.626 493.436>
VStem: 119 424<392 503 392 392>
Fore
437 0 m 1,0,-1
 369 0 l 2,1,2
 330 0 330 0 303 18 c 0,3,4
 288 26 288 26 276 41.5 c 128,-1,5
 264 57 264 57 256 74 c 2,6,-1
 119 392 l 1,7,-1
 197 392 l 1,8,-1
 329 87 l 1,9,10
 336 75 336 75 350.5 67.5 c 128,-1,11
 365 60 365 60 381 60 c 1,12,-1
 455 409 l 1,13,14
 442 404 442 404 427 404 c 0,15,16
 387 404 387 404 365.5 432.5 c 128,-1,17
 344 461 344 461 351 500 c 0,18,19
 360 540 360 540 395 567.5 c 128,-1,20
 430 595 430 595 469 595 c 0,21,22
 505 595 505 595 528.5 568 c 128,-1,23
 552 541 552 541 543 503 c 2,24,-1
 437 0 l 1,0,-1
460 553 m 256,25,26
 439 553 439 553 419 537.5 c 128,-1,27
 399 522 399 522 395 500 c 0,28,29
 390 481 390 481 403 464.5 c 128,-1,30
 416 448 416 448 437 448 c 256,31,32
 458 448 458 448 476 464.5 c 128,-1,33
 494 481 494 481 499 500 c 0,34,35
 503 522 503 522 492 537.5 c 128,-1,36
 481 553 481 553 460 553 c 256,25,26
EndSplineSet
EndChar
StartChar: uni0E08
Encoding: 3592 3592 219
Width: 578
VWidth: 1507
Flags: W
HStem: 0 21G<286 367.5> 202 44<275.724 325.388> 350 43<289.014 369.236> 537 60<285.991 504.342>
VStem: 130 459<442 445 442 442>
Fore
522 445 m 2,0,1
 529 478 529 478 510 507.5 c 128,-1,2
 491 537 491 537 458 537 c 2,3,-1
 365 537 l 2,4,5
 309 537 309 537 264.5 500.5 c 128,-1,6
 220 464 220 464 191 419 c 1,7,-1
 130 442 l 1,8,9
 170 506 170 506 236.5 550.5 c 128,-1,10
 303 595 303 595 378 597 c 2,11,-1
 475 597 l 2,12,13
 505 597 505 597 529 584 c 128,-1,14
 553 571 553 571 568 550 c 128,-1,15
 583 529 583 529 589 501 c 128,-1,16
 595 473 595 473 589 445 c 2,17,-1
 526 146 l 2,18,19
 520 119 520 119 502.5 92.5 c 128,-1,20
 485 66 485 66 462 46 c 128,-1,21
 439 26 439 26 410 13 c 128,-1,22
 381 0 381 0 354 0 c 2,23,-1
 286 0 l 1,24,-1
 329 205 l 1,25,26
 332 205 332 205 322 203.5 c 128,-1,27
 312 202 312 202 301 202 c 0,28,29
 262 202 262 202 239.5 230.5 c 128,-1,30
 217 259 217 259 226 298 c 0,31,32
 234 338 234 338 268.5 365.5 c 128,-1,33
 303 393 303 393 342 393 c 256,34,35
 381 393 381 393 403 364.5 c 128,-1,36
 425 336 425 336 418 298 c 2,37,-1
 366 60 l 1,38,39
 396 63 396 63 424 91 c 128,-1,40
 452 119 452 119 460 151 c 2,41,-1
 522 445 l 2,0,1
333 350 m 256,42,43
 312 350 312 350 292.5 335 c 128,-1,44
 273 320 273 320 270 298 c 0,45,46
 265 279 265 279 277 262.5 c 128,-1,47
 289 246 289 246 311 246 c 256,48,49
 332 246 332 246 351.5 261.5 c 128,-1,50
 371 277 371 277 375 298 c 256,51,52
 380 320 380 320 367 335 c 128,-1,53
 354 350 354 350 333 350 c 256,42,43
EndSplineSet
EndChar
StartChar: uni0E09
Encoding: 3593 3593 220
Width: 610
VWidth: 1507
Flags: W
HStem: 0 48<466.118 551.791> 140 42<134.583 179.772> 286 41<149.729 227.039> 537 60<331 536.962>
VStem: 86 42<205.594 267.926> 410 48<74.4536 106>
Fore
392 537 m 2,0,1
 362 537 362 537 330 521.5 c 128,-1,2
 298 506 298 506 271 482 c 128,-1,3
 244 458 244 458 224.5 427 c 128,-1,4
 205 396 205 396 199 366 c 1,5,-1
 130 366 l 1,6,7
 140 412 140 412 167 453 c 128,-1,8
 194 494 194 494 232 526 c 128,-1,9
 270 558 270 558 315 577.5 c 128,-1,10
 360 597 360 597 405 597 c 2,11,-1
 506 597 l 2,12,13
 537 597 537 597 561 584 c 128,-1,14
 585 571 585 571 601 550 c 128,-1,15
 617 529 617 529 623 501 c 128,-1,16
 629 473 629 473 623 443 c 2,17,-1
 573 207 l 1,18,19
 604 193 604 193 617 166 c 128,-1,20
 630 139 630 139 623 109 c 0,21,22
 614 65 614 65 577 32.5 c 128,-1,23
 540 0 540 0 491 0 c 0,24,25
 449 0 449 0 425.5 31.5 c 128,-1,26
 402 63 402 63 410 106 c 1,27,-1
 225 0 l 1,28,-1
 157 0 l 1,29,-1
 187 143 l 1,30,31
 179 142 179 142 173 141 c 128,-1,32
 167 140 167 140 161 140 c 0,33,34
 124 140 124 140 101 167 c 128,-1,35
 78 194 78 194 86 234 c 0,36,37
 95 273 95 273 129.5 300 c 128,-1,38
 164 327 164 327 202 327 c 0,39,40
 238 327 238 327 260 300 c 128,-1,41
 282 273 282 273 274 237 c 2,42,-1
 240 75 l 1,43,-1
 508 225 l 1,44,-1
 555 443 l 2,45,46
 562 478 562 478 544 506.5 c 128,-1,47
 526 535 526 535 490 537 c 2,48,-1
 392 537 l 2,0,1
128 234 m 0,49,50
 124 213 124 213 136.5 197.5 c 128,-1,51
 149 182 149 182 170 182 c 256,52,53
 191 182 191 182 210 197.5 c 128,-1,54
 229 213 229 213 232 234 c 0,55,56
 237 255 237 255 225.5 270.5 c 128,-1,57
 214 286 214 286 193 286 c 256,58,59
 172 286 172 286 153 271 c 128,-1,60
 134 256 134 256 128 234 c 0,49,50
529 164 m 256,61,62
 505 164 505 164 484.5 146 c 128,-1,63
 464 128 464 128 458 106 c 0,64,65
 454 81 454 81 467.5 64.5 c 128,-1,66
 481 48 481 48 505 48 c 0,67,68
 528 48 528 48 549 64.5 c 128,-1,69
 570 81 570 81 574 106 c 0,70,71
 580 131 580 131 566.5 147.5 c 128,-1,72
 553 164 553 164 529 164 c 256,61,62
EndSplineSet
EndChar
StartChar: uni0E0A
Encoding: 3594 3594 221
Width: 563
VWidth: 1507
Flags: W
HStem: 0 60<332 371.773> 327 42<172.488 248.869> 475 42<216.117 263.473> 550 47<240.541 335.844>
VStem: 270 44<386.511 451.225>
Fore
166 422 m 256,0,1
 161 401 161 401 174 385 c 128,-1,2
 187 369 187 369 208 369 c 0,3,4
 228 369 228 369 246.5 385 c 128,-1,5
 265 401 265 401 270 422 c 256,6,7
 274 443 274 443 262 459 c 128,-1,8
 250 475 250 475 229 475 c 256,9,10
 208 475 208 475 189 459 c 128,-1,11
 170 443 170 443 166 422 c 256,0,1
332 60 m 1,12,-1
 354 60 l 2,13,14
 383 63 383 63 411.5 86.5 c 128,-1,15
 440 110 440 110 448 143 c 2,16,-1
 496 369 l 2,17,18
 497 378 497 378 489.5 387 c 128,-1,19
 482 396 482 396 471 403 c 128,-1,20
 460 410 460 410 446.5 414.5 c 128,-1,21
 433 419 433 419 422 419 c 1,22,-1
 428 449 l 1,23,24
 473 464 473 464 505 485 c 128,-1,25
 537 506 537 506 558.5 535 c 128,-1,26
 580 564 580 564 595 600 c 128,-1,27
 610 636 610 636 624 684 c 1,28,-1
 692 684 l 1,29,30
 678 645 678 645 663 606 c 128,-1,31
 648 567 648 567 627 533.5 c 128,-1,32
 606 500 606 500 576.5 474 c 128,-1,33
 547 448 547 448 503 433 c 1,34,35
 520 428 520 428 540.5 410.5 c 128,-1,36
 561 393 561 393 565 378 c 1,37,-1
 517 152 l 2,38,39
 511 124 511 124 493.5 96.5 c 128,-1,40
 476 69 476 69 452 47.5 c 128,-1,41
 428 26 428 26 399.5 13 c 128,-1,42
 371 0 371 0 342 0 c 2,43,-1
 317 0 l 2,44,45
 291 0 291 0 275 20.5 c 128,-1,46
 259 41 259 41 265 68 c 2,47,-1
 317 308 l 2,48,49
 320 323 320 323 326 335.5 c 128,-1,50
 332 348 332 348 338 361.5 c 128,-1,51
 344 375 344 375 350 391 c 128,-1,52
 356 407 356 407 360 428 c 0,53,54
 368 476 368 476 347 513 c 128,-1,55
 326 550 326 550 280 550 c 0,56,57
 262 550 262 550 243.5 541 c 128,-1,58
 225 532 225 532 208 514 c 1,59,60
 216 516 216 516 223.5 516.5 c 128,-1,61
 231 517 231 517 238 517 c 0,62,63
 276 517 276 517 298.5 489 c 128,-1,64
 321 461 321 461 314 422 c 0,65,66
 306 384 306 384 271.5 355.5 c 128,-1,67
 237 327 237 327 199 327 c 0,68,69
 151 327 151 327 131.5 363 c 128,-1,70
 112 399 112 399 121 443 c 0,71,72
 125 463 125 463 133.5 482.5 c 128,-1,73
 142 502 142 502 154 519 c 0,74,75
 181 555 181 555 218.5 576 c 128,-1,76
 256 597 256 597 298 597 c 0,77,78
 368 595 368 595 396.5 547.5 c 128,-1,79
 425 500 425 500 410 430 c 2,80,-1
 332 60 l 1,12,-1
EndSplineSet
EndChar
StartChar: uni0E0B
Encoding: 3595 3595 222
Width: 572
VWidth: 1507
Flags: W
HStem: 0 60<341 380.773> 312 41<151.877 211.071> 452 38<178.363 239.999> 577 20G<287.5 312.916 397.928 437>
VStem: 101 45<375.251 391 391 421.014> 246 39<368.985 430.998>
Fore
333 347 m 2,0,1
 336 363 336 363 350.5 377.5 c 128,-1,2
 365 392 365 392 381 409 c 0,3,4
 396 424 396 424 410.5 444 c 128,-1,5
 425 464 425 464 430 487 c 0,6,7
 436 516 436 516 418 541 c 1,8,-1
 324 434 l 1,9,-1
 270 544 l 1,10,11
 241 543 241 543 209.5 524 c 128,-1,12
 178 505 178 505 166 475 c 1,13,14
 191 490 191 490 216 490 c 0,15,16
 250 490 250 490 271 463.5 c 128,-1,17
 292 437 292 437 285 398 c 0,18,19
 280 380 280 380 269 365 c 128,-1,20
 258 350 258 350 243 338 c 128,-1,21
 228 326 228 326 209.5 319 c 128,-1,22
 191 312 191 312 175 312 c 0,23,24
 151 312 151 312 135 322.5 c 128,-1,25
 119 333 119 333 111 351 c 128,-1,26
 103 369 103 369 101 391 c 128,-1,27
 99 413 99 413 104 436 c 0,28,29
 112 469 112 469 131.5 499 c 128,-1,30
 151 529 151 529 178 550 c 128,-1,31
 205 571 205 571 238 584 c 128,-1,32
 271 597 271 597 304 597 c 1,33,-1
 341 514 l 1,34,-1
 416 597 l 1,35,36
 458 586 458 586 472.5 552.5 c 128,-1,37
 487 519 487 519 478 478 c 0,38,39
 466 425 466 425 425 381 c 0,40,41
 418 372 418 372 410 362.5 c 128,-1,42
 402 353 402 353 398 333 c 2,43,-1
 341 60 l 1,44,-1
 363 60 l 2,45,46
 392 63 392 63 420.5 86.5 c 128,-1,47
 449 110 449 110 457 143 c 2,48,-1
 505 374 l 1,49,50
 505 392 505 392 481 409 c 0,51,52
 478 412 478 412 476 412 c 1,53,54
 482 427 482 427 487 443 c 0,55,56
 488 451 488 451 489 460.5 c 128,-1,57
 490 470 490 470 490 481 c 1,58,59
 526 499 526 499 548.5 518 c 128,-1,60
 571 537 571 537 586 561 c 128,-1,61
 601 585 601 585 612 616 c 128,-1,62
 623 647 623 647 635 689 c 1,63,-1
 701 689 l 1,64,65
 687 651 687 651 675 614 c 128,-1,66
 663 577 663 577 644.5 545 c 128,-1,67
 626 513 626 513 598 487 c 128,-1,68
 570 461 570 461 526 446 c 1,69,70
 580 413 580 413 576 386 c 2,71,-1
 526 152 l 2,72,73
 520 124 520 124 502.5 96.5 c 128,-1,74
 485 69 485 69 461 47.5 c 128,-1,75
 437 26 437 26 408.5 13 c 128,-1,76
 380 0 380 0 351 0 c 2,77,-1
 326 0 l 2,78,79
 300 0 300 0 284 20.5 c 128,-1,80
 268 41 268 41 274 68 c 2,81,-1
 333 347 l 2,0,1
207 452 m 0,82,83
 190 452 190 452 170.5 438 c 128,-1,84
 151 424 151 424 146 402 c 0,85,86
 143 383 143 383 153.5 368 c 128,-1,87
 164 353 164 353 185 353 c 0,88,89
 205 353 205 353 224 368.5 c 128,-1,90
 243 384 243 384 246 402 c 0,91,92
 250 424 250 424 238 438 c 128,-1,93
 226 452 226 452 207 452 c 0,82,83
EndSplineSet
EndChar
StartChar: uni0E0C
Encoding: 3596 3596 223
Width: 854
VWidth: 1507
Flags: W
HStem: 2 43<170.163 249.938 406.502 448> 148 43<216.598 262.687> 158 47<424.688 472> 537 60<346.738 515.858>
Fore
772 0 m 1,0,-1
 705 0 l 1,1,2
 669 47 669 47 629 84.5 c 128,-1,3
 589 122 589 122 537 140 c 1,4,-1
 514 35 l 1,5,6
 497 21 497 21 477.5 11.5 c 128,-1,7
 458 2 458 2 439 2 c 0,8,9
 393 2 393 2 367.5 31 c 128,-1,10
 342 60 342 60 351 103 c 0,11,12
 360 148 360 148 396.5 176.5 c 128,-1,13
 433 205 433 205 481 205 c 1,14,-1
 532 446 l 2,15,16
 540 481 540 481 521 509 c 128,-1,17
 502 537 502 537 469 537 c 2,18,-1
 374 537 l 2,19,20
 351 537 351 537 326 527 c 128,-1,21
 301 517 301 517 278.5 500.5 c 128,-1,22
 256 484 256 484 237.5 463.5 c 128,-1,23
 219 443 219 443 207 422 c 1,24,25
 232 398 232 398 237.5 369.5 c 128,-1,26
 243 341 243 341 235 312 c 2,27,-1
 210 188 l 1,28,29
 217 190 217 190 223 190.5 c 128,-1,30
 229 191 229 191 237 191 c 0,31,32
 274 191 274 191 297 163.5 c 128,-1,33
 320 136 320 136 312 98 c 0,34,35
 304 59 304 59 270.5 30.5 c 128,-1,36
 237 2 237 2 197 2 c 0,37,38
 163 2 163 2 139.5 24.5 c 128,-1,39
 116 47 116 47 119 80 c 2,40,-1
 167 312 l 2,41,42
 175 339 175 339 160 364 c 128,-1,43
 145 389 145 389 119 392 c 1,44,45
 133 434 133 434 160.5 472 c 128,-1,46
 188 510 188 510 225 537.5 c 128,-1,47
 262 565 262 565 305 581 c 128,-1,48
 348 597 348 597 390 597 c 2,49,-1
 482 597 l 2,50,51
 511 597 511 597 536 584 c 128,-1,52
 561 571 561 571 577.5 551 c 128,-1,53
 594 531 594 531 600.5 503 c 128,-1,54
 607 475 607 475 601 446 c 2,55,-1
 549 196 l 1,56,57
 601 178 601 178 645.5 147 c 128,-1,58
 690 116 690 116 721 72 c 1,59,-1
 832 597 l 1,60,-1
 898 597 l 1,61,-1
 772 0 l 1,0,-1
164 98 m 0,62,63
 160 77 160 77 172.5 61 c 128,-1,64
 185 45 185 45 207 45 c 256,65,66
 228 45 228 45 246 61 c 128,-1,67
 264 77 264 77 268 98 c 0,68,69
 273 118 273 118 261 133 c 128,-1,70
 249 148 249 148 228 148 c 256,71,72
 207 148 207 148 188 132 c 128,-1,73
 169 116 169 116 164 98 c 0,62,63
396 103 m 256,74,75
 390 77 390 77 406 62.5 c 128,-1,76
 422 48 422 48 448 48 c 1,77,-1
 472 158 l 1,78,79
 446 158 446 158 424 143 c 128,-1,80
 402 128 402 128 396 103 c 256,74,75
EndSplineSet
EndChar
StartChar: uni0E0D
Encoding: 3597 3597 224
Width: 860
VWidth: 1507
Flags: W
HStem: -249 50<520.352 594.236> -78 40<463.43 523.858> 0 60<528 665.335> 0 47<180.165 242.302> 152 42<218.29 271.825> 537 60<352.905 524.398>
VStem: 279 42<65.4546 127.267>
Fore
217 190 m 1,0,1
 232 194 232 194 246 194 c 0,2,3
 280 194 280 194 305 167 c 128,-1,4
 330 140 330 140 321 98 c 0,5,6
 317 78 317 78 305.5 60 c 128,-1,7
 294 42 294 42 278 28.5 c 128,-1,8
 262 15 262 15 243.5 7.5 c 128,-1,9
 225 0 225 0 205 0 c 0,10,11
 167 0 167 0 143 25.5 c 128,-1,12
 119 51 119 51 127 83 c 2,13,-1
 175 312 l 2,14,15
 182 339 182 339 166.5 364 c 128,-1,16
 151 389 151 389 125 392 c 1,17,18
 139 434 139 434 166.5 472 c 128,-1,19
 194 510 194 510 231 537.5 c 128,-1,20
 268 565 268 565 311 581 c 128,-1,21
 354 597 354 597 396 597 c 2,22,-1
 490 597 l 2,23,24
 519 597 519 597 543.5 584 c 128,-1,25
 568 571 568 571 584.5 551 c 128,-1,26
 601 531 601 531 608 503 c 128,-1,27
 615 475 615 475 609 446 c 2,28,-1
 528 60 l 1,29,-1
 645 60 l 2,30,31
 678 63 678 63 709 91 c 128,-1,32
 740 119 740 119 748 154 c 2,33,-1
 843 597 l 1,34,-1
 910 597 l 1,35,-1
 816 154 l 2,36,37
 809 124 809 124 791 96 c 128,-1,38
 773 68 773 68 748.5 47 c 128,-1,39
 724 26 724 26 694.5 13 c 128,-1,40
 665 0 665 0 633 0 c 2,41,-1
 517 0 l 2,42,43
 490 0 490 0 474 21 c 128,-1,44
 458 42 458 42 461 68 c 2,45,-1
 541 446 l 2,46,47
 549 481 549 481 529.5 509 c 128,-1,48
 510 537 510 537 476 537 c 2,49,-1
 380 537 l 2,50,51
 357 537 357 537 332.5 527 c 128,-1,52
 308 517 308 517 285 500.5 c 128,-1,53
 262 484 262 484 243.5 463.5 c 128,-1,54
 225 443 225 443 213 422 c 1,55,56
 238 398 238 398 243.5 369.5 c 128,-1,57
 249 341 249 341 243 312 c 2,58,-1
 217 190 l 1,0,1
237 152 m 256,59,60
 216 152 216 152 197.5 136.5 c 128,-1,61
 179 121 179 121 176 99 c 0,62,63
 170 78 170 78 181.5 62.5 c 128,-1,64
 193 47 193 47 214 47 c 256,65,66
 235 47 235 47 254 62.5 c 128,-1,67
 273 78 273 78 279 99 c 0,68,69
 282 121 282 121 270 136.5 c 128,-1,70
 258 152 258 152 237 152 c 256,59,60
570 -128 m 0,71,72
 565 -151 565 -151 548.5 -167.5 c 128,-1,73
 532 -184 532 -184 517 -194 c 1,74,75
 535 -199 535 -199 550 -199 c 0,76,77
 577 -199 577 -199 605 -188.5 c 128,-1,78
 633 -178 633 -178 658 -160 c 128,-1,79
 683 -142 683 -142 702.5 -117 c 128,-1,80
 722 -92 722 -92 734 -65 c 1,81,-1
 787 -65 l 1,82,83
 772 -103 772 -103 745 -136.5 c 128,-1,84
 718 -170 718 -170 683 -195 c 128,-1,85
 648 -220 648 -220 609 -234.5 c 128,-1,86
 570 -249 570 -249 531 -249 c 0,87,88
 500 -249 500 -249 472.5 -241.5 c 128,-1,89
 445 -234 445 -234 423.5 -218.5 c 128,-1,90
 402 -203 402 -203 392.5 -180.5 c 128,-1,91
 383 -158 383 -158 389 -128 c 0,92,93
 393 -110 393 -110 404 -94 c 128,-1,94
 415 -78 415 -78 430 -65.5 c 128,-1,95
 445 -53 445 -53 463 -45.5 c 128,-1,96
 481 -38 481 -38 499 -38 c 0,97,98
 537 -38 537 -38 558 -63.5 c 128,-1,99
 579 -89 579 -89 570 -128 c 0,71,72
490 -78 m 0,100,101
 469 -78 469 -78 451.5 -92.5 c 128,-1,102
 434 -107 434 -107 430 -128 c 0,103,104
 427 -148 427 -148 437.5 -163 c 128,-1,105
 448 -178 448 -178 469 -178 c 256,106,107
 490 -178 490 -178 508 -163 c 128,-1,108
 526 -148 526 -148 529 -128 c 0,109,110
 534 -107 534 -107 522 -92.5 c 128,-1,111
 510 -78 510 -78 490 -78 c 0,100,101
EndSplineSet
Substitution2: "Single Substitution lookup 22 subtable" uni0E0D.alt1
Substitution2: "Single Substitution lookup 22 subtable" uni0E0D.alt1
EndChar
StartChar: uni0E0E
Encoding: 3598 3598 225
Width: 615
VWidth: 1507
Flags: W
HStem: -294 44<103.837 180.812> -146 43<116.729 197.502> 0 44<106.99 184.951> 146 44<124.563 196.592> 537 60<371.445 542.398>
Fore
246 90 m 2,0,1
 238 53 238 53 204 26.5 c 128,-1,2
 170 0 170 0 133 0 c 0,3,4
 93 0 93 0 71.5 28.5 c 128,-1,5
 50 57 50 57 57 95 c 0,6,7
 65 134 65 134 99 162 c 128,-1,8
 133 190 133 190 172 190 c 0,9,10
 179 190 179 190 185 190 c 128,-1,11
 191 190 191 190 199 187 c 1,12,-1
 225 311 l 2,13,14
 228 323 228 323 222 337 c 128,-1,15
 216 351 216 351 204.5 364 c 128,-1,16
 193 377 193 377 177 386 c 128,-1,17
 161 395 161 395 145 396 c 1,18,19
 158 439 158 439 186 476 c 128,-1,20
 214 513 214 513 251 540 c 128,-1,21
 288 567 288 567 331 582 c 128,-1,22
 374 597 374 597 416 597 c 2,23,-1
 508 597 l 2,24,25
 537 597 537 597 561.5 584 c 128,-1,26
 586 571 586 571 603 551 c 128,-1,27
 620 531 620 531 626.5 503 c 128,-1,28
 633 475 633 475 627 446 c 2,29,-1
 502 -146 l 1,30,31
 464 -199 464 -199 419 -239 c 128,-1,32
 374 -279 374 -279 318 -301 c 1,33,-1
 234 -228 l 1,34,35
 217 -258 217 -258 187.5 -276 c 128,-1,36
 158 -294 158 -294 128 -294 c 0,37,38
 92 -294 92 -294 68.5 -265.5 c 128,-1,39
 45 -237 45 -237 54 -197 c 0,40,41
 62 -158 62 -158 96.5 -130.5 c 128,-1,42
 131 -103 131 -103 169 -103 c 0,43,44
 205 -103 205 -103 235 -130 c 2,45,-1
 336 -223 l 1,46,47
 384 -203 384 -203 436 -136 c 1,48,-1
 559 446 l 2,49,50
 567 481 567 481 547.5 509 c 128,-1,51
 528 537 528 537 494 537 c 2,52,-1
 399 537 l 2,53,54
 377 537 377 537 353 528 c 128,-1,55
 329 519 329 519 306 503 c 128,-1,56
 283 487 283 487 264.5 467.5 c 128,-1,57
 246 448 246 448 234 427 c 1,58,59
 246 422 246 422 258.5 410.5 c 128,-1,60
 271 399 271 399 280 383.5 c 128,-1,61
 289 368 289 368 293 349 c 128,-1,62
 297 330 297 330 292 311 c 2,63,-1
 246 90 l 2,0,1
101 95 m 256,64,65
 96 74 96 74 109 59 c 128,-1,66
 122 44 122 44 142 44 c 0,67,68
 163 44 163 44 181.5 59 c 128,-1,69
 200 74 200 74 205 95 c 0,70,71
 210 118 210 118 197 132 c 128,-1,72
 184 146 184 146 163 146 c 256,73,74
 142 146 142 146 124 131 c 128,-1,75
 106 116 106 116 101 95 c 256,64,65
98 -197 m 0,76,77
 93 -219 93 -219 105.5 -234.5 c 128,-1,78
 118 -250 118 -250 137 -250 c 0,79,80
 158 -250 158 -250 177.5 -234.5 c 128,-1,81
 197 -219 197 -219 202 -197 c 256,82,83
 207 -176 207 -176 196 -161 c 128,-1,84
 185 -146 185 -146 160 -146 c 0,85,86
 139 -146 139 -146 120 -161 c 128,-1,87
 101 -176 101 -176 98 -197 c 0,76,77
EndSplineSet
Substitution2: "Single Substitution lookup 22 subtable" uni0E0E.alt1
Substitution2: "Single Substitution lookup 22 subtable" uni0E0E.alt1
EndChar
StartChar: uni0E0F
Encoding: 3599 3599 226
Width: 613
VWidth: 1507
Flags: W
HStem: -283 43<58.7238 133.57> -134 44<72.5705 150.172> 0 44<107.046 185.209> 146 44<124.563 196.592> 537 60<371.445 542.398>
VStem: 8 43<-213.942 -152.635>
Fore
502 -148 m 2,0,1
 497 -166 497 -166 489 -184 c 128,-1,2
 481 -202 481 -202 467 -219 c 0,3,4
 451 -237 451 -237 423.5 -256.5 c 128,-1,5
 396 -276 396 -276 353 -301 c 1,6,-1
 304 -185 l 1,7,-1
 213 -301 l 1,8,-1
 176 -235 l 1,9,10
 160 -256 160 -256 135 -269.5 c 128,-1,11
 110 -283 110 -283 84 -283 c 0,12,13
 45 -283 45 -283 22.5 -254.5 c 128,-1,14
 0 -226 0 -226 8 -187 c 0,15,16
 17 -148 17 -148 51.5 -119 c 128,-1,17
 86 -90 86 -90 125 -90 c 0,18,19
 169 -90 169 -90 193 -127 c 1,20,-1
 234 -213 l 1,21,-1
 327 -95 l 1,22,-1
 378 -213 l 1,23,24
 389 -207 389 -207 397 -200.5 c 128,-1,25
 405 -194 405 -194 413 -187 c 0,26,27
 427 -175 427 -175 434 -148 c 2,28,-1
 559 446 l 2,29,30
 567 481 567 481 547.5 509 c 128,-1,31
 528 537 528 537 494 537 c 2,32,-1
 399 537 l 2,33,34
 377 537 377 537 353 528 c 128,-1,35
 329 519 329 519 306 503 c 128,-1,36
 283 487 283 487 264.5 467.5 c 128,-1,37
 246 448 246 448 234 427 c 1,38,39
 259 416 259 416 280 383.5 c 128,-1,40
 301 351 301 351 292 312 c 2,41,-1
 246 90 l 2,42,43
 238 53 238 53 204 26.5 c 128,-1,44
 170 0 170 0 133 0 c 256,45,46
 95 0 95 0 72.5 28 c 128,-1,47
 50 56 50 56 57 95 c 0,48,49
 65 133 65 133 99.5 161.5 c 128,-1,50
 134 190 134 190 172 190 c 0,51,52
 186 190 l 128,-1,53
 193 190 193 190 199 187 c 1,54,-1
 225 311 l 2,55,56
 228 323 228 323 222 337 c 128,-1,57
 216 351 216 351 204.5 364 c 128,-1,58
 193 377 193 377 177 386 c 128,-1,59
 161 395 161 395 145 396 c 1,60,61
 158 439 158 439 186 476 c 128,-1,62
 214 513 214 513 251 540 c 128,-1,63
 288 567 288 567 331 582 c 128,-1,64
 374 597 374 597 416 597 c 2,65,-1
 508 597 l 2,66,67
 537 597 537 597 561.5 584 c 128,-1,68
 586 571 586 571 603 551 c 128,-1,69
 620 531 620 531 626.5 503 c 128,-1,70
 633 475 633 475 627 446 c 2,71,-1
 502 -148 l 2,0,1
101 95 m 0,72,73
 96 74 96 74 109 59 c 128,-1,74
 122 44 122 44 142 44 c 0,75,76
 164 44 164 44 182 59 c 128,-1,77
 200 74 200 74 205 95 c 256,78,79
 210 116 210 116 197 131 c 128,-1,80
 184 146 184 146 163 146 c 0,81,82
 142 145 142 145 124 130 c 128,-1,83
 106 115 106 115 101 95 c 0,72,73
51 -187 m 0,84,85
 48 -207 48 -207 60 -223.5 c 128,-1,86
 72 -240 72 -240 93 -240 c 256,87,88
 115 -240 115 -240 133.5 -224 c 128,-1,89
 152 -208 152 -208 157 -187 c 256,90,91
 161 -166 161 -166 149 -150 c 128,-1,92
 137 -134 137 -134 116 -134 c 256,93,94
 95 -134 95 -134 75.5 -150 c 128,-1,95
 56 -166 56 -166 51 -187 c 0,84,85
EndSplineSet
Substitution2: "Single Substitution lookup 22 subtable" uni0E0F.alt1
Substitution2: "Single Substitution lookup 22 subtable" uni0E0F.alt1
EndChar
StartChar: uni0E10
Encoding: 3600 3600 227
Width: 538
VWidth: 1507
Flags: W
HStem: -268 43<-11.4833 65.0978> -154 32<317.791 355.829> -118 44<3.41272 80.9268> -45 31<332.839 386.881> 0 21G<211 295> 134 45<186.771 237.527> 285 45<216.086 278.241> 494 55<463.406 544.188> 543 54<292.718 352.404>
VStem: 136 43<205.721 266.469>
Fore
455 152 m 2,0,1
 448 124 448 124 431.5 96.5 c 128,-1,2
 415 69 415 69 391.5 48 c 128,-1,3
 368 27 368 27 339.5 13.5 c 128,-1,4
 311 0 311 0 279 0 c 2,5,-1
 211 0 l 1,6,-1
 240 139 l 1,7,8
 226 134 226 134 211 134 c 0,9,10
 172 134 172 134 150 163.5 c 128,-1,11
 128 193 128 193 136 232 c 0,12,13
 140 252 140 252 151.5 269 c 128,-1,14
 163 286 163 286 179.5 300 c 128,-1,15
 196 314 196 314 215 322 c 128,-1,16
 234 330 234 330 253 330 c 0,17,18
 292 330 292 330 314 302 c 128,-1,19
 336 274 336 274 327 232 c 2,20,-1
 291 60 l 1,21,22
 321 63 321 63 349.5 87.5 c 128,-1,23
 378 112 378 112 386 143 c 2,24,-1
 422 315 l 1,25,26
 326 380 326 380 127 410 c 1,27,28
 134 448 134 448 154.5 488 c 128,-1,29
 175 528 175 528 210 553 c 0,30,31
 237 573 237 573 266 585 c 128,-1,32
 295 597 295 597 326 597 c 0,33,34
 350 597 350 597 372.5 590 c 128,-1,35
 395 583 395 583 416 575 c 128,-1,36
 437 567 437 567 459 559.5 c 128,-1,37
 481 552 481 552 505 549 c 0,38,39
 532 549 532 549 559 562.5 c 128,-1,40
 586 576 586 576 621 603 c 1,41,-1
 607 540 l 1,42,43
 580 514 580 514 553 504 c 128,-1,44
 526 494 526 494 499 494 c 0,45,46
 473 494 473 494 450.5 502 c 128,-1,47
 428 510 428 510 406 519 c 128,-1,48
 384 528 384 528 361 535.5 c 128,-1,49
 338 543 338 543 314 543 c 0,50,51
 297 543 297 543 279 534.5 c 128,-1,52
 261 526 261 526 245 512.5 c 128,-1,53
 229 499 229 499 218 482.5 c 128,-1,54
 207 466 207 466 203 451 c 1,55,56
 283 439 283 439 355.5 412.5 c 128,-1,57
 428 386 428 386 496 342 c 1,58,-1
 455 152 l 2,0,1
398 -190 m 2,59,60
 380 -267 380 -267 270 -300 c 1,61,-1
 226 -188 l 1,62,-1
 119 -300 l 1,63,-1
 96 -229 l 1,64,65
 62 -268 62 -268 17 -268 c 0,66,67
 -23 -268 -23 -268 -47 -239 c 128,-1,68
 -71 -210 -71 -210 -63 -170 c 0,69,70
 -54 -131 -54 -131 -19.5 -102.5 c 128,-1,71
 15 -74 15 -74 54 -74 c 0,72,73
 77 -74 77 -74 95 -83 c 128,-1,74
 113 -92 113 -92 122 -110 c 1,75,-1
 149 -213 l 1,76,-1
 243 -113 l 1,77,-1
 298 -240 l 1,78,79
 341 -222 341 -222 350 -184 c 2,80,-1
 356 -151 l 1,81,82
 347 -154 347 -154 338 -154 c 0,83,84
 309 -154 309 -154 293 -133 c 128,-1,85
 277 -112 277 -112 285 -83 c 0,86,87
 291 -54 291 -54 316 -34 c 128,-1,88
 341 -14 341 -14 368 -14 c 0,89,90
 393 -14 393 -14 410 -33.5 c 128,-1,91
 427 -53 427 -53 421 -83 c 2,92,-1
 398 -190 l 2,59,60
-18 -170 m 0,93,94
 -23 -191 -23 -191 -10.5 -208 c 128,-1,95
 2 -225 2 -225 23 -225 c 0,96,97
 45 -225 45 -225 63 -208 c 128,-1,98
 81 -191 81 -191 86 -170 c 0,99,100
 92 -149 92 -149 79 -133.5 c 128,-1,101
 66 -118 66 -118 45 -118 c 256,102,103
 24 -118 24 -118 6 -133.5 c 128,-1,104
 -12 -149 -12 -149 -18 -170 c 0,93,94
222 179 m 256,105,106
 243 179 243 179 261.5 195 c 128,-1,107
 280 211 280 211 285 232 c 256,108,109
 289 253 289 253 277 269 c 128,-1,110
 265 285 265 285 244 285 c 256,111,112
 223 285 223 285 203.5 269 c 128,-1,113
 184 253 184 253 179 232 c 0,114,115
 176 213 176 213 188 196 c 128,-1,116
 200 179 200 179 222 179 c 256,105,106
315 -83 m 256,117,118
 312 -98 312 -98 319.5 -110 c 128,-1,119
 327 -122 327 -122 344 -122 c 0,120,121
 359 -122 359 -122 372.5 -111.5 c 128,-1,122
 386 -101 386 -101 389 -86 c 0,123,124
 393 -69 393 -69 385 -57 c 128,-1,125
 377 -45 377 -45 360 -45 c 256,126,127
 344 -45 344 -45 331 -56.5 c 128,-1,128
 318 -68 318 -68 315 -83 c 256,117,118
EndSplineSet
Substitution2: "Single Substitution lookup 22 subtable" uni0E10.alt1
Substitution2: "Single Substitution lookup 22 subtable" uni0E10.alt1
EndChar
StartChar: uni0E11
Encoding: 3601 3601 228
Width: 780
VWidth: 1507
Flags: W
HStem: 0 21G<265 346.193 635 706.244> 312 41<156.76 215.661> 452 38<182.378 245.284> 577 20G<292.5 317.675 402.687 442 637.635 667>
Fore
369 175 m 1,0,-1
 651 597 l 1,1,2
 683 597 683 597 712.5 586.5 c 128,-1,3
 742 576 742 576 763 555.5 c 128,-1,4
 784 535 784 535 793.5 506.5 c 128,-1,5
 803 478 803 478 796 443 c 2,6,-1
 702 0 l 1,7,-1
 635 0 l 1,8,-1
 728 443 l 2,9,10
 734 470 734 470 720.5 493.5 c 128,-1,11
 707 517 707 517 678 523 c 1,12,-1
 333 0 l 1,13,-1
 265 0 l 1,14,-1
 338 347 l 2,15,16
 341 363 341 363 355 377.5 c 128,-1,17
 369 392 369 392 386 409 c 0,18,19
 401 424 401 424 415.5 444 c 128,-1,20
 430 464 430 464 434 487 c 0,21,22
 440 516 440 516 422 541 c 1,23,-1
 329 434 l 1,24,-1
 274 544 l 1,25,26
 246 543 246 543 214 524 c 128,-1,27
 182 505 182 505 170 475 c 1,28,29
 196 490 196 490 220 490 c 0,30,31
 255 490 255 490 276 463.5 c 128,-1,32
 297 437 297 437 289 398 c 0,33,34
 285 380 285 380 273.5 365 c 128,-1,35
 262 350 262 350 247 338 c 128,-1,36
 232 326 232 326 214 319 c 128,-1,37
 196 312 196 312 179 312 c 0,38,39
 155 312 155 312 139.5 322.5 c 128,-1,40
 124 333 124 333 115.5 351 c 128,-1,41
 107 369 107 369 105.5 391 c 128,-1,42
 104 413 104 413 109 436 c 0,43,44
 116 469 116 469 135.5 499 c 128,-1,45
 155 529 155 529 182.5 550 c 128,-1,46
 210 571 210 571 243 584 c 128,-1,47
 276 597 276 597 309 597 c 1,48,-1
 345 514 l 1,49,-1
 421 597 l 1,50,51
 463 586 463 586 477 552.5 c 128,-1,52
 491 519 491 519 482 478 c 0,53,54
 470 425 470 425 430 381 c 0,55,56
 422 372 422 372 415.5 365.5 c 128,-1,57
 409 359 409 359 404 339 c 2,58,-1
 369 175 l 1,0,-1
211 452 m 0,59,60
 194 452 194 452 174.5 438 c 128,-1,61
 155 424 155 424 151 402 c 0,62,63
 148 383 148 383 158.5 368 c 128,-1,64
 169 353 169 353 190 353 c 0,65,66
 210 353 210 353 228.5 368.5 c 128,-1,67
 247 384 247 384 250 402 c 0,68,69
 255 424 255 424 243 438 c 128,-1,70
 231 452 231 452 211 452 c 0,59,60
EndSplineSet
EndChar
StartChar: uni0E12
Encoding: 3602 3602 229
Width: 901
VWidth: 1507
Flags: W
HStem: 0 48<456.44 496> 142 54<599.203 698.183> 172 44<301.966 346.785> 321 44<317.041 392.218> 577 20G<395.5 429.514 520.73 569.5 875.771 948>
VStem: 399 46<75.9453 138.435 234.372 298.824>
Fore
163 53 m 1,0,1
 211 59 211 59 261.5 93 c 128,-1,2
 312 127 312 127 347 175 c 1,3,4
 335 172 335 172 327 172 c 0,5,6
 288 172 288 172 265.5 200.5 c 128,-1,7
 243 229 243 229 250 268 c 0,8,9
 259 308 259 308 294 336.5 c 128,-1,10
 329 365 329 365 368 365 c 0,11,12
 405 365 405 365 428 336.5 c 128,-1,13
 451 308 451 308 442 268 c 0,14,15
 431 219 431 219 399.5 170.5 c 128,-1,16
 368 122 368 122 325 84.5 c 128,-1,17
 282 47 282 47 232 23.5 c 128,-1,18
 182 0 182 0 137 0 c 2,19,-1
 84 0 l 1,20,-1
 163 372 l 2,21,22
 172 413 172 413 197.5 453 c 128,-1,23
 223 493 223 493 257.5 524.5 c 128,-1,24
 292 556 292 556 333.5 576.5 c 128,-1,25
 375 597 375 597 416 597 c 1,26,-1
 466 523 l 1,27,-1
 541 597 l 1,28,29
 598 595 598 595 630 550.5 c 128,-1,30
 662 506 662 506 648 445 c 2,31,-1
 595 196 l 1,32,33
 702 163 702 163 769 72 c 1,34,-1
 880 597 l 1,35,-1
 948 597 l 1,36,-1
 822 0 l 1,37,-1
 754 0 l 1,38,39
 716 48 716 48 677.5 86.5 c 128,-1,40
 639 125 639 125 583 142 c 1,41,-1
 561 35 l 1,42,43
 544 18 544 18 522 9 c 128,-1,44
 500 0 500 0 481 0 c 0,45,46
 440 0 440 0 415 31 c 128,-1,47
 390 62 390 62 399 104 c 0,48,49
 404 124 404 124 416 142.5 c 128,-1,50
 428 161 428 161 445.5 175.5 c 128,-1,51
 463 190 463 190 482.5 198.5 c 128,-1,52
 502 207 502 207 522 207 c 2,53,-1
 531 207 l 1,54,-1
 580 445 l 2,55,56
 586 472 586 472 573.5 494.5 c 128,-1,57
 561 517 561 517 535 525 c 1,58,-1
 448 437 l 1,59,-1
 384 523 l 1,60,61
 332 510 332 510 287.5 467.5 c 128,-1,62
 243 425 243 425 231 372 c 2,63,-1
 163 53 l 1,0,1
297 268 m 256,64,65
 292 247 292 247 303.5 231.5 c 128,-1,66
 315 216 315 216 336 216 c 256,67,68
 357 216 357 216 375 231.5 c 128,-1,69
 393 247 393 247 398 268 c 256,70,71
 402 289 402 289 391 305 c 128,-1,72
 380 321 380 321 359 321 c 256,73,74
 338 321 338 321 319.5 305 c 128,-1,75
 301 289 301 289 297 268 c 256,64,65
445 104 m 1,76,77
 442 80 442 80 456 64 c 128,-1,78
 470 48 470 48 496 48 c 1,79,-1
 520 160 l 1,80,-1
 513 160 l 2,81,82
 491 160 491 160 471 142.5 c 128,-1,83
 451 125 451 125 445 104 c 1,76,77
EndSplineSet
EndChar
StartChar: uni0E13
Encoding: 3603 3603 230
Width: 857
VWidth: 1507
Flags: W
HStem: 0 44<171.459 234.455 714.761 782.189> 149 44<217.492 263.632> 537 60<346.738 516.414>
VStem: 270 44<61.5337 96 96 125.877> 659 46<75.8447 115.41>
Fore
210 188 m 1,0,1
 217 191 217 191 224.5 192 c 128,-1,2
 232 193 232 193 240 193 c 0,3,4
 277 193 277 193 299 164.5 c 128,-1,5
 321 136 321 136 314 96 c 0,6,7
 309 78 309 78 297.5 61 c 128,-1,8
 286 44 286 44 270.5 30.5 c 128,-1,9
 255 17 255 17 236 8.5 c 128,-1,10
 217 0 217 0 199 0 c 0,11,12
 164 0 164 0 140 22.5 c 128,-1,13
 116 45 116 45 119 80 c 2,14,-1
 167 312 l 2,15,16
 175 339 175 339 160 364 c 128,-1,17
 145 389 145 389 119 392 c 1,18,19
 133 434 133 434 160.5 472 c 128,-1,20
 188 510 188 510 225 537.5 c 128,-1,21
 262 565 262 565 305 581 c 128,-1,22
 348 597 348 597 390 597 c 2,23,-1
 482 597 l 2,24,25
 511 597 511 597 536 584 c 128,-1,26
 561 571 561 571 577.5 551 c 128,-1,27
 594 531 594 531 600.5 503 c 128,-1,28
 607 475 607 475 601 446 c 2,29,-1
 523 74 l 1,30,31
 546 93 546 93 575 114.5 c 128,-1,32
 604 136 604 136 636 155.5 c 128,-1,33
 668 175 668 175 698 190 c 128,-1,34
 728 205 728 205 754 214 c 1,35,-1
 835 597 l 1,36,-1
 903 597 l 1,37,-1
 819 205 l 1,38,39
 847 194 847 194 862 166.5 c 128,-1,40
 877 139 877 139 870 104 c 0,41,42
 865 83 865 83 852.5 64 c 128,-1,43
 840 45 840 45 822.5 31 c 128,-1,44
 805 17 805 17 784 8.5 c 128,-1,45
 763 0 763 0 743 0 c 0,46,47
 699 0 699 0 675 31.5 c 128,-1,48
 651 63 651 63 659 106 c 2,49,-1
 662 116 l 1,50,51
 598 78 598 78 508 0 c 1,52,-1
 440 0 l 1,53,-1
 534 446 l 2,54,55
 541 481 541 481 521.5 509 c 128,-1,56
 502 537 502 537 469 537 c 2,57,-1
 374 537 l 2,58,59
 351 537 351 537 326 527 c 128,-1,60
 301 517 301 517 278.5 500.5 c 128,-1,61
 256 484 256 484 237.5 463.5 c 128,-1,62
 219 443 219 443 207 422 c 1,63,64
 232 398 232 398 237.5 369.5 c 128,-1,65
 243 341 243 341 235 311 c 2,66,-1
 210 188 l 1,0,1
166 96 m 0,67,68
 161 77 161 77 173 60.5 c 128,-1,69
 185 44 185 44 208 44 c 0,70,71
 229 44 229 44 247 60.5 c 128,-1,72
 265 77 265 77 270 96 c 0,73,74
 274 118 274 118 262 133.5 c 128,-1,75
 250 149 250 149 231 149 c 0,76,77
 210 149 210 149 190 133.5 c 128,-1,78
 170 118 170 118 166 96 c 0,67,68
822 106 m 0,79,80
 828 128 828 128 813.5 145.5 c 128,-1,81
 799 163 799 163 775 163 c 0,82,83
 752 163 752 163 731.5 145.5 c 128,-1,84
 711 128 711 128 705 106 c 0,85,86
 701 84 701 84 714 66 c 128,-1,87
 727 48 727 48 752 48 c 0,88,89
 775 48 775 48 796 66 c 128,-1,90
 817 84 817 84 822 106 c 0,79,80
EndSplineSet
EndChar
StartChar: uni0E14
Encoding: 3604 3604 231
Width: 639
VWidth: 1507
Flags: W
HStem: 0 53<161 242.439> 136 40<321.377 345> 282 42<334.039 412.412> 537 60<358.969 537.603>
Fore
354 176 m 0,0,1
 377 176 377 176 396 191.5 c 128,-1,2
 415 207 415 207 419 228 c 256,3,4
 424 249 424 249 411 265.5 c 128,-1,5
 398 282 398 282 377 282 c 256,6,7
 356 282 356 282 336.5 265.5 c 128,-1,8
 317 249 317 249 314 229 c 0,9,10
 309 208 309 208 321 192 c 128,-1,11
 333 176 333 176 354 176 c 0,0,1
345 136 m 1,12,13
 301 136 301 136 282.5 163.5 c 128,-1,14
 264 191 264 191 271 229 c 256,15,16
 279 267 279 267 313.5 295.5 c 128,-1,17
 348 324 348 324 386 324 c 0,18,19
 421 324 421 324 443.5 296 c 128,-1,20
 466 268 466 268 458 229 c 0,21,22
 449 187 449 187 416 145.5 c 128,-1,23
 383 104 383 104 338.5 71.5 c 128,-1,24
 294 39 294 39 244 19.5 c 128,-1,25
 194 0 194 0 151 0 c 2,26,-1
 81 0 l 1,27,-1
 160 369 l 2,28,29
 169 413 169 413 197 454.5 c 128,-1,30
 225 496 225 496 263 527.5 c 128,-1,31
 301 559 301 559 347 578 c 128,-1,32
 393 597 393 597 437 597 c 2,33,-1
 532 597 l 2,34,35
 562 597 562 597 587 585 c 128,-1,36
 612 573 612 573 628 552 c 128,-1,37
 644 531 644 531 650.5 503 c 128,-1,38
 657 475 657 475 651 443 c 2,39,-1
 558 0 l 1,40,-1
 488 0 l 1,41,-1
 583 448 l 2,42,43
 586 463 586 463 582.5 479.5 c 128,-1,44
 579 496 579 496 570 508 c 128,-1,45
 561 520 561 520 547.5 528.5 c 128,-1,46
 534 537 534 537 519 537 c 2,47,-1
 421 537 l 2,48,49
 389 537 389 537 358 521.5 c 128,-1,50
 327 506 327 506 300 482 c 128,-1,51
 273 458 273 458 253.5 427 c 128,-1,52
 234 396 234 396 228 366 c 2,53,-1
 161 53 l 1,54,55
 205 53 205 53 255.5 76 c 128,-1,56
 306 99 306 99 345 136 c 1,12,13
EndSplineSet
EndChar
StartChar: uni0E15
Encoding: 3605 3605 232
Width: 637
VWidth: 1507
Flags: W
HStem: 0 53<160 192.438> 280 43<333.953 412.613> 577 20G<398 431.803 520.444 554>
Fore
583 445 m 2,0,1
 589 470 589 470 576.5 492 c 128,-1,2
 564 514 564 514 535 522 c 1,3,-1
 448 434 l 1,4,-1
 384 520 l 1,5,6
 357 514 357 514 331.5 499 c 128,-1,7
 306 484 306 484 284 463.5 c 128,-1,8
 262 443 262 443 247 418 c 128,-1,9
 232 393 232 393 226 366 c 2,10,-1
 160 53 l 1,11,12
 179 53 179 53 205 59 c 128,-1,13
 231 65 231 65 255.5 75.5 c 128,-1,14
 280 86 280 86 303.5 101 c 128,-1,15
 327 116 327 116 344 133 c 1,16,17
 297 136 297 136 280.5 165 c 128,-1,18
 264 194 264 194 271 228 c 0,19,20
 279 267 279 267 313 295 c 128,-1,21
 347 323 347 323 386 323 c 256,22,23
 425 323 425 323 445.5 295 c 128,-1,24
 466 267 466 267 458 229 c 0,25,26
 449 184 449 184 416 142.5 c 128,-1,27
 383 101 383 101 338.5 69.5 c 128,-1,28
 294 38 294 38 244 19 c 128,-1,29
 194 0 194 0 149 0 c 2,30,-1
 81 0 l 1,31,-1
 158 366 l 2,32,33
 167 409 167 409 194.5 449.5 c 128,-1,34
 222 490 222 490 258 523 c 128,-1,35
 294 556 294 556 336 576.5 c 128,-1,36
 378 597 378 597 418 597 c 1,37,-1
 467 526 l 1,38,-1
 541 598 l 1,39,40
 567 594 567 594 589.5 579.5 c 128,-1,41
 612 565 612 565 628 545 c 128,-1,42
 644 525 644 525 650.5 499 c 128,-1,43
 657 473 657 473 651 445 c 2,44,-1
 558 0 l 1,45,-1
 490 0 l 1,46,-1
 583 445 l 2,0,1
315 228 m 0,47,48
 311 208 311 208 322 192 c 128,-1,49
 333 176 333 176 354 176 c 256,50,51
 375 176 375 176 395 191.5 c 128,-1,52
 415 207 415 207 419 228 c 256,53,54
 424 249 424 249 411 264.5 c 128,-1,55
 398 280 398 280 377 280 c 256,56,57
 356 280 356 280 337 264.5 c 128,-1,58
 318 249 318 249 315 228 c 0,47,48
EndSplineSet
EndChar
StartChar: uni0E16
Encoding: 3606 3606 233
Width: 592
VWidth: 1507
Flags: W
HStem: 0 42<174.599 252.2> 148 42<213.379 264.623> 537 60<349.738 519.414>
VStem: 273 45<60.0654 124.28>
Fore
169 96 m 0,0,1
 164 75 164 75 176 58.5 c 128,-1,2
 188 42 188 42 210 42 c 256,3,4
 231 42 231 42 249.5 58 c 128,-1,5
 268 74 268 74 273 96 c 0,6,7
 277 116 277 116 265 132 c 128,-1,8
 253 148 253 148 232 148 c 256,9,10
 211 148 211 148 192 131.5 c 128,-1,11
 173 115 173 115 169 96 c 0,0,1
511 0 m 1,12,-1
 443 0 l 1,13,-1
 537 446 l 2,14,15
 544 481 544 481 524.5 509 c 128,-1,16
 505 537 505 537 472 537 c 2,17,-1
 377 537 l 2,18,19
 354 537 354 537 329 527 c 128,-1,20
 304 517 304 517 281.5 500.5 c 128,-1,21
 259 484 259 484 240.5 463.5 c 128,-1,22
 222 443 222 443 210 422 c 1,23,24
 235 398 235 398 240.5 369.5 c 128,-1,25
 246 341 246 341 238 311 c 2,26,-1
 213 187 l 1,27,28
 220 190 220 190 227 190 c 128,-1,29
 241 190 l 0,30,31
 279 190 279 190 302.5 160.5 c 128,-1,32
 326 131 326 131 318 96 c 0,33,34
 309 56 309 56 275 28 c 128,-1,35
 241 0 241 0 202 0 c 0,36,37
 169 0 169 0 144 22.5 c 128,-1,38
 119 45 119 45 122 78 c 2,39,-1
 170 312 l 2,40,41
 178 339 178 339 163 364 c 128,-1,42
 148 389 148 389 122 392 c 1,43,44
 136 434 136 434 163.5 472 c 128,-1,45
 191 510 191 510 228 537.5 c 128,-1,46
 265 565 265 565 308 581 c 128,-1,47
 351 597 351 597 393 597 c 2,48,-1
 485 597 l 2,49,50
 514 597 514 597 539 584 c 128,-1,51
 564 571 564 571 580.5 551 c 128,-1,52
 597 531 597 531 603.5 503 c 128,-1,53
 610 475 610 475 604 446 c 2,54,-1
 511 0 l 1,12,-1
EndSplineSet
EndChar
StartChar: uni0E17
Encoding: 3607 3607 234
Width: 673
VWidth: 1507
Flags: W
HStem: 0 21G<158 238.849 528 599.244> 409 42<194.202 244.696> 552 42<208.13 284.584>
VStem: 146 42<473.361 535.208>
Fore
547 597 m 1,0,1
 579 597 579 597 608.5 586.5 c 128,-1,2
 638 576 638 576 658 555.5 c 128,-1,3
 678 535 678 535 687 506.5 c 128,-1,4
 696 478 696 478 689 443 c 2,5,-1
 595 0 l 1,6,-1
 528 0 l 1,7,-1
 621 443 l 2,8,9
 627 470 627 470 609 493.5 c 128,-1,10
 591 517 591 517 562 523 c 1,11,-1
 226 0 l 1,12,-1
 158 0 l 1,13,-1
 246 413 l 1,14,15
 232 409 232 409 220 409 c 0,16,17
 184 409 184 409 161.5 436 c 128,-1,18
 139 463 139 463 146 502 c 0,19,20
 154 540 154 540 188.5 567 c 128,-1,21
 223 594 223 594 259 594 c 256,22,23
 295 594 295 594 318 567.5 c 128,-1,24
 341 541 341 541 332 503 c 2,25,-1
 258 149 l 1,26,-1
 547 597 l 1,0,1
250 552 m 256,27,28
 231 552 231 552 212 537.5 c 128,-1,29
 193 523 193 523 188 502 c 256,30,31
 184 481 184 481 196 466 c 128,-1,32
 208 451 208 451 229 451 c 256,33,34
 250 451 250 451 268 466 c 128,-1,35
 286 481 286 481 291 502 c 0,36,37
 295 522 295 522 282.5 537 c 128,-1,38
 270 552 270 552 250 552 c 256,27,28
EndSplineSet
EndChar
StartChar: uni0E18
Encoding: 3608 3608 235
Width: 523
VWidth: 1507
Flags: W
HStem: 0 60<179 320.703> 537 60<280.25 349.88 342.789 356.97 356.97 370>
VStem: 113 494<69 604 69.7893 83.9701>
Fore
241 354 m 1,0,-1
 179 60 l 1,1,-1
 304 60 l 2,2,3
 321 60 321 60 337.5 69 c 128,-1,4
 354 78 354 78 369 92 c 128,-1,5
 384 106 384 106 394.5 122.5 c 128,-1,6
 405 139 405 139 409 155 c 2,7,-1
 443 314 l 1,8,9
 393 345 393 345 317 369 c 128,-1,10
 241 393 241 393 142 410 c 1,11,12
 149 446 149 446 168 484 c 128,-1,13
 187 522 187 522 222 552 c 0,14,15
 277 597 277 597 342 597 c 0,16,17
 363 597 363 597 383.5 590 c 128,-1,18
 404 583 404 583 423 574 c 128,-1,19
 442 565 442 565 461.5 557 c 128,-1,20
 481 549 481 549 502 547 c 1,21,22
 529 550 529 550 557.5 566.5 c 128,-1,23
 586 583 586 583 607 604 c 1,24,-1
 594 541 l 1,25,26
 549 491 549 491 491 491 c 0,27,28
 469 491 469 491 449.5 498 c 128,-1,29
 430 505 430 505 410 514 c 128,-1,30
 390 523 390 523 370 530 c 128,-1,31
 350 537 350 537 327 537 c 0,32,33
 309 537 309 537 290 531.5 c 128,-1,34
 271 526 271 526 258 511 c 0,35,36
 241 494 241 494 230.5 483 c 128,-1,37
 220 472 220 472 216 454 c 1,38,39
 298 442 298 442 373 414.5 c 128,-1,40
 448 387 448 387 517 344 c 1,41,-1
 476 152 l 2,42,43
 470 122 470 122 451.5 95 c 128,-1,44
 433 68 433 68 406.5 47 c 128,-1,45
 380 26 380 26 350 13 c 128,-1,46
 320 0 320 0 289 0 c 2,47,-1
 169 0 l 2,48,49
 143 0 143 0 125 19.5 c 128,-1,50
 107 39 107 39 113 69 c 2,51,-1
 173 354 l 1,52,-1
 241 354 l 1,0,-1
EndSplineSet
EndChar
StartChar: uni0E19
Encoding: 3609 3609 236
Width: 612
VWidth: 1507
Flags: W
HStem: 0 50<466.478 550.173> 413 42<195.992 245.727> 556 41<209.22 286.798>
Fore
261 597 m 256,0,1
 297 597 297 597 319.5 571.5 c 128,-1,2
 342 546 342 546 335 508 c 2,3,-1
 244 84 l 1,4,5
 268 106 268 106 299 127.5 c 128,-1,6
 330 149 330 149 364 167 c 128,-1,7
 398 185 398 185 434 198 c 128,-1,8
 470 211 470 211 505 214 c 1,9,-1
 586 597 l 1,10,-1
 656 597 l 1,11,-1
 573 207 l 1,12,13
 603 196 603 196 616.5 169 c 128,-1,14
 630 142 630 142 623 107 c 0,15,16
 612 63 612 63 574.5 31.5 c 128,-1,17
 537 0 537 0 494 0 c 256,18,19
 452 0 452 0 428 31.5 c 128,-1,20
 404 63 404 63 413 107 c 0,21,22
 415 115 415 115 417 122.5 c 128,-1,23
 419 130 419 130 422 137 c 1,24,25
 374 121 374 121 322.5 81 c 128,-1,26
 271 41 271 41 228 0 c 1,27,-1
 158 0 l 1,28,-1
 246 416 l 1,29,30
 238 413 238 413 222 413 c 0,31,32
 187 413 187 413 163.5 441 c 128,-1,33
 140 469 140 469 148 505 c 0,34,35
 155 544 155 544 190 570.5 c 128,-1,36
 225 597 225 597 261 597 c 256,0,1
252 556 m 256,37,38
 231 556 231 556 212.5 541 c 128,-1,39
 194 526 194 526 190 505 c 256,40,41
 185 484 185 484 198 469.5 c 128,-1,42
 211 455 211 455 231 455 c 0,43,44
 252 455 252 455 270 469.5 c 128,-1,45
 288 484 288 484 292 505 c 256,46,47
 297 526 297 526 285 541 c 128,-1,48
 273 556 273 556 252 556 c 256,37,38
529 164 m 0,49,50
 508 164 508 164 486 146 c 128,-1,51
 464 128 464 128 460 107 c 0,52,53
 454 84 454 84 467.5 67 c 128,-1,54
 481 50 481 50 505 50 c 0,55,56
 528 50 528 50 548 66.5 c 128,-1,57
 568 83 568 83 574 107 c 0,58,59
 579 133 579 133 565.5 148 c 128,-1,60
 552 163 552 163 529 164 c 0,49,50
EndSplineSet
EndChar
StartChar: uni0E1A
Encoding: 3610 3610 237
Width: 652
VWidth: 1507
Flags: W
HStem: 0 60<243 451.663> 402 46<195.587 241.596> 552 45<225.958 286.948>
VStem: 294 42<482.478 499 499 527.688>
Fore
431 60 m 2,0,1
 463 60 463 60 494.5 88 c 128,-1,2
 526 116 526 116 534 149 c 2,3,-1
 629 597 l 1,4,-1
 696 597 l 1,5,-1
 600 145 l 2,6,7
 594 115 594 115 576 88.5 c 128,-1,8
 558 62 558 62 533 42.5 c 128,-1,9
 508 23 508 23 478.5 11.5 c 128,-1,10
 449 0 449 0 419 0 c 2,11,-1
 226 0 l 2,12,13
 200 0 200 0 185 20.5 c 128,-1,14
 170 41 170 41 176 66 c 2,15,-1
 249 405 l 1,16,17
 241 404 241 404 234.5 403 c 128,-1,18
 228 402 228 402 220 402 c 0,19,20
 181 402 181 402 160 431.5 c 128,-1,21
 139 461 139 461 146 500 c 0,22,23
 151 519 151 519 162 536 c 128,-1,24
 173 553 173 553 189 566.5 c 128,-1,25
 205 580 205 580 224.5 588.5 c 128,-1,26
 244 597 244 597 262 597 c 0,27,28
 301 597 301 597 322.5 567.5 c 128,-1,29
 344 538 344 538 336 499 c 2,30,-1
 243 60 l 1,31,-1
 431 60 l 2,0,1
252 552 m 0,32,33
 232 552 232 552 213 536 c 128,-1,34
 194 520 194 520 190 499 c 256,35,36
 185 478 185 478 197.5 463 c 128,-1,37
 210 448 210 448 231 448 c 256,38,39
 252 448 252 448 270.5 462 c 128,-1,40
 289 476 289 476 294 499 c 0,41,42
 298 520 298 520 285.5 536 c 128,-1,43
 273 552 273 552 252 552 c 0,32,33
EndSplineSet
EndChar
StartChar: uni0E1B
Encoding: 3611 3611 238
Width: 652
VWidth: 1507
Flags: W
HStem: 0 60<243 451.016> 405 44<195.414 246.509> 555 42<225.638 286.729>
VStem: 145 43<473.853 535.311>
Fore
760 894 m 1,0,-1
 600 148 l 2,1,2
 594 118 594 118 576.5 91.5 c 128,-1,3
 559 65 559 65 534.5 44.5 c 128,-1,4
 510 24 510 24 479.5 12 c 128,-1,5
 449 0 449 0 419 0 c 2,6,-1
 234 0 l 2,7,8
 208 0 208 0 189 20.5 c 128,-1,9
 170 41 170 41 176 69 c 2,10,-1
 249 410 l 1,11,12
 235 405 235 405 222 405 c 0,13,14
 182 405 182 405 159.5 434 c 128,-1,15
 137 463 137 463 145 502 c 0,16,17
 149 520 149 520 160.5 537.5 c 128,-1,18
 172 555 172 555 188.5 568.5 c 128,-1,19
 205 582 205 582 224.5 589.5 c 128,-1,20
 244 597 244 597 262 597 c 0,21,22
 300 597 300 597 322.5 569 c 128,-1,23
 345 541 345 541 336 502 c 2,24,-1
 243 60 l 1,25,-1
 431 60 l 2,26,27
 448 60 448 60 464.5 68.5 c 128,-1,28
 481 77 481 77 495.5 90 c 128,-1,29
 510 103 510 103 520.5 119.5 c 128,-1,30
 531 136 531 136 534 152 c 2,31,-1
 692 894 l 1,32,-1
 760 894 l 1,0,-1
231 449 m 256,33,34
 252 449 252 449 270 465 c 128,-1,35
 288 481 288 481 292 502 c 256,36,37
 297 523 297 523 285.5 539 c 128,-1,38
 274 555 274 555 253 555 c 0,39,40
 234 555 234 555 213.5 538.5 c 128,-1,41
 193 522 193 522 188 502 c 0,42,43
 184 481 184 481 197 465 c 128,-1,44
 210 449 210 449 231 449 c 256,33,34
EndSplineSet
EndChar
StartChar: uni0E1C
Encoding: 3612 3612 239
Width: 636
VWidth: 1507
Flags: W
HStem: 0 21G<136 171.773 465.372 489.5> 405 44<240.377 288.271> 553 44<252.297 330.47>
Fore
579 113 m 2,0,1
 576 98 576 98 570 79 c 128,-1,2
 564 60 564 60 552 43.5 c 128,-1,3
 540 27 540 27 521.5 14.5 c 128,-1,4
 503 2 503 2 476 0 c 1,5,-1
 366 207 l 1,6,-1
 151 0 l 1,7,8
 121 0 121 0 106.5 24 c 128,-1,9
 92 48 92 48 98 77 c 2,10,-1
 188 503 l 2,11,12
 197 541 197 541 232 569 c 128,-1,13
 267 597 267 597 304 597 c 256,14,15
 342 597 342 597 364.5 568.5 c 128,-1,16
 387 540 387 540 380 500 c 0,17,18
 375 482 375 482 364 465 c 128,-1,19
 353 448 353 448 337 434.5 c 128,-1,20
 321 421 321 421 301.5 413 c 128,-1,21
 282 405 282 405 264 405 c 0,22,23
 256 405 256 405 250 405 c 128,-1,24
 244 405 244 405 237 409 c 1,25,-1
 169 86 l 1,26,-1
 372 282 l 1,27,28
 392 282 392 282 402 262 c 2,29,-1
 497 90 l 1,30,31
 510 101 510 101 514 124 c 2,32,-1
 615 597 l 1,33,-1
 683 597 l 1,34,-1
 579 113 l 2,0,1
295 553 m 256,35,36
 274 553 274 553 255.5 538 c 128,-1,37
 237 523 237 523 232 500 c 0,38,39
 228 479 228 479 240 464 c 128,-1,40
 252 449 252 449 273 449 c 256,41,42
 294 449 294 449 313 464 c 128,-1,43
 332 479 332 479 336 500 c 256,44,45
 341 522 341 522 329 537.5 c 128,-1,46
 317 553 317 553 295 553 c 256,35,36
EndSplineSet
EndChar
StartChar: uni0E1D
Encoding: 3613 3613 240
Width: 639
VWidth: 1507
Flags: W
HStem: 405 44<244.825 300.439> 555 42<253.993 330.472>
Fore
580 115 m 2,0,1
 577 99 577 99 570.5 80.5 c 128,-1,2
 564 62 564 62 552.5 45.5 c 128,-1,3
 541 29 541 29 522 16 c 128,-1,4
 503 3 503 3 476 2 c 1,5,-1
 366 208 l 1,6,-1
 151 2 l 1,7,8
 121 2 121 2 106.5 26 c 128,-1,9
 92 50 92 50 99 78 c 2,10,-1
 188 503 l 2,11,12
 197 543 197 543 232 570 c 128,-1,13
 267 597 267 597 306 597 c 0,14,15
 344 597 344 597 366.5 569 c 128,-1,16
 389 541 389 541 380 502 c 0,17,18
 375 484 375 484 364 466.5 c 128,-1,19
 353 449 353 449 337 435.5 c 128,-1,20
 321 422 321 422 302 413.5 c 128,-1,21
 283 405 283 405 265 405 c 0,22,23
 250 405 250 405 237 410 c 1,24,-1
 169 87 l 1,25,-1
 372 283 l 1,26,27
 392 283 392 283 404 264 c 2,28,-1
 497 92 l 1,29,30
 505 98 505 98 508 105.5 c 128,-1,31
 511 113 511 113 514 125 c 2,32,-1
 678 894 l 1,33,-1
 746 894 l 1,34,-1
 580 115 l 2,0,1
297 555 m 0,35,36
 276 555 276 555 256.5 539 c 128,-1,37
 237 523 237 523 232 502 c 256,38,39
 228 481 228 481 240.5 465 c 128,-1,40
 253 449 253 449 274 449 c 0,41,42
 294 449 294 449 313 465 c 128,-1,43
 332 481 332 481 336 502 c 256,44,45
 341 523 341 523 329 539 c 128,-1,46
 317 555 317 555 297 555 c 0,35,36
EndSplineSet
EndChar
StartChar: uni0E1E
Encoding: 3614 3614 241
Width: 705
VWidth: 1507
Flags: W
HStem: -3 21G<220 262 523.438 537> 409 43<194.306 245.521> 555 42<207.348 284.23>
VStem: 145 42<477.371 537.644>
Fore
659 151 m 2,0,1
 653 125 653 125 641 99.5 c 128,-1,2
 629 74 629 74 611.5 53 c 128,-1,3
 594 32 594 32 571.5 17 c 128,-1,4
 549 2 549 2 525 -3 c 1,5,-1
 490 445 l 1,6,7
 419 318 419 318 354 204 c 128,-1,8
 289 90 289 90 235 0 c 1,9,10
 205 0 205 0 185.5 16.5 c 128,-1,11
 166 33 166 33 173 66 c 2,12,-1
 247 413 l 1,13,14
 231 409 231 409 219 409 c 0,15,16
 181 409 181 409 159 437.5 c 128,-1,17
 137 466 137 466 145 503 c 0,18,19
 154 543 154 543 188 570 c 128,-1,20
 222 597 222 597 259 597 c 256,21,22
 297 597 297 597 319.5 569 c 128,-1,23
 342 541 342 541 333 503 c 2,24,-1
 255 128 l 1,25,-1
 517 589 l 1,26,27
 531 585 531 585 534 567 c 2,28,-1
 574 112 l 1,29,30
 582 118 582 118 584 127 c 128,-1,31
 586 136 586 136 589 143 c 1,32,-1
 686 597 l 1,33,-1
 754 597 l 1,34,-1
 659 151 l 2,0,1
250 555 m 256,35,36
 229 555 229 555 210 539 c 128,-1,37
 191 523 191 523 187 503 c 0,38,39
 184 485 184 485 195.5 468.5 c 128,-1,40
 207 452 207 452 228 452 c 256,41,42
 249 452 249 452 267.5 468 c 128,-1,43
 286 484 286 484 289 503 c 0,44,45
 294 525 294 525 282.5 540 c 128,-1,46
 271 555 271 555 250 555 c 256,35,36
EndSplineSet
EndChar
